<mxfile host="app.diagrams.net" modified="2024-02-06T10:03:02.743Z" agent="Mozilla/5.0 (Windows NT 10.0; Win64; x64; rv:122.0) Gecko/20100101 Firefox/122.0" etag="ePFcBNiy-xb5xjQdRDA1" version="23.1.1" type="github">
  <diagram name="Page-1" id="fWkWztUBhXae4kOZfuRt">
    <mxGraphModel dx="1613" dy="708" grid="1" gridSize="10" guides="1" tooltips="1" connect="1" arrows="1" fold="1" page="1" pageScale="1" pageWidth="827" pageHeight="1169" math="0" shadow="0">
      <root>
        <mxCell id="0" />
        <mxCell id="1" parent="0" />
        <mxCell id="1UrD_oh5H9wD-xEEALGg-1" value="" style="shape=actor;whiteSpace=wrap;html=1;" vertex="1" parent="1">
          <mxGeometry x="90" y="670" width="40" height="60" as="geometry" />
        </mxCell>
        <mxCell id="1UrD_oh5H9wD-xEEALGg-2" value="" style="endArrow=classic;html=1;rounded=0;" edge="1" parent="1" target="1UrD_oh5H9wD-xEEALGg-7">
          <mxGeometry width="50" height="50" relative="1" as="geometry">
            <mxPoint x="140" y="720" as="sourcePoint" />
            <mxPoint x="220" y="720" as="targetPoint" />
          </mxGeometry>
        </mxCell>
        <mxCell id="1UrD_oh5H9wD-xEEALGg-3" value="microservice C" style="edgeLabel;html=1;align=center;verticalAlign=middle;resizable=0;points=[];" vertex="1" connectable="0" parent="1UrD_oh5H9wD-xEEALGg-2">
          <mxGeometry x="-0.02" y="-2" relative="1" as="geometry">
            <mxPoint x="380" y="228" as="offset" />
          </mxGeometry>
        </mxCell>
        <mxCell id="1UrD_oh5H9wD-xEEALGg-4" value="instance 1" style="edgeLabel;html=1;align=center;verticalAlign=middle;resizable=0;points=[];" vertex="1" connectable="0" parent="1UrD_oh5H9wD-xEEALGg-2">
          <mxGeometry x="-0.1667" y="-7" relative="1" as="geometry">
            <mxPoint x="384" y="-67" as="offset" />
          </mxGeometry>
        </mxCell>
        <mxCell id="1UrD_oh5H9wD-xEEALGg-5" value="microservice B" style="edgeLabel;html=1;align=center;verticalAlign=middle;resizable=0;points=[];" vertex="1" connectable="0" parent="1UrD_oh5H9wD-xEEALGg-2">
          <mxGeometry x="-0.0667" y="-6" relative="1" as="geometry">
            <mxPoint x="374" y="74" as="offset" />
          </mxGeometry>
        </mxCell>
        <mxCell id="1UrD_oh5H9wD-xEEALGg-6" value="microservice A" style="edgeLabel;html=1;align=center;verticalAlign=middle;resizable=0;points=[];" vertex="1" connectable="0" parent="1UrD_oh5H9wD-xEEALGg-2">
          <mxGeometry x="-0.1" y="-1" relative="1" as="geometry">
            <mxPoint x="378" y="-81" as="offset" />
          </mxGeometry>
        </mxCell>
        <mxCell id="1UrD_oh5H9wD-xEEALGg-39" style="edgeStyle=orthogonalEdgeStyle;rounded=0;orthogonalLoop=1;jettySize=auto;html=1;exitX=1;exitY=0.5;exitDx=0;exitDy=0;" edge="1" parent="1" source="1UrD_oh5H9wD-xEEALGg-7" target="1UrD_oh5H9wD-xEEALGg-35">
          <mxGeometry relative="1" as="geometry" />
        </mxCell>
        <mxCell id="1UrD_oh5H9wD-xEEALGg-7" value="&lt;div&gt;GATEWAY&lt;/div&gt;&lt;div&gt;&lt;br&gt;&lt;/div&gt;" style="rounded=1;whiteSpace=wrap;html=1;strokeWidth=2;fillWeight=4;hachureGap=8;hachureAngle=45;fillColor=#1ba1e2;sketch=1;rotation=-90;" vertex="1" parent="1">
          <mxGeometry x="294" y="690" width="120" height="60" as="geometry" />
        </mxCell>
        <UserObject label="GATEWAY : load balancer -&amp;gt; app-gateway-zuul " placeholders="1" name="Variable" id="1UrD_oh5H9wD-xEEALGg-9">
          <mxCell style="text;html=1;strokeColor=none;fillColor=none;align=center;verticalAlign=middle;whiteSpace=wrap;overflow=hidden;" vertex="1" parent="1">
            <mxGeometry x="275" y="810" width="160" height="40" as="geometry" />
          </mxCell>
        </UserObject>
        <mxCell id="1UrD_oh5H9wD-xEEALGg-16" value="" style="html=1;whiteSpace=wrap;aspect=fixed;shape=isoRectangle;" vertex="1" parent="1">
          <mxGeometry x="525.31" y="540" width="150" height="90" as="geometry" />
        </mxCell>
        <mxCell id="1UrD_oh5H9wD-xEEALGg-13" value="" style="shape=image;verticalLabelPosition=bottom;labelBackgroundColor=default;verticalAlign=top;aspect=fixed;imageAspect=0;image=data:image/png,iVBORw0KGgoAAAANSUhEUgAAAO0AAADVCAMAAACMuod9AAAAe1BMVEVovUX///9fujdmvELG5LvL58FbuTFjuz5cuTNhuztlvEBZuC76/fn+//34/PZsv0q94LHq9eZywVKq2Jry+e99xWHS6sqk1ZOHyW643qvZ7dLh8dzm8+GPzHjc7tWDyGmUzn+f04ym1pV3w1m53qyy26OTzn2Ly3OZ0Ybm5bCAAAAOFklEQVR4nM1da2OiOhDFoJCA72etW1vXuu3//4Xro1ohkzBnCMr5eO8WORAmkznziDq1sRnv3qdRs5i+rLqT+rca1fz77S5LTBo3TDaKstQko9Wfp7LtTnXaONEbYpMvlk9j2xup5l9qEZnevz6F7eQ9eTTXM9/8Y/h4tuM8ewLXE1IlXs5Sth/6SVxPyGcPZdvfmyeSjSL19kC2w+kDLTEJ8/4wtoOnkz3S/XoU25fnLuML1N/HsF0/00D9IhdYZpztpB1kozgaPIDty7P22TIMvg/BbF/zZ7O8IZ83znb6DHeRRgbvuijbsXo2xzvk6AkBZNtvw+ZzQ7xvlu2uVWwjNW6S7aQ9JuoCg+1CGNvW7D5XmFVzbJfJs9lZ0FBsDmI7as/uc0X60hTbdZt2nys04i4DbIdtJBvF02bYfj//VEtBfTbBdtM+E3WB4scg+WwXbdt9rjC78Gx7LTnWEsjZggmbbQt3nysydkiOy/bQLge5iIS7CzHZzttqos6Iue+M+e8+2rn7XKHWIdluA5994tBGQPOCNjy2+4C7T2x0Np2mOqghSD/Cse0G3H3M6PN8bJkcspB8k00otoOAt5X8hkUHu4APMWMFbThsZ+HYFgP844CWXvfCsJ2EuyfdLV76EO5YFceMoA2D7VcwE5VawlxA88eRDqrZvoZ7tbZD+xrw002qd6FqtuHEgWxhXz2g+51WSweVbAOKA+ZgX34X0EnLt3XZDgPuPoowm+uA16+WDqrYrhpm2w0Z7FJd+wcQtkHFgcbZRqpiF6pgG1QcaJ6tqUjG8LNdCjaITGmtDGVq2WzT4yW0ktivCunAzxbfH1L9r7vd9P6OCBZMtpn+WE7mk+VOwLdCOvCyxcUB/XHd4sd2fiuPrXq/XmL4D19a/qCNj+0Q/bE4uTOKk6xMl8VW7e7+7zhHF5dfOvCxRcWBNCp8NROLCINtaSluInQ1ewVsD9s/oINsFv3iBT5LTDhsyyGXIZw/ajzSgYctKA4QeaWl8BODbbqz/sUXaDx80oGbLSgOaOJHVsVlyGCriSyZD5CuRzpws8V2H03t673ifXLYUssQjOhk7l3IyRYLK5BkO68w24x0/XbY23UL2C62c+gHCtvGL5YwW4c6iS3meISyhcQB44jmjov2lME2cXxzb5BldkoHDrYb5OyTujS2UkSLwda47hPbIBLHLuRgi1w8HvXpi8xL1oXB1qlfDSPEaKbfCFtIHEhc54630iPjeBeKiOac8QcyzDktHZBsB5aL6yPrCltbGfksP9np1ncR144K+LnYIuKA03WZWZ8+7wyUuBzdb8RS0dIBxRaRpl1njsGLvWkwz7eJS69DYr20AaD+4xuw+zjctMmIuAY3dmH2tEmFNgoqnEuxRcQBh1HZ6nqRmow2fJD8RgnYBFtgwTjW8ZKuVeVH4WJDLxnEd0//cdgi4gBt6JeOFQfEHGN6W3Ndmb45Wzqw2PaBj5bW/501NEiENTYkXcSkEAK2xRYRB8jcDrcbAMWT45gyVXPk5ZbVYpstIg6QiunQ3SABi56npKoDKTVp+fxYZvsCLBVF+cd79wVArYA8WUEnUet1lNgiZoDc0XwlNKgyQnpV0C6Ulz7+ElvEXdHEq/U+LVgHKt/sCeWDlRdZKfWhyLYcE/WBUpg8H20kYEumBUFR7qQY1Suw7SPHDEpg+ue9E1zjo1w1KMxdCtoU2CJ1a1SWQ0W1qkDRpB4pFMYoSgf3bP9AmxlxDq346gVsyx/eCT0oJFeQDu7ZviMPLYPvXKRWE+4flohYOH/fsYWkacpGVYWOJGypLHpMjbv3uO/YQnEubZ8HKo8TokyExNZKsIyB++f1yxYSB6gAdeVxTMSWerli6eDGFhMHiIVc/cRlWSZEQB1byndv5sYWqxwgtLjq9BsZW6LEFrPKd9LBlS0U86G8RoZHJ8wgsuunIe8xulMOr2wx5YEQDRkpfEK2RPOsPZaOcZMOftiC0jRx/GHcgJBtZp/8VmA2xjUyemE7gHYf6nFzggrSXDjrUI5+uDfp4MIWrRywE585dy1la5tEOPn/RzqIuC+mgNS66w/Gdy9lS0SE0ESbOP5li0TyTiB8dU6kV8qWkLAgl/6Ei6U5sd2i68J+2KzVIc5hza0/w6va1fyHLWjPqaznJeemxWxtp/wTThI/SweRpG7NNsms8lwxW/vpokY5uugakaQoxJYtWCtLzNbe3jd4duupG1Ukqfexc7gWnCcmZptZApakOV0+P7IVtLHILC+ZZSLlbK1T31BQkmXGR7agGxVRh1te8ETMlhBOBWyPzyxC83LJH+cdjmtUUVi+o6SWRfUjQdGGXWXE+4zkbI316UjKlPQmmuGfrc2Wd+CUs7X1NUn5n+pG5RQuBh7P1n63ErZmFsGOVFi2vDq+MO823UUj/K+kbKmUTd653H63krrd7EvwR8QOxGu0RSWFsxw5osGsxCbHC8EfRcSGwDORdhCA5wHai2kgKfiO3wV/RBWh8FwUO5GWVxVp+1KivjnHdyv4bolkZ2bIspygyjx+2U8Jy9/9wfG7Fdhk4rzJLQgv/iW3P6R9BhJ1F0i/o3+CClv7fMs9Xcf3OUyf3Fu2ty5R2W46k/hSp9NE+Vmzf10vlmcb1+/t+X9jSUGi5l6mGwmiAET9GXACy5RavL3tFTCRRZd/Do4bXi6zkZyBqCAgFACJU2iiELFPS6xNpIaS8y31sEP2rSjD9sH6IpO8OJ7mJfdpB6YkHwQX9hYgCEudH5ooLkUYyX5zfaSJEoGxxEid41KSRjSprSA310iaqMnl6DDWZd6E8WSqR0rYxhX3IPJMJLbmJ54sMXD2YIR+U2yJhBaJ33jO3RPpQGRHmKYaDhPKOK6L/OTJizQ+siADyhsEQMzXgBW+e40P12+paILkHhggyi2H+O3Gl0RFmTZPpn4EbKl2B6JURmAQ77V5OO+Cri1qop80VYSDL6Ji3oWgF3RuF7AIrF31z9ivVqB4Xau0ZPlSEXXqE55M/L9CzJrAT3vlfCk0F44u4QveZTm21USmnliAlQuHd0im2o6Ent9A1W3j54/f6gRhDmvkaBkS1lCRHRphz4/KYcV7olJNfOFn5r3NlFjH+D5H5Sfjrja1CXV6AT0qshslvHro3HO85R1ZfbsK9nY11ekDf7X32dzimpHI1ewn1NxJuh0M/NW6akZwv57sTTGYBrFU9BRU3Aty1gPBM8rosvnhKADddEH1XsI9XHetF1bHd74W2URnHtWmm+7JRlN/4dxVTx0fVKN5Bj0nYEh1u0BgyDcrOEKXvrUa9bcnOHpjDhe1TJVyjPKF+4aXW4/XqK0+Qzu6ygjabN6QO8bO4T3hK2qrobr5M1z9lg7SafSZq6kRfqC0arTq9ES43JyrIfUmFq1mNXU8vgE+nMQKJ9Xqd3G5pKtl0OAb7qIaZe5R8l+w5avudwH1MrnA2RCqs51iX1qsF87OkzP4oyVC/PX61FxABPNvFzP8pRKryD09Q3Da4PSpkehCno7Ug0PKk6WPXD3dcQUDiqjDcc3+Uj93GnvGQAzGI135daTJ1NePfkJ2FveD2V9KEEzLRt4JgK/fRrnV+DjV6c473mcOSfkXkE106vaF+0E69Q88HCx3kVap5QtlqdKj1dLfeH8uGIxFj5Sp3fPvRrdypsmku3tXuVbKnKGUzs37qlc5wHaeCQ4Z9u7jZAv1c/xBFrHm7s43y+56fTis193lhjV67A+QfPN7N0A/R9Egr8ywRmuheJWQdY35CtCH9Yo45wybAjEWRfVcI9xC9Ni9we32SbGTqQ+uwUhB+iffoN75s2gZmMMN7X9uw9W6Nkxv7BtS4/YiYfSULOKD98aWjlOLk10grv0PqYbm7PobrKf9L0wU5PX2jDS25RmHG2xewS/i5I03w9ODyYs80iOaV1BDr0v1gTEK0I3hKpEHLY2jC3gFW0ku7+0nzaeYb/9Qa36qcM5IvXwvFa8dzd/9GM7SetFZ3/j5oPOBCoiNXrGHhV+x+c7riWbu3aeKbe3EAqMXXeAFz8f76nN/BeSznwLMfcyUfuux/Kt590uLDgAF1JnrJZrZZt2AShaHrfcVD19n00ToOBXhnJ3AYRsoxzoz2ixW3S3xkufb8W6vtCDuRIFKrwLYhpu1GKdK52r/tputx91erztez76/9jrXRhB0cqHmrMWgczSjc23MKUZzgjGpIETihXeCGYdtyBmpTaP+jNSQ82+bRl55HHnkbOOGEWK2cUNJ1g0gyNzqgDPJG0WYmeQh5803iJge9wazlUgHjwc9EEjAFmvP/Bw4EyJgtiLp4MFIKqevs9niiUqPhkscELEVSOOPBWP34bMVSgcPg1MckLFFOxY/Fs6ZhUK2spYLj4JbHBCyrR+0aQ4ecUDKViwdNA+POCBl20hNYhD4xAEx201b3WXHhOB6bBsrFa8J52jfemx57dAeDb84IGcbvCYxCPziQA22bdyF+LsPzJbb6+uB8KTP1mXbYHsWIarEgVpsw0kHgUA0ogjHFq59axiV4kA9tv1WsXWNkQ7Ftl3SgaegIQzbNkkHWbU4UJdtxYTBR4Lo1xOabXt2IWpIXnC2klEBTYCuHAjNtrNuB90ccZDlbIP1AagFhXlRcraB+gDUgnEUJIdn2xlOn32wpzsmNMO20xemwIeCgnfaOmzrVYrXhrhaQ8q2M86f9fGmRE+6ptl2Jgv9DCcyyz/kdSlytp1OL6qfholy1fs6VQt12HY63WntFFsAsckX4kUcgG2ns/3OgmYqupClKhn9hbO7A7M9YjPevU8bJjt9WXXrUj3iP7ZavqFNdSt0AAAAAElFTkSuQmCC;" vertex="1" parent="1">
          <mxGeometry x="580.8399999999999" y="567.5" width="38.95" height="35" as="geometry" />
        </mxCell>
        <mxCell id="1UrD_oh5H9wD-xEEALGg-18" value="" style="html=1;whiteSpace=wrap;aspect=fixed;shape=isoRectangle;" vertex="1" parent="1">
          <mxGeometry x="525.31" y="700" width="150" height="90" as="geometry" />
        </mxCell>
        <mxCell id="1UrD_oh5H9wD-xEEALGg-15" value="" style="shape=image;verticalLabelPosition=bottom;labelBackgroundColor=default;verticalAlign=top;aspect=fixed;imageAspect=0;image=data:image/png,iVBORw0KGgoAAAANSUhEUgAAB3MAAAgACAYAAAA8IRltAAAABGdBTUEAALGPC/xhBQAAACBjSFJNAAB6JgAAgIQAAPoAAACA6AAAdTAAAOpgAAA6mAAAF3CculE8AAAAB3RJTUUH5QEfFQEGVdK7BwAAAAZiS0dEAAAAAAAA+UO7fwABxlNJREFUGBnswfmTZeV94OnP95x7bmZRFBT7TiF2SCgOt9h30GptSGr1yHZ3REc45g+ZiZmYmR86Ohwxi0MjWw617JEta7NsIXm0tCyJRWJJMpXsBYeloEBAgXgpCirrvu8QGtmtlhAUVbnc5fM8gSRJkiRJY6qjjSHUQK+C016jfGYP8beZ8lRDWYZ6ecB8QZIkSZKkMRRIkiRJkjRmOtomw2wQx2TKDcBHg/hoIjcJch+eqinfHFL9eVCe7lFeG7C4B0mSJEmSxkggSZIkSdIY6Gh7GQ4FDgu4pMAfQHwKOJJfS2QS/1XAGw3cV1G+tEx8vaHsbsgvtSy9gSRJkiRJIy6QJEmSJGlEdbRVhsOAowJOK/Bh4OMQpwE9fksik3hrFeyu4UdB+UIm7uvDC7Pw4hwLy0iSJEmSNIICSZIkSZJGSEdbFdhY4FjgFOBq4GMQFwAbeRuJTOLtBZQKXqzhm8DfBzzZh50NvDjHwj4kSZIkSRoRgSRJkiRJ66yjjQwzBY4POBViG5QbIK4CjmY/JTKJ/VfBvhq2B9wC/KhHeTKoHoN4ZcB8QZIkSZKkdRRIkiRJkrROOlredHKGUyEuAi4HLgfO5QAkMokDU8OrFSxl+EYF9zeUJwMWBywWJEmSJElaB4EkSZIkSWuso92c4Xzg9CCuKnAJcCkHKZFJHLwaXqjg7n3w5QZ2zTC8u2XpKSRJkiRJWkOBJEmSJElroKM9JMN5wDkQ5wPXQxlAHMIKSWQSKyegVLAzKP9YiHsbePIQuGOOhReRJEmSJGmVBZIkSZIkrZKOdkOGU4GtEHPAFcBFwLFAxQpLZBKrI2BvBdsDvhvwSANLs7A4x8JLSJIkSZK0CgJJkiRJklZQR9sbwgnABUFcClwEXAhsAfqsokQmsepKBa8E3Bdwdw/uq+GnUD0wYP4NJEmSJElaIYEkSZIkSSugo92cYRvElcBW4AzgTOAw1kgik1g7AfsqeL7AUsDPG/h5TfnugMWnkSRJkiTpIAWSJEmSJB2gjna2wEUFrgYuhjgXOAM4gnWQyCTWR8DrATuBxQq6PuX2Cr5zMYuvIEmSJEnSAQgkSZIkSXoXOtqqwFkFbgQugzgf2AIcA9Sso0Qmsf4CXg94EnigB12f/I9B+WHL0hBJkiRJkvZTIEmSJEnSfuhoj8lwJfBhiBY4CTgGmGFEJDKJkVIq2A08XsHjDdyxAb4yx8JDSJIkSZL0DgJJkiRJkn6PjnbDEC4FPhLEtcBxwHHARkZQIpMYTQE5YFeBHQ083lC+DfVXBszvQpIkSZKktxBIkiRJkvRbOtq5IXw8iA8DJwNHApuAYIQlMonRF7AM7AJ29uGBHuWvBizegiRJkiRJvyGQJEmSJOlNHe0pGT4MfAxiDjgCOBSoGROJTGKslIC9wMsVPNvAbT3KX1zM4t1IkiRJkqZeIEmSJEmaWh3tEQVuKPBpiCuAY4FZoMcYSmQSY6sAewNereGphvL1HvkLLUtPIEmSJEmaSoEkSZIkaeJ1tGSgQNQwW+DCAp8GbobYAvSACgjGWCKTmAgF2FfBaw3c04c/78G3Xqe8UlEVCAbMI0mSJEmabIEkSZIkaWJ1tLypl2EGOKXAJ4E/DGIrEyiRSUymHuxuKN+D+I9D+HlDeR14Y8AikiRJkqTJFEiSJEmSJk5H28+wAdgQ8LEMfxTEjUy4RCYx+Rp4oUf5yuvE/9TAckPZM2DxVSRJkiRJEyWQJEmSJE2EjrbJsAnYFHBpgU8BH4I4gimRyCSmR0DuwaM15WvLxJ83sKdhuKtlaQ+SJEmSpLEXSJIkSZLGVkfby3AocEzAOQU+CHwA4nSgx5RJZBLTqYLXenBXkL84pLpjBnbNwItzLLyBJEmSJGksBZIkSZKksdLRVkPYGHACxHuAS6HcDHEhMMMUS2QSU6/U8HwN3wm4BXikBzugenHA/BBJkiRJ0tgIJEmSJEljYTvtBuDkgFMgLoLyAYirgMPQryQyCf2LgGENjwV8o8BtDeWZCh4asPhLJEmSJEkjL5AkSZIkjayOtilwcoFTgPMhbgIuB05FvyORSeitVLCnhocL/C1wX0PZWcHSgMU9SJIkSZJGUiBJkiRJGikdbQDHZDgbOBviWijbIM4GZtDvlcgk9E5qeLmCxQzfqOHJPvnnQdnespSRJEmSJI2MQJIkSZI0EjraTRlOBy6BuAC4HDgfOBztl0Qmof0VkCv4RVB+mImfzsBDG2B+joVnkSRJkiStu0CSJEmStG462v4Q3hNwKcQFwBxwDbAZvWuJTEIHIiDXcB9wa8DDfco9UN81YH43kiRJkqR1EUiSJEmS1tx22tOBi4IYAOcDlwAnAxU6YIlMQgergtcC7i1wZwNdj3LHgMWfIkmSJElaU4EkSZIkaU10tMcXaAtcDDEAzgPOAGbRikhkElopAcMKXgKWgLsbeKym/GDA4oNIkiRJklZdIEmSJElaNR3txgIXFLgK4lLgXOA04HCgQisqkUloNQQsB/wCuK+C+xvK7T3yD1qWXkCSJEmStCoCSZIkSdKK6mibAqcVuB64EeJM4FTgKKBBqyaRSWiVlYDXA54CtvfgoT78Qx/umGNhD5IkSZKkFRNIkiRJkg5aRxsFji7wIeC9EOcCJwDHA320JhKZhNZQCdgd8HjAjgburYi/COKxAfMZSZIkSdJBCSRJkiRJB6yjPXQI1wM3BXEdcBxwDDCL1lwik9B6CMhAAh7vwY4+5VaoPz9g/jkkSZIkSQckkCRJkiS9ax3t5RneB3wIYguwGdiE1lUik9B6C9gHvALsbODBhvL3Axa/iCRJkiTpXQkkSZIkSfuloz0lw0eAz0CcBWwCNgI1GgmJTEKjJGAvkAKe7cOtDcM/b1m6E0mSJEnSOwokSZIkSb9XR7s5w03Av4e4DNgMzAI1GjmJTEIjqgB7A16r4ek+fHUW/nKOhSeQJEmSJL2lQJIkSZJER0sGCkQFswW2Af8B4oPAcUAPqNBIS2QSGgMFGFbweg8equH/CKqvF4apIgpUZcA8kiRJkjTtAkmSJEmaYh1tFGiADQXOLnBzEDcDF6Cxk8gkNI5qeKWBnwX8WSZ+XJFfreD1AYsFSZIkSZpSgSRJkiRNmY6WN/UzbAw4BvhogY8AV0AcgsZWIpPQOAsoNTzXo3x/SPzHgJ19cgrKay1LSJIkSdI0CSRJkiRpSnS0vQyHA0cEbCvwaeAPIDaiiZDIJDQpAkoPHq3Jn1+m+kYD6RB4YY6F15EkSZKkKRBIkiRJ0gTraKsMRwBHB3F6oXwE+CTEiWjiJDIJTaIK9vXgZxV8dgiLPXixonp2wPwykiRJkjShAkmSJEmaMB1tNYTDgWOCOBXKDcBHIeaAHppYiUxCE67U8EoN3xvCX/VgR4/yLNTPDZhfRpIkSZImSCBJkiRJE6KjPbTACYU4HbikUK4O4mrgMDQVEpmEpkXAvh48FfC9DN/twRM15bEBiy8gSZIkSRMgkCRJkqQx1tH2C5xY4EzgAogrgWuBE9DUSWQSmkYBe2p4CPgWcHdDebxHfrhlaTeSJEmSNKYCSZIkSRozHW1d4JgC5wNnQVwG5TqILUCDplYik9C0q+DVinJ7Ib5fweMzcG8fHptjYRlJkiRJGiOBJEmSJI2BjjYKHFHgbOACiIuAa4CzgI1Ib0pkEtL/L6BUsCvge8DdPXh0BuZreGKOhYwkSZIkjbhAkiRJkkZYRzszhHOBuSCuAC4AtgJHIf2WRCYh/a4K9gU8EXB7BQsN5UGofzRg/hUkSZIkaUQFkiRJkjSCOtozMlwIcQ1wHnAucDrS20hkEtLbq2B3BduHcGsDjzSUuwYs/gRJkiRJGjGBJEmSJI2IjvaoDFcCl0FcCJwJnAfUSPshkUlI+61UsCvgwQJ3NbC9z/DbLUuPIkmSJEkjIJAkSZKkddTRbsywDbgW4gLgfOB0YCMQSO9CIpOQ3r2AYcBzwGIFjzVwxwb4zhwLzyNJkiRJ6ySQJEmSpDXW0W4ocFaB6yCuBM4FtgCbgRrpACUyCengBOwN2BHwYA0P9+H7ffjJHAsvI0mSJElrKJAkSZKkNdDR1hlOLHBtwI0QFwMnAEcDfaQVkMgkpBVTAnYHPF3BYw1lviK+CtXSgPm9SJIkSdIqCyRJkiRpFXW0hxS4scD7Ia4HjgKOBDYirbBEJiGtvIAhkICdNTzaUH5cwecGLL6EJEmSJK2SQJIkSZJWWEcbwJUZPglcD3ECsBk4FGkVJTIJaXUFLAMJeK4HT84w/LOAb7YsFSRJkiRpBQWSJEmStEI62rMyfAr4MMQ5wKHABqBCWgOJTEJaOwH7gJcDXmpgsc/wz1qWvo8kSZIkrYBAkiRJkg5CR3tshhuAP4K4CtgE9IEaaY0lMglp3SwHvNaDnQ18cxb+co6FB5EkSZKkAxRIkiRJ0n7qaCNDBGzMcBnwx0F8GDgKqIEKaR0lMglp3RUgB7zewCMN5fOZ+m8KeVdNyQMWC5IkSZK0HwJJkiRJehsdbRToF+gHnFPgMxD/FtiCNGISmYQ0eip4rYGfVpQ/XSb+uYHlmvLGxSwOkSRJkqTfI5AkSZKk39LRRoGZAhsDTgL+oMCnIC4CZpBGVCKTkEZbDbt68E9QPpuJhxvyqzVld8tSRpIkSZJ+QyBJkiRJb+poKTBTYBNwXMBVBT4BXAlxBNIYSGQS0ngIyDXsqClfLvCVitg5C7sq2D3HQkGSJEnS1AskSZIkTbWOth7CZuC4ipgrlPcBH4I4FWnMJDIJafxUsLcH8xX8P0O4vU95HupnBszvRZIkSdLUCiRJkiRNpY72iCGcEMR7CuUa4CNBXIg0xhKZhDTeatjdo/xgH/FXNTzZUHYMWNyBJEmSpKkTSJIkSZoaHe2mDCcBJwVxeaG8H+JqoEGaAIlMQpoYpQc7K/jWPvj7Bl5qKI9ezOJzSJIkSZoKgSRJkqSJ1tFuyHAScBrEVuA6KFdCHA1USBMkkUlIkydgbw3bA75V4I4e5emG/FDL0stIkiRJmliBJEmSpInT0TYFji1wDnAhxKVQLoPYAvSRJlQik5AmWqlgdwULUL5XEUt9eLAPj86xsAdJkiRJEyWQJEmSNBE62irDZuB8oIWYAy4HzgNmkaZAIpOQpkNAruC5gJ8C9/Qo99fEnVA9PWB+iCRJkqSxF0iSJEkaa9tpZ4AWmAuiBVpgK3A40pRJZBLS9AkYVvB4gZ/U8FBDeSTgOwMWX0WSJEnS2AokSZIkjZ2OljddmGErcBHENuBs4GSkKZbIJKTpVsGegCcLfL+GHX3KInDLgMWCJEmSpLESSJIkSRobHe0JGS4HBhCXA6cDpwJ9JJHIJCT9iwpSwKMFbm3g8T7D77QsLSFJkiRpLASSJEmSRlpHe3iGC4APQGwFzgJOBTYh6b+RyCQk/baAHPAisBTw0AzcPgs/mGNhB5IkSZJGViBJkiRp5HS0/SGcE/AhiCuALcAZwOFAIOktJTIJSW8nYG/ADuCxHjzUUG6B+kcD5l9FkiRJ0kgJJEmSJI2M7bSnA+8N4gbgXOBk4Eigh6R3lMgkJO2nErAHeKqCxxt4oKb8zYDFnyJJkiRpJASSJEmS1lVHe0yBGwvcBGyDOBE4CphB0ruSyCQkvVsBGdgNPF3D4z24s6Z8YcDio0iSJElaN4EkSZKkNdfRzhbYVuBm4FqILcDhwAYgkHRAEpmEpIMRsA/YHfBcDY825C/XlK+1LL2CJEmSpDUVSJIkSVoTHW0UOL3Ax4A/htgCbARmgRpJBy2RSUhaKQH7gBTwyz78ZBY+V8GtcywMkSRJkrTqAkmSJEmrqqPdlOG/A/4DxIXADDADVEhaUYlMQtIqWQb29ODVGcpfQ/2nA+afQZIkSdKqCSRJkiStmI42MlQBmzLcBNwcxCeBDUANBJJWTSKTkLQGhgHLDXQN5Ut7iP+tgdKj5AGLGUmSJEkrIpAkSZJ0UDraKkMDzARcUuDjwMchTgVqJK2ZRCYhaa1VsKcHCzXl83uJrzSUvQ359ZalIZIkSZIOWCBJkiTpXetoo8BsgY0Bpxb4APCHEOcDDZLWRSKTkLSeanipR/mnoPzlkGqpD6/OwO45FoZIkiRJelcCSZIkSfulo40C/QJHAMcBVwD/BuIKYBOS1l0ik5A0CgJyDTt68OUCfw88XRPPB7F7wHxBkiRJ0jsKJEmSJP1eHS0F+hmOAI4J4gIoN0PcCByHpJGSyCQkjZoK9tXwAPAXwE8bygtB9QzEngHzBUmSJElvKZAkSZL0ljraYzIcD5xd4MYgrgMuRNLISmQSkkZZDa/UcE+GL1Vwf0N5dsDidiRJkiT9jkCSJEnSv+poN2U4GdgSxPWFcjWwDeIQJI28RCYhaRwElBp+UVFuXSa+0IddfYaPtCw9hyRJkqRfCSRJkqQp19HOZjgFOBNiDrgWyg0QhyFprCQyCUnjJiDX8EhQvpmJO/uwYwPcP8fCL5EkSZKmWCBJkiRNoY62l+FE4DyIc4HLoFwDcRJQI2ksJTIJSeOsgj0V3Av8vwEP9+D+iuqBAfNvIEmSJE2ZQJIkSZoSHW09hGOAs4OYA7YBlwNnArNIGnuJTELSJAgoFbwE3A78pIHHa7gXqscGzO9FkiRJmgKBJEmSNOE62k0FziuwFRhAbAXOB45A0kRJZBKSJk3AcgXPAHcF3NtQHqjgxwMWf4EkSZI0wQJJkiRpAnW0TYEzClwNXAQxB5wNHA/0kDSREpmEpElWwWsBTxa4o4aH+uTbK8rPWpb2IEmSJE2YQJIkSZoQHW0UOL7Ae4EW4nxgDjgR6CFp4iUyCUnTooJXgPuAB3rwxAb4ag33z7FQkCRJkiZAIEmSJI25jvbIDAPgJogLgXOBk4ANSJoqiUxC0rQJKAGvAPdU8EQDd2+AW+ZYeAxJkiRpjAWSJEnSGOpoZ4dwEXBVEDcBpwJbgMORNLUSmYSkaRYwDHgWeKSBB3uUH0N9y4D5l5EkSZLGTCBJkiSNkY727AzXQXwYOAM4FjgWqJA09RKZhCT9SqlgD/Ac8FgDP+9Rvjlg8b8gSZIkjYlAkiRJGnEd7VEZ3gd8FOJC4FjgaKBBkn5DIpOQpN+RA3YDz1XwZEP554b81y1LjyJJkiSNsECSJEkaQR3tIRkuB/4txGXAScBmYAYIJOktJDIJSXpbOSABz9fwVB++NAtfnWNhF5IkSdKICSRJkqQR0dH2C5xX4OPARyBOBw4FZoAKSXoHiUxCkvbbMCBV8HIP5vvwnxv43hwLryJJkiSNgECSJElaRx1tFDguw8eAm4O4FugDfaBCkt6FRCYhSQdkH/BGA882lH8Oqv8E8cCA+YwkSZK0TgJJkiRpDXW0kaEG6go+muHfQHwaqIAKCCTpACUyCUk6aBnIDXQN5at7iP+hgTLDcF/LUkaSJElaI4EkSZK0yjraOkMfmAk4t8CfAJ+EOBpJWkGJTEKSVlbAsIGlHvl/fYPquw0sNwxfb1laRpIkSVpFgSRJkrQKOtoqwyywMeDsAh8FPgZxNtAgSasgkUlI0qopNeyu4baa/Ll9VLf3YfcMvDrHwj4kSZKkFRZIkiRJK6SjjQyzBTYHnAxcAXwc4grgUCRplSUyCUlafQG5hqd78I/ANwps78GLUKUB8xlJkiRpBQSSJEnSQepomwxHAydCXFgoHwriRuBYJGkNJTIJSVpbFeyt4aGALxf4cY/yTAU7BizuQZIkSToIgSRJknQAOtq6wNEFTgDOAN4H8X7gDCRpnSQyCUlaPxXs7sFdGf5zwCMNZWcFT1zM4jKSJEnSuxRIkiRJ+6mj5U1HZNgCbIG4GspNEHPALJK0zhKZhCSNhhp2VfDDDF+vYWef4SMBT7UsFSRJkqT9EEiSJEnvoKM9JMPJwFkQl0C5HqIFjkCSRkgik5Ck0RKQa3gmKLcU4p8beHIDPDDHwotIkiRJbyOQJEmS3kJH2wzhJODcILYCF0O5GuIUJGlEJTIJSRpdFeytYCHg+wH3NZSHoF4aML8HSZIk6bcEkiRJ0m/oaI/LcAHERcCFwKXAOUAPSRpxiUxCksZCqeGXAXdm+EkDj/Uodw5YfAhJkiTp1wJJkiRNvY52c4G5AlshtgID4ALgECRpjCQyCUkaLwHDCp4FbgfuaeDRHuW2i1ncgSRJkqZaIEmSpKnU0W4ocE6BbUALsRU4FzgKqJGkMZTIJCRpfAW8UcETwF0VPNij3NMj39ay9BKSJEmaOoEkSZKmRkfbK3BSgUuBqyC2AmcBxwN9JGnMJTIJSZoIpYLXgEcCft6DpRn4YQ8W51h4HUmSJE2FQJIkSROto40Ch2e4MuADEOcBW4BTgI1I0gRJZBKSNFkCcsCLwCMVPNqn3BVUX4fYMWC+IEmSpIkVSJIkaWJtp70RuDaIa4ATgdOAjUjShEpkEpI0uQL2BfyiwCMNPNlQ7hiw+H8hSZKkiRRIkiRponS0F2e4Drge4lzgWOAoJGkKJDIJSZoOAXsDXihwfwOPN5RvD1j8GpIkSZoYgSRJksZeR3tihvcCH4BogWOBI4AGSZoiiUxCkqZOCdgDvFDBYw3c2TD865alBSRJkjTWAkmSJI2ljvawDJcAn4G4CjgWOAyYAQJJmkKJTEKSploO2A28WMOjM/D1GfjGHAtPI0mSpLETSJIkaWx0tP0M5wB/CPFR4CRgIzADBJI05RKZhCTp1/YFvBbwSgP39OBzUP2XAfO7kSRJ0lgIJEmSNPK2054I/BFwcxAt0Af6QCBJ+leJTEKS9BaGwOs92NVQ7qjgfxyweB+SJEkaaYEkSZJGRkfLm6oMdcBhwCcKfAK4DuJQIIBAkvSWEpmEJOkdlIBhDc80lG8X+J8z8Xyf4b6AYcsSkiRJGg2BJEmS1l1HW2XoA4cEXFLgj4EPQJyAJGm/JTIJSdK7UcGwBw/3yP/nG1Rf7sPrG2DPHAv7kCRJ0roKJEmStC462hjChoDDgjitUN4H/PcQW5AkHZBEJiFJOlAV7O3Dt2v4/F64t095Beo0YH6IJEmS1lwgSZKkNbWddiNweBAnQLkS+HcQ24AGSdJBSWQSkqQVUHrwQo/yd/uo/ramPNOjvDhg8SUkSZK0ZgJJkiStuo52Q4EjCxwFXFHgg0HcCByBJGnFJDIJSdJKCljuQReUvxsS32zglZqyc8DiL5EkSdKqCiRJkrQqOtpegaMKnBRwYYHrgWshTgN6SJJWXCKTkCStlgp217AEfKXAzxrKMz3yjpal15EkSdKKCyRJkrRiOtqqwOYCpwFnQlwK5X0Q5wN9JEmrKpFJSJLWQg0vVpQfFvininhsBh5uYOccC/uQJEnSiggkSZJ0UDpaCmwocBZwNsSFUK6HGACbkCStmUQmIUlaSwG5gqcruKXAnT14oiLuDuLlAfMFSZIkHbBAkiRJB6Sj7Q/hNOCsILYCVwGXAschSVoXiUxCkrReKthXwSMZvt6D7Q3lUajvGTD/KpIkSXrXAkmSJL0rHe2pGc4BtkJcAlwEnIckad0lMglJ0iioIQXcV+D7NWxvKIsDFu9BkiRJ+y2QJEnSO+poN2eYAy6BuBiYA84DNiJJGhmJTEKSNEoCcgXPA/cW+EkftjcMb2tZehJJkiS9rUCSJElvqaPdkOEc4AqIi4A54AJgMxBIkkZOIpOQJI2qgOUKngDuDniwD3fNwm1zLOxCkiRJvyOQJEnSv+poexlOBa6FuBQ4DzgHOA7oIUkaaYlMQpI0BkrAaxVsB+6r4eEa/qmimh8w/waSJEn6lUCSJGnKdbRVhuMKXB5wJcQAOB04EZhFkjQ2EpmEJGmcBJSAXxZ4sIaHG8p9FfEtqB4eML+MJEnSFAskSZKmVEc7W+CqAtcAV0KcBpwAHI4kaSwlMglJ0rgKWA54CXishkcayh0BXxywmJAkSZpCgSRJ0pTpaM/J8BHgAxBbgGOAzUCNJGmsJTIJSdIkCHgj4MUCXQMP9xl+6WKWvoskSdIUCSRJkqZAR3tshk8D74c4BzgaOBKokSRNjEQmIUmaNAF7gGcDnmtgcSP86RwLDyBJkjThAkmSpAnV0R6V4WrgUxCXAccCm4A+kqSJlMgkJEkTrATsAX7Rg2ca+PYs/M0cC9uRJEmaQIEkSdIE6WhnhzAAPhzEx4GTgUOAPhBIkiZaIpOQJE2JHLAnYFcD9/Uofwv1NwbMv4wkSdKECCRJkiZAR3tGgZsL8YfA+UADNEAgSZoaiUxCkjSFhsByBS/04daa8r8PWLwVSZKkMRdIkiSNkY6WAlWBXsCRwAcL/AnEJcAGIJAkTa1EJiFJmnIloNTwQo/yxYry2WWqHTOw3Id9cywgSZI0LgJJkqQR19HypjrDLLApYFuBPwGugzgaSZJ+LZFJSJL0XwXkHjzRwH/K8A/AL2fhtQr2zrGAJEnSKAskSZJGVEdbDeEQYFNFzBXKh4GbIU5HkqS3kMgkJEl6azXs7cEdNXx+CD/qURLULw+Y34ckSdIICiRJkkZMR3tohsMhTimUG4APBnEDkiS9g0QmIUnSO2vghZryvX1Un68pT/QouwYsvoAkSdIICSRJkkZARzuT4Vjg2IArCtwI8RFgFkmS9lMik5Ak6V0ZNvBoRfnHZeIrDbzcZ7ijZSkhSZK0zgJJkqR10tE2GY4BTgri7EL5IPBeiOOBCkmS3qVEJiFJ0oGp4I0aFqB8qRALDTyzAZ6cY2EPkiRJ6yCQJElaQx1tr8ARBU4FzoS4BsqNEGcCM0iSdBASmYQkSQetVPBKDT8G/iHgsT50fdgxx8IbSJIkrZFAkiRplXW0kWFTgfcEnAfRQrkS4iLgcCRJWiGJTEKSpJUTMKzh6YAfBfykpmyviPugen7A/BBJkqRVFEiSJK2SjrZX4MwMc0FsBbYBlwDHIUnSKkhkEpIkrY4K9lTwaIEfVHB/Q3ko4PYBi28gSZK0CgJJkqQV1tFuyXARcB7EJcA24D1IkrTKEpmEJEmrr4LXKvh5hu/04Nk+5e6LWbwTSZKkFRRIkiStgI72mAwtcAHENqAFzgRmkCRpjSQyCUmS1lYFLwfcVeDWBnb0Gf6oZelhJEmSDlIgSZJ0gDraTRnOBi6H2AZcCJwFbEaSpHWQyCQkSVofAcMKnoVyZ0UsNTA/C7fNsfAskiRJByCQJEl6FzraZginA1cGcSVwDnAWcBxQI0nSOkpkEpIkrbtSwesBjwH39+CBHuWHUP9swPxuJEmS9lMgSZK0Hzra4zNcA3EDcD5wGnAiMIMkSSMikUlIkjRScgUJ2B7wSAOLNeXrAxYfRJIk6R0EkiRJv0dHe1iBKwrcBFwM8R7gJOAQJEkaQYlMQpKk0RQwDNhVYHsNjzdwa0352sUs7kSSJOktBJIkSb+ho+0X2FrgQ8CVEGcCxwGbgApJkkZYIpOQJGn0BSwDLwQ8WcOjffI3KsotLUu7kSRJ+rVAkiRNvY42gFMyvB/4KMQFwJHAYUAPSZLGRCKTkCRprJSAvcDzFexs4Kez8FcV/GyOhYIkSZpqgSRJmlod7aFDuAH4TBDXAJuATUAfSZLGUCKTkCRpbJWA14CXe7CzT/km1P/3gPnnkCRJUymQJElTp6O9YgifCeITwGbgEKCPJEljLpFJSJI0EXLAHuCVPjzSo3x+wOIXkCRJUyWQJElToaNtM9wMfALiDGAWaJAkaYIkMglJkiZOBvZW8MsG5nuUzw1Y/BqSJGniBZIkaaJ0tFGgKtALOLHAHwCfgRgAhyJJ0gRLZBKSJE22gFzDCz3KP1SUzy5TLc3Avj7sm2OhIEmSJkYgSZLGXkdLhrrAhgqOKjAA/gjiA8DhSJI0JRKZhCRJ0yMg9+DBBr4IfDNTdtbEbqiWB8wXJEnSWAskSdLY2k5bAZsCDoc4C8ongE9CnIQkSVMokUlIkjSdKlhu4HbgswXu7lFeDnh+wGJGkiSNpUCSJI2djvbwDJuB4wp8CnhfENuQJGnKJTIJSZLUg5dryk/3Ef9LDS80lJcGLO5EkiSNlUCSJI2FjnZDhmOBowPeX+Am4CqIjUiSpF9JZBKSJOlfBJQadtaU7y0Tn20g9RnuaFl6CUmSNPICSZI0sjrafoajgC1BzBXKe4HrIE4EAkmS9N9IZBKSJOmtVLBcwwNB+bshcdsM7JyFp+ZYeBVJkjSSAkmSNFI62noIRwacDnEOsA3KhyBOB3pIkqTfK5FJSJKkd1LBKzX8GPhuwIMN5RGodwyY34skSRoZgSRJGgnbaTcDZwRxFtBCuQFiK7ABSZK0XxKZhCRJ2l8BuYJnA75X4LYGnqwpC/8fe3AeZed9H/b5833f995ZgBkAxEoSIEgsBMEBMC8uNgLcF3GTRIqWLTmWY8tRU7dNzknj9Pi4dRLX/9g6x7Fzmjaxjiq7iSpLsqPNsmRrsRZLIgkCIIczHIoECfKC+w4SuFhn5r6/qrHjWJZIkQQGM3Pn8zwNRp5FkiRNuUCSJE2ZJmVvgjUJ1gCDEDuBEliMJEl6y1pUtJAkSW9HwKkcnkrw1YD7a6QnM9jbYORVJEnSlAgkSdJZ1aQsEixPMAhshtgMbABWADUkSdLb1qKihSRJOl0ZHM3gQIJv5vBIjeq+jDRcMjqGJEk6awJJkjTpmpT8wKIKtgJbIAaAQWAtUEOSJJ0RLSpaSJKkMyUgBbwapHsTcX8dHuyB7wU8NsAwkiRpcgWSJGnSNCm7K9gC7ILYCAwAFwNzkSRJZ1yLihaSJGkyBKQMngTuC3isBiMZ2RcbDB1GkiRNikCSJJ1RTcquNqwHtgSxC7gEWAcsRJIkTaoWFS0kSdJky2Ai4IkK9tThYEG6B/JvNRg6giRJOmMCSZJ0RjQpL6rgMuAKiA3ASuB8oECSJJ0VLSpaSJKksyhlcBR4MuD7BXy/IH2lwchuJEnSaQskSdLb1qRcUMF24CaIBrAcWAb0AoEkSTqrWlS0kCRJUyGgHXAYeCJgf510Z0H1xZLRJ5EkSW9LIEmS3pImZXeCjQneBbELWAksA+YCgSRJmjItKlpIkqSpFjAOvBzwTA6P1uHzXfD1AYZfQ5IkvWmBJEn6iZqUeYIVCe4AboRYCywE+oAcSZI0LbSoaCFJkqaTgFPAyxm8WMD9OfGRIIYaDI0jSZLeUCBJkn6sJmUkWFTBTcDNQVwJ9ANzgQJJkjTttKhoIUmSpqkUcCrBKzV4rkb6XpD9B4gDDYYSkiTpRwSSJOlHNCnfUcHtwM0Qi4FuoI4kSZrWWlS0kCRJM0AVMAa0avB4jfTZBiO/gyRJ+iGBJEmzWJOSir+WwcUVvA/4IMR5QA3IgUCSJM0ILSpaSJKkGaYCJgKO1eHuOu1/e5z8G3VIPcAAw0iSNFsFkiTNMk3KqCAHagFLE7wf+FmIS4E6kiRpxmpR0UKSJM1wKYfXavCndfi/TsLDOYxnZOMNhhKSJM0igSRJs0CTMiooEnRnsDTB5cBPQ1wF9CNJkjpCi4oWkiSpUwS0C3gyg/+UiE9npJdzOAbZqQZDCUmSOlwgSVIHa1LmCeYmWAhsSnBTEDcDFyJJkjpOi4oWkiSpE2VwvAYPAH9UwbcK0ssZHGowMoYkSR0qkCSpwzQpI8HcBEsCLgBuTMTNQIkkSepoLSpaSJKkTpfDoRzuTvAx4ECN6sWc9HLJaIUkSR0kkCSpQzQpeyo4H1gWxPZEei+wGaIHSZI0K7SoaCFJkmaLgJTByznpj9vEn+XwSi88tpHh15AkqQMEkiTNYE3K7gqWACsg1kO6A9gBsRBJkjTrtKhoIUmSZqOAKocnM/hoBffW4IUeODjA8GEkSZqhAkmSZpgmZdGGJcDyIDYBOyBdC7EaSZI0q7WoaCFJkma7HE5msDfgywEjBekJyB9rMHQKSZJmkECSpBmiSbmwggshNgANYAuwFehCkiTpB1pUtJAkSfpbVQEvBuyu4BsFPFaQHmowchBJkmaAQJKkaaxJ2VvBGmAAYhPQALYD85EkSfp7WlS0kCRJ+lEBYzk8AXw3wZ4a6UCNaqhk9BCSJE1TgSRJ00yTspbgggQNYD3EVmALsBTIkSRJeh0tKlpIkiS9sYCTGYwC38vgsTrs7YKRAYZPIEnSNBJIkjQNNCnzBMsSbAIaEINACawAupEkSXoTWlS0kCRJetNSBq2AfQH35/BIF9xdwMMDDI8hSdIUCyRJmiJNShL0VVACW4K4DFgLrAH6kSRJeotaVLSQJEl66wLaGbwAPJDBaI30QJB9FeKFBkMJSZKmQCBJ0hRoUg624ZogdgIrgQuBZUiSJJ2GFhUtJEmSTk8GJwOerWCkBo/WSHc2GPlTJEk6ywJJks6SJuWqCq4GdkFcAqwGzkWSJOkMaVHRQpIk6czJ4CjwZIIH6nCwRvrSZka+hyRJZ0EgSdIkalIureAK4GqIQWAlsAzoQpIk6QxrUdFCkiRpUqQMjgAHAx6rwX012p8rGX0ISZImSSBJ0hnWpOyrYBNwE8SVwIXAImAOEEiSJE2SFhUtJEmSJlfABHA44KkCHq7BV7rgqwMMP48kSWdQIEnSGdCkrFWwOsGtQdwMrAEWAH1AjiRJ0lnQoqKFJEnSWZMCxoBXM3i+BkM5fBKyOxsMnUCSpNMUSJJ0GpqUCyt4V4L3BrEZmAvMBQokSZLOshYVLSRJkqZECjgFHM7h+Rrpmxn8uwYjB5Ek6W0KJEl6i5qU3QmuS/B+4GqIc4AeoECSJGkKtahoIUmSNOVSwCngaAFP10h/nMG/38xIC0mS3oJAkqQ30KSkggAig7KCXwDeCbECKIAcSZKkaaJFRQtJkqRpJQETGZws4OE67d87Sf4nNUg9kAYYRpKk1xNIkvT3NCmjDTlQz2BFgpuBfwjRAAJJkqRpqkVFC0mSpOmtgFYNvlyD3z8J99VI45CPNRhKSJL0dwSSJP2NJmWtgl6IhYl0BfC+IK4DepAkSZoBWlS0kCRJmhkCqgKeLkifbpN9IkjPFaSjDUZOIknSDwSSpFmtSVlL0JegL2AwwR0Q7wIWIUmSNMO0qGghSZI08wSM1WA0SH84QXy1BscK0qubGTmJJGnWCiRJs06TMk/Ql2BhwPoENwHXQ6wBakiSJM1QLSpaSJIkzWwZtAq4C/hEguEa6ZWc6qWS0XEkSbNKIEmaFZqUkWBOgqXAKojLIN0IMQj0IUmS1AFaVLSQJEnqDAFVBi/lpK9W8MWceKwLning0ADDbSRJHS+QJHWsJiUJ6hWcF7AaYgDStRDXAvOQJEnqMC0qWkiSJHWegCqHhzL4swT31EhPBNmjEEcbDCFJ6kyBJKkjHaC8AFgZxHpgJ3AjcB6SJEkdrEVFC0mSpM6WwXgOeyv4bA6P1UhPNRi5D0lSxwkkSR2jSbmsgouAiyCuBrYDJZIkSbNEi4oWkiRJs0cOr2Vwbxs+WYNDBWl/g5GHkCR1hECSNKM1KfsrWAOsg9gBNCANQvQBgSRJ0izSoqKFJEnS7BPQzuC5gN0JvlmDJ2q0h0pGn0OSNGMFkqQZp0nZXcEKoAExCJTAJmAZkCNJkjRLtahoIUmSNLtlcDLgAKQ7g3igC4a74IEBhg8jSZpRAknSjNCkzCtYCmyF2AZcApTASqCGJEmSaFHRQpIkSX8jZXA4YAR4oIAHC/gOZI82GBpDkjTtBZKkae0AZT9wGbAliBK4BFgD9CJJkqQf0qKihSRJkv6+gCrgBeD+DB6pkR7O4AsNRp5HkjRtBZKkaadJWU+wNcE2YAvEALASWIgkSZJeV4uKFpIkSXojAWMZvJhgXw4Ha6T7Aj7bYOQ4kqRpJZAkTRtNyosquAG4DGITcD6wGCiQJEnST9SiooUkSZLerIATAc8BD9Tg8Trtz5aM3okkaVoIJElTqkm5sIJrgVsg1gPLgcVAN5IkSXpLWlS0kCRJ0tuQMjiaoBnwRBd8pwe+MMDwASRJUyaQJJ11TcruCnYBt0FsA84DlgI9SJIk6W1rUdFCkiRJpyOgAl4JeCaHpwr4i4zsUw2GXkOSdFYFkqSzoknZ1YYNwDuCuAlYBZwDzAECSZIknbYWFS0kSZJ0pgRMAK8GPFODhwvS5yH/SoOhI0iSJl0gSZpUTcqVCW5OcCvEILAAmAPkSJIk6YxqUdFCkiRJkyAFjAGtDJ6twe6c9H83GNmHJGnSBJKkM65J2ZfgqgQfAK6GmAd0ATkQSJIkaVK0qGghSZKkSZaAsYDjOTxRJ30qp/p4yejzSJLOqECS9LY1KUlAgiygDmxM8IvAuyGWATmQI0mSpLOiRUULSZIknUUJaAecqsFoF/xewJ+PwfGMSEGkBkNIkt6eQJL0ljUpow0FUM/g3AS/ALwf4mIkSZI0ZVpUtJAkSdJUyuFUDb6TiF9PpP010jjkpxoMVUiS3pJAkvSmNSm7KugJWFzBjcA7g7gFSZIkTQstKlpIkiRpuqjB8wXpz9tk/yFITxWkYw1GjiFJelMCSdIbalLWKugD5gXsSnATcBPEYiCQJEnStNGiooUkSZKmm4DxAh7JSZ8ZIz5Zh6M12q+WjJ5AkvS6AknSj2hS5hX0A4sD1iS4AbgdYiWQI0mSpGmpRUULSZIkTWcZHCvgLkifrIj76vBKN7w0wPAYkqQfEkiS/osmZVQwFzgPWAlxGaR3QmwEepAkSdK016KihSRJkmaCgJTBSzl8FfgzoJnDkxnZKw2G2kiSCCRpFmtSRgW9Cc4NWAGxGdKNENuBBUiSJGlGaVHRQpIkSTNNQDuHg8DngDtrpGcz4nHIXm0wVCFJs1QgSbNQkzJPsCLBhRAlsB3YAaxCkiRJM1aLihaSJEmayTI4lsPDFXw5g5Ea6WDASIORcSRplgkkaRZpUi6sYBOwOojLEmwDNiFJkqSOcHLZORx6/mUkSZLUGXJ4NYP72/D5Al7qor2nZPRxJGmWCCSpwzUp51awEVgHMQBcCwwA3UiSJKljZH1zmPObv8yB3/h92q1jSJIkqbPk8EqQvlQR99XgmTnw3QGGX0SSOlggSR2oSTmngouAQYgB4DJgI7AQCCRJktRx5txxLUs++Vs8/HP/K698/ptIkiSpMwVMZPBEwNcCHq3Bg91w3wDDLyNJHSaQpA7RpKy1YTmwMYgdwCZgA7AcKJAkSVLHiu46Sz/3u/TcuJPXvnYXD/3Ur1CdHEOSJEkdLWVwLODhgHtzeLAg7YF8pMHQCSSpAxRI0gzXpFyUYHNF7AoogdXAKmAOkiRJmhW6LttE1/YBIs+Yu30DfZdt4vC39yFJkqSOFhXMBbYGbE7wyjjxUFA9sJfB0Zz09QYjjyNJM1iBJM1ATcqeBBsTXF9BCbEGWAXMR5IkSbNO/y/dRtY/l/9f0T+Xpb90O4e/vQ9JkiTNDgnyNiwBlgTsHIMXIN5zN4OP1UjfLqj+smT0NSRphgkkaYZoUuYJViW4FdgKcTFwEXAOkCNJkqRZqWvHBpZ++sMUK8+FCEiJk088x/6f/VVa94wiSZKk2SvgVMBB4EABB7vg0zXYM8DwGJI0AxRI0jTWpOQHzqvgqgpuhBgAVgALgTqSJEma9eb+/DvJl54DEfwXEdQWL2DRe2+gdc8okiRJmr0SdCVYB1w8DifG4aocntnL4L098JmA+wcYRpKmq0CSpqEm5Zw27ASuC+IW4BxgMdCDJEmS9Dfq6y5kyWd/h/qlqyCCv1Uljo0+ysPv+1VO7D+IJEmS9F8FVMAR4NkaHKiRvgX5HzUYeglJmmYKJGkaaVI2KnhHRbw3YBkwD+hHkiRJ+jF6f/p6ivOXQAQ/JAu6zl/Kglsv58T+g0iSJEn/VYIMmA/MH4e148TlUH1oD4MPFqTPNBj5DJI0TQSSNMWalKsreBdwG8TFQD8wF8iQJEmSXke+eAFL//Tf0r1jI2TBj6gqjuwe4aH3/HPGX3oVSZIk6Q2kgHGgFfBiDfbUSH+wmZHvIklTqECSpkCTcnEF7wB+uiK2AecAXUCOJEmS9CbM/bmbqa1aDlnwY2UZ3Reez8Lbr+H5j30eSZIk6Q1EgjqwMME5p2D1GHH73Qw+VyN9qaD6WMnoI0jSWRZI0iRqUlJBJIgM5gKNBO+DuBU4D8iBDEmSJOktyOb2suRTv03vzbugyHk9aaLNq1+5k/3/4NdoHz2OJEmS9BYloMrgZAGjdfh/cvjTMdJLGVFBlhoMIUmTpUCSJkGTkgT1CnqBi4CfquCng7gESZIk6TT13nEN9Q2roch5I1Hk9F5yEQtu3MnLn/sGkiRJ0lsUQF7BnDHYMQY7cvi9Gny3Df9HRdp3L5uOBZxoMJKQpDOsQJLOoCZlVwVzK5gX8O4E7wtiVyBJkiSdGdFVp+e6HeTnLuLNqK9YyoJ3X82hL3+X6tQYkiRJ0uloQ2+buAm4qSAdquDPJogP38Pg4TqptZmRo0jSGVIgSaepSVmvYB7Qn2An8DPAdYmYG0iSJElnVs912+jaeinRVefNyLrq9G1Zz7xrtvLqV+9CkiRJOlMm4JwJ4hcDfiHg6Qn4j3cy+MkanKjTfrlk9BiSdBoKJOltaFIWFcwDFiViANItwA2JWAkEkiRJ0iSI7jo9N+2kuPBc3or6imXMu3Ybh/9qH9XJMSRJkqQzKUGMw4px4l9l8KsVjIwRH9/N4PdqcKgbXhxg+CSS9BYVSNKb1KTM2tAPLKuINcAOSDcl2ATRhSRJkjTJ6oPr6No2QDa3l7eimN9H/+UlvRvXcnTvg0iSJEmTpYKuCrYF2dYcXpmAbx2DL+1h8KGC9AzkLzYYmkCS3oQCSfoJmpS9FSyviFUBZSJdC+wA5kEgSZIknQ1RK+i5YTu1i1fydnSvuYB5V2/h2P37SeMTSJIkSZMpQUzAIuBnAu7I4cmK+ItE9Z29DD6Rkx5pMPIqkvQGAkn6MZqU9QTLE1wErIe4CrgCOBdJkiRpCtQuXcXC3/0Vem/exdv16pe/y+P/4nc5sf8gkiRJ0lTI4GQGDwFfAEZrpCdzeGgzI8eQpL+nQJL+RpMyT7A0wboK1kHsgHQZxCqgjiRJkjRV8pyea7fRtWktp6N341rmXb2FkweeIrXbSJIkSWdbBd0VbAY2Z3BknLh3DL52D4PNGtWDGWl/yeg4kvQDBZJmvSbl/AourmArxEZgK7AO6INAkiRJmmrFBcvo3rmJfMk5nI76eYvpv7zk1b+4k1NPPY8kSZI0lSror+DagKuBVyriexXZnr0M7u+BfRsYfgpJs1qBpFmpSdnVhjUBOytiAzAAbAf6kSRJkqaZ7u0DdO3YAEXO6Ygip2/7Bvq2b+DUU88jSZIkTQcJsjYshrgj4PZxeGwc7rybwf1dpCHI72ow1ELSrFMgaVY5QLkOKCtia8A6YCtwLpIkSdI0lS9bSPflJcWKZZwJXRctp//qLRy5c4ix519BkiRJmk4SZG1YC6zN4NRJYjRR3bOHwYMFaU+Dkb9C0qxRIKnjNSmXV9AAGhAN4GJgFVBDkiRJmua6tg3Qc/12oqvGmZB11ejfOUjvhrWMPf8KkiRJ0nRVQRewBdg8DkcmiIfuZHBvDQ4WpG81GLkfSR2tQFJHalL2V1ACuypiG3AxcAHQBwSSJEnSDJDN76N7x0aKNSs4k3ouuYj+ywc5uu9BJl5rIUmSJE1zWQXzgZ0B28bhlXHi9rsZHK2R9hZUXy8ZfRZJHadAUsdoUnYlWJ3gugquhlgNLAcWAAWSJEnSDFPfuIbu67YR9RpnUj63h/7LN3Poy9/l6L7vI0mSJM0UCYoES4GlCS6riFtPkf/8bgYf6IKv1OHuAYZbSOoIBZJmtCZlVsHSBNdX8E6ItcC5wGKghiRJkjRDRXcX9c2X0FVezGTo27GRvu0bOT76GNXJU0iSJEkzTYKuBBcBFybY0YZbTsAze9m0Oyc+Bdn+BkMTSJqxCiTNSAco68C72nB9ELsCFgGLgS4kSZKkDlBbt5Lem3cRPd1Mhrx/DvNv2MHhb+/l+PcfR5IkSZrBIkFfgksC1p0itgB3FFRP38um3QEfbjByAkkzToGkGaVJeWUFNwM3QKwA+oE5SJIkSR0kipz6prX0XLOFydR/VYM5G9dy4pEnSBNtJEmSpJkuQQDzgfkTsG6C2AH8zD0MHqyRvthg5CNImjEKJE17TcqLKrgdeFdFbADmAj1AhiRJktSBipXn0nvTTqKnm8lUO2ce86/fwZHdI5x64jkkSZKkTpIgB+YB88Zh7Tix804G/3kN9tVpf6Rk9LtImtYCSdNSk3JhBVcBH4LYBvQBdSBHkiRJ6nA9N+5k6Z98mGxeH5Nt7NmX2P8Pf53D39yDJEmSNAskYCLgRAbPdsGfdMP/O8DwASRNOwWSplSTkgoiQZZBb4JdwAcr4jrgHCAHAkmSJGmWyM9dRO87ryCb18fZUD9vMQtvu4YTDz3O2HMvI0mSJHW4AGoJam3oOw6/fgJ+dTeDjxfwUYhPJtJrObQhqxoMIWnqBJKmRJMyS1AH5iQYSHBbELcBa5EkSZJmqwi6r9jM0s/+DvniBZwtxx96nEc/+K9p7X0QUkKSJEmarXI4WsBQBh+riG9kVIczONFgpI2ks65A0lnTpIwEXQnmJlgO3JrgVmBLEN1IkiRJs1w2fy49V28hX7yAs6l3/Srm37CDE488wcRrLSRJkqTZqg1z23BlwBU56WWI77RJ/243gwfqVK2MdLRkNCHprAgkTbomZb2CBcCigG0J3gtcB9GLJEmSpL8WQX3jWpb88YepX3IhZ9uRO+/nwD/+TY4/fBBSQpIkSdJfC0g5PJGT/qgNn8+JQ73wwgaGjyNpUgWSJkWTMq9gIbA4iIsT6XbgFoglSJIkSfoR0dvN3A/cwuKP/iumyqMf+t956VN/QXXiFJIkSZJ+VEC7gNEcfn8C7q3BoYzs6QZDY0g64wJJZ0yTMm/DAmBJEBdCuh64FWIdEEiSJEl6XcVF57PkU79F946NTJXX/nI3j/53v8mpJ55DkiRJ0hvL4XgO32nDHxbwVEF6HvJnGwyNIemMKJB02pqU8yo4r4KLAnYkuBzYBdGDJEmSpJ8o6jW6tqyne8dGplL/5ZuZO3gxY8++RBqfQJIkSdLra0NvG24OeEcbnkvEX1VUf7GHwYMF6fEGI88h6bQUSHpbmpTdCc5LsCbBZojLIG2HWBqQI0mSJOlNy/p66ftHtzPVsp4uFn/gVg5/d4iJV48gSZIk6SdLkE/AcuADGbwXeKxNfO0uBu+qk54oqPaXjB5B0lsWSHrTmpRFgqUJLgEGIBqQroBYCRRIkiRJeuvyjO4rNnPuV/490V1nqk281uKh2/4ZR+66n9SukCRJkvT2ZHAkg3sT6dsZ8UgXPFCHAwMMn0LSm1Ig6Q01KSPBvASbKtgAsQnYDqwDeiGQJEmS9PZFV53+//69RHed6aCY38fiD9xKa9+DpBOnkCRJkvT2VNBfwbVBXAO8dBLuPAn37mHwsZz4XhDPNhiqkPS6Akk/oklJgjkVrAc2BNEAGsClwAIkSZIknRkRdG29lHP/8iNk/XOYLk49/QIP3vpPOD56ABKSJEmSzpCAdgZPJ/hWDvtrpEeC7DsQLzcYQtIPK5D0Q5qUl1QwCOwIYiNwMXABkiRJks68CPo++G6y/jlMJ13Ll7Lwjus4/uDjkCokSZIknRkJ8jasBD4InKiIg4m0uyA9ch+b9jUY+Usk/a1AEk3KJRVcBWyD2ACsBi4C6kiSJEmaNLWV53Le7o+TL1vIdHPiwFOMXP6LjL94CEmSJEmTK4PDAY8k2FeDZp32l0pGH0Ka5QqkWapJ2VfBTuCKitgAXAJcCPQgSZIk6ayY87M3kS9byHTUs2YFi37qOp77yGeQJEmSNLkqmAdsC9gyDq+Mk990F4PNGuzrhS8OMPwc0iwUSLNIk3JOBeuBayB2AOuAFUA/kCFJkiTprMkXLeC83f+J2urlTFdH73uIB678JdrHTyJJkiTp7AoYD3ge2F/AozX4Zhd8e4Dhl5FmiQKpwzUpiwpWJriqIq4DNgFLgXOAGpIkSZKmRO87r6C4YBnTWe/6Vcy/cSevfOFbSJIkSTq7EtQSrACWj8OuCbjpFDT3Mnh/Dp+H7N4GQyeROlggdagm5fwE1ya4GeJyYAGwAOhBkiRJ0pSKOT2c942P0LV9A0QwbVWJV79+Nw/e/D8hSZIkaeoFtIFjwAs5NGukOzP4gwYjzyB1oEDqIE3KIsGWBD8PXAGxFJgH9CJJkiRp2ui95XKWfPK3yOb3Md1NHDrM/n/wa7z6tbuRJEmSNH0ETADHgJcKeKpO9bGM9LmS0ZNIHSKQOkCTcnkFvwzcCHEh0Ad0A4EkSZKkaefcP/8/6XnHZVDkTHdpbJwXP/HnPPqh30CSJEnStNUOOBJwpAb758C/HGB4L9IMF0gzVJNyWQU3Aj8PsQ3oAWpAhiRJkqRpq/uqBks//WHycxcxU5x6+gUeuu2fcXToYSRJkiRNe23geAGHavClHvjoAMMjSDNQgTQDNCmjgjygr4IrgPdUxHuAeUAGBJIkSZKmvwj6PvhusgV9zCTF/D4W/vQNHL1/P6SEJEmSpGktB/omoG8C/seT8KE9DD6ak/44kf3HivRSQZpoMFIhTXOBNE01KbMK6kB3wKYE74Z4P7ACSZIkSTNSfcMaln7h96itXs5Mc+LRJ3nwxv+BkwefRZIkSdLMlMGxGtybkT46RnylRjpVozpRMtpGmoYKpGmkSZkl6E4wN8F5wC3A+xOxHqgjSZIkaebKM+Z+4BbyxfOZiWqL5rP4527hqd/+Q0gJSZIkSTNPBXNOwVUQV+VwOMGXxog/2M3go3U40gVHBxiukKaJQJpiTcpI0JVgHnA+cCXwboitwDwkSZIkdYTamhUs/ey/ob5pLTNRqipadw3z8M/8L4w9/wqSJEmSOkNAlcPzOXwc+DPguS54pYCjAwxXSFOoQJoCTUoSFBUsbMO5QWyEdAPEDcB5SJIkSeosWUbvu64iX7qQmSqyjO5V53POu67i+Y99HkmSJEmdIUE2AedNwK9l8C9yGB2D/3wSvnsvm54PsqchTjYYQjrbCqSzrEm5sA3nB7EW0lXAjcAlEEiSJEnqTPmyhfS+60ryRfOZyWqLz2HBu67m5c99g4lDR5AkSZLUWSqoVbB5HDbncBy4u036RE567D42Pd1gpIl0FhVIZ0GTcn4FK4DzE7ET0juAnUEgSZIkqfP1Xr+d2urlkGfMZFErmLNhDfNvuIyX/+RrSJIkSepcbehtE9cD1we8PA5fvZPB/1yD12qkA5sZeQZpkhVIk6RJOaeCC4ALE1ECV0HakWB+EIEkSZKkWSFfcg69t11Nfv4SOkFt2ULm37CDV796F+3DR5EkSZLU+SZgEcQHAt7fhoMV8ZW7GPxejfRsjeqhktGXkSZBgXQGNSnrFSwD1lXEJuAySFsTLAcKCCRJkiTNLt3XbKG+aS1RK+gE+Zwe+rZtYO6W9Rz+5l4kSZIkzR4JiglYA/yTDP7RBPH9CbJv3MPgcA32d8EjAwwfRTpDCqTT1KTMKliY4NKKGAQGgQZwMdALgSRJkqTZKVvQT8+128jPX0In6brwPBa8Yyetu0eoTpxCkiRJ0qwTFfRWsDWIRoJXKth3CvbuZfChHPZB9kSDoXGk01AgvU1Nyt4EG9qwJYjBgI3ApcB8JEmSJOkHujavo2vrpWRzeugkxfw++i8v6R1YzdF930eSJEnS7JUga8Ni4JaAdyR4Zhx2B9X397FpNINvNhh5DeltKJDegiZlnuCSBNsrGITYGHApsAxJkiRJ+juit5vu67ZTW3sBnajnkouYf/0Ojg0/QhqfQJIkSZISFG1YCazM4NQY8XiCu3Yz+GSddE/AtzYzMob0JhVIb0KTcnkFV1bQgNgEXAycD9SQJEmSpB+jvmE13ZcPks2bSycqFs6jf+cgh1Z/i+MPH0SSJEmS/q4KuoD1wHrg6Elif4L79zD4ZJ32l0pG70P6CQqk19GkXFBBCVxTEVuBNcByoBdJkiRJegNRK+i+qkF9wxo6VWQZcxqX0Hf5Zo4/fBBJkiRJej0VzAW2BDTG4fA4+TvuZnB/HfZ2w1cHGD6I9GMUSH9Hk7KrDRsC3lkR24HlwAXAfCCQJEmSpDehWLOC7p2D5Of008nq5y5m3jVbOfzNPZxsPoMkSZIkvZEEkWA+cEWCHSfhxpPws/cw+EiN9DXIv95g6AjS3yiQfuAA5SXADRVxbcAa4HxgAZAhSZIkSW9R944NdG3fAFlGJ4sip2/LpczZfAknm88gSZIkSW9WglqCFcDycdgxTtwQVE/sYXCkIP1xg5G70axXoFmrSXl+gusSXA9RAsuABUAdSZIkSXqbaqvOp+fabRTnLmI26F69nHlXb+HInUOMv3AISZIkSXqLIkEPsCrBhWOwdYy49S4Gn6rBfTnp4w1GHkCzUoFmlSblnASXJbi9gsshlgP9QBcQSJIkSdJpqm1YQ337AOQZs0HUa/Rt30Dv+lUcfuEQkiRJknQasgR9QF8bVlWwLYj37mbw8RrpcznVn5SMvoxmjQJ1vCZlkWBtgjsqeB/EcqAX6AIyJEmSJOkMyZeeQ881W6mvuYDZZO6WS+m/YjNH9z5I+9gJJEmSJOkMyBP0Jeir4IIJYluQ/297GLy7C/6ggG8NMHwKdbQCdazHKc+p4D0V/DLEeqAO1IFAkiRJkiZB7eKVdO3cCEXObBK1gvnXbuO1r91Na88okiRJknSG5Qn6E/SfgvecgltzOHovm74QZB9ucH8TdaQCdYQmZVZBDuQJfgq4IxHvCciAAAJJkiRJmkTZ3F66r9xM946NzEZ9Ozcxd+ulHBveT3VqHEmSJEmaJAVQtKH3OPGPIX3oHgafLkifPUn8yxpUBandYGQCzXgFmrGalFkFXUB3gl3Au4F3B7EMyJAkSZKks6h26UX03rQTIpiNsp5u5t9wGYe/vY/j338cSZIkSToLAsjHYOUY8SsZ/NMED1bwibsY/HiNNFajOl4yOoFmpALNKE3KrIJuoC/BKuBm4LZErAe6kCRJkqQpED1ddDXW07V9A7PZvGu20rtxLSceeYI00UaSJEmSzqYK6mOwGaLM4V8n4q/GiT+8m8H7uqDVBUcHGJ5AM0aBpr0mZVTQBSyoYDmwFXhvInYCvUiSJEnSFKutWk7v7dcQ3V3MZsWCfs5555Uc3TvKycefQZIkSZKmSLRhXhtuC7J35/BkGz5/DL68h8FmAS9BdrTBUIWmtQJNWwcoa8CSCpZCDEC6FeIGYBGSJEmSNE1EraC2/iK6L9uIoP/KBj0Xr+TUk8+TJtpIkiRJ0lRKEBOwcgL+5wz+aQ6j4/DJRHXPPja9mMHBBiMn0bRUoGmlSZkBSytYCqxKcAvElcA6CCRJkiRpusnPX8KcO64lm9+HoPvC85h/w2UcHXqY8RcOIUmSJEnTRQVFBSVQ5nC0TYyMwUd3M9iskV4MeLTBSBtNGwWaFpqU8yq4sILVQVwJaScwGEQ3kiRJkjRNRZFTX3chPddvR//N/Bt38vJnvs7ES6+RqgpJkiRJmm7aMLcNuwJ2Aq+ME/dU8Ik9DL5Yp/1wyeizaMoVaMo0KXsquAhYWxEDwDWQrkjQA4EkSZIkTXfZgn56bt5FvnQh+m/mbFzLvKu3cuKhJhOHjyJJkiRJ01WCaMOiNrwz4JY2PHWS7It3MXhPHZ7ugQcGGD6EpkSgs6pJWVRwAXApxHpgB6RdEMuAQJIkSZJmiiyja8t6lnz6t6mtWo5+WGvvKI/+0m9w/PuPQ0pIkiRJ0kwSMJbDg8BXAvYX8HBGNtxg6CQ6awo06ZqURRuWAesqYgOwFdgGrAJqEEiSJEnSTJPN7aHn5l3UVi1HP2rO4Dr6dmzk5OPPUJ04iSRJkiTNJAnqE7AZKHM4Mgb3QvVXexls5qRhyPc3GDqFJlWgSdOkXJDg0gQl0IDYAFwC9CNJkiRJM1kEtbUXsPRz/4b6wOr/jz04j9HzTgz7/v39nue9554hhzc5vETxmoPn8BBJkaIO6j72stbyeu0GOVokLYoiQAunDRogQYEiRQs0QVrHSNM/mnVs1IntpnZSw+t4d7NeUhR317va3dF9UBRF8Z7jfZ8KXsUraXnM8ZLzvu98Px90Yxf+4Bv88IX/hom33kOSJEmSml2AqQjvAicDfCeFP0/I/niE02+gOyJFdTXGUCGDDRnsrcFOCJuBDcAiIEGSJEmSWkAo5Ckd3U1uwyp0c+2jg3SMDvL+7/wR2cQkkiRJktTMMkirsBxYHuBYBm9MEL79DQa/nyP7RkLtT4c4cwnVTYrmbIyhmMHyDA7WYC+ETcA9wDIgRZIkSZJaTGwr0fb8I4R8Dt1cUinR9/njXPjDbzI1MYkkSZIktYoMilVYD6wHLlcJP4Dk+99k8IdF+NcpnN7Ci1NoTgKatTGG2mpwP3AIwhZgLbASKCJJkiRJLSqkCeUnDrP4n/1dQqmIbm3q/Id8/+n/nIt/fJKsVkOSJEmSWlgW4QLwvQivpvBiQvynI5w8i2YlRTMyxlCpCjuB/TXCYWA1sAJoQ5IkSZIWgnyO9l95ilAqottLezrpffool775Etn1CSRJkiSphYUadAP7MxitwbGM2kPfZPDVHNnXIfmtEU6eR9MW0LSMMbS1BoeAoxA2AouBRUiSJEnSQhKguH+IJb//vxArJTQ9k+99wOl9L3DtR68hSZIkSQtNgPEA7wFjOfhuSvavRjj9r9FtBXRTYwz11+Aw8BSEbUAf0AXkkSRJkqSFKAYW/e9/h/YXHkMz8/rf/Ue8+mv/K2QZkiRJkrRAZQGuAucivJIj++Mctf9ziDPfRzcU0KeMMdRWg/uA5yDsAPqBTiAPBCRJkiRpAUtX9rPi+/+SWCmhmRl/411Obn2WqQ8vIUmSJEmiFuAycD6BsTz8ZhG+toUX30V/KSDGGCplsC2DJ4GHIawGykAeCEiSJEmS/kLv//hf0Pk3fwHNQi3jR3/lv+Odf/JbSJIkSZI+pRrgaoAPc/BSDv6PPPzeFl78gAUusECNMRRrsDKDx4EnA2EPkANyQECSJEmS9Cmxo8KK736NdEU/mp0rp1/m5OBzSJIkSZJuqgpMpvBejuyPI+EfQjw5wslJFqDAAjHGUKxBLkAReDKDpyE8xk8FJEmSJEm31PW3v0L3f/tXCbkUzU42McnLv/xrnP3nv4skSZIk6bYyPpKD11Oy/3uK8HcCXC1QnRjiTJUFINDCxhiKNSgBxQBbM/grwAkIHUiSJEmSpi0U8qz83tdIB1ZAQLOU1Wpc+P0/4XtP/i2yySkkSZIkSdMXIEvhxzlq//048XdzMFGGy1t4cYoWldJixhhKalAC2jNYBXweeCwjrAUikiRJkqQZa/uFR4iLeyCgOQgx0r5/mM77Rrjwh99CkiRJkjR9GYRJWD9J/PUI12vwjevwP3yDwTM5uFyEi1t4cZIWEmgBYwyFKpSBzkBYA9l+4HEIO4ASkiRJkqRZC+Uiy/7tP6awazPEiOamNj7J2X/2O/z4r/09sskpJEmSJEmzF6CWwHsJ/H6E38zgzxOy9yH5cISTVZpcoImNMVTIoC8jLAdGMrLDgXAEWIwkSZIkqS7Kj93Hov/t10gWdaP6mHjrPb534m9w+dQPkCRJkiTVR4TxBH4U4Hdq8AcpvJmQvTHC6cs0qZQmM8ZQkkFfBitrcA9wCLgfWBcISJIkSZLqJxTytP/SY8TONlQ/SWcbi758gisv/YisWkWSJEmSNHc1KNRgC7Alwl+vwotThH/xpwy+lCN7PaX22hBnJmgiKU1gjKGQQWcG62uwBsJuyB6EsAnII0mSJEm6I/IjmygM30vI51D9JOUiXcf2Ulz7Na69/BqSJEmSpPqqQXsNDgAHErgwBf9mguT/+SaDbxbhTApvb+HFGg0u0MDGGGqrwRpgI4RtkB2DsA3oRJIkSZJ0R4U0pfd//q9of/4RQqWE6mvq/Ie88Q/+KW/8/V9HkiRJknTnBahFeDfCv8zgz3LwWgle2sKLZ2lQgQYzxlC+CquAdYGwGxgB9gBLkSRJkiTdNfntG1j8z/8e+a3rUP1l1SoXv36SH375v2b89XeQJEmSJN09ESYj/AD4fyO8mCP7ESSnRjh5hQaS0iDGGFpehW01wnCArcBWYBsQkCRJkiTddZXnjpEuX4TujJAklDaspvvh/bzzj38TSZIkSdLdU4NcDbYCWxO4UCO8VKP2R99i8OWU7NQIp0/TAFLm0RhDvTXYBgzWCIMBhoDNQAFJkiRJ0rzJrV1O6b4dxM52dOekvZ10PTDK+7/975g8ex5JkiRJ0t1XhS7gILBvCt6ZIpz8Ewb/Qw7GcmR/MszpnzBPUu6yMYbaMrg3g501whCwDbgH6AIikiRJkqR5V37yCLmNqyEGdOfEQp7K9g107Bvk/d/+d0iSJEmS5lVSheXA8gAPTsEbU4Tv/CmD38+RnUypfX2IM2e5i1LugjGG8hmsymBPDfZB2AqsAxYDOSRJkiRJDSNZ2kfp0A6SRV3ozius6Kf7kQNc+INvUr18FUmSJEnS/MsgV4UBYE2AazXCKxMkZ77F4Et5+KMcfGcLL17hDku5Q8YYijXozWBfFQ4FwiCwClgOlJAkSZIkNaTSsT3ktqyDJEF3XiwXad+1lfY9W7nwh99CkiRJktRQQgblDDYH2DQJxybhiQg//jbb/ywSfhviT0Y4WeUOSKmzMYaSDA5U4cFAGA2wFFgGtCNJkiRJamixvULp8E7Slf3o7imuXU7X8X1c/PpJauOTSJIkSZIaTwYxgx6gJ4PhGuFwBk+l1F77M7b/2wC/PsLpSeoopU7GGNpag0dqcATCmgBLgC4kSZIkSU2jeN8whR33EvI5dPck7RXad2+hvG0Dl7/9PSRJkiRJjS2DJIN+oH8KdlYJBzL48jcZfCVP9n8Nc/p3qIOUORhjaFUNHgSO1whbgUVAF5AgSZIkSWoqoZCndGwPuU1r0F0WAuWtG+g8sovL3/4ekiRJkqTmkUEug+XA8knYOUm4798z+LdzcDJH9TeGOPMtZillhsYY6q7BXuCpGuEAsBhoB/JIkiRJkppWYedmCjs3Ewp5dPflejrpPLSDD37v61w982MkSZIkSc0ngyKwqgorazA4TvLYNxgcy8G/KsK/2MKLrzADKdMwxlChCtuAZ2uER4CVQAnIAwFJkiRJUlMLhTylB/ZQGN6E5kkMVLZuoH3XVq6e+TGSJEmSpKYWMigD5UlYNgU7rsPf/BaDL6Vkvw7J745w8hK3kXILYwytrMHnaoQvBNgM5IAUCEiSJEmSWkZu4yoKI/cSKiU0fwqrltB5ZBcX/uCbjL/+DpIkSZKklpBkUMmgMg7944RDCbUL/4HB/y8h+wcjnD7JTaR8ZIwhMkgySAMsBp7M4Mka7IVQRpIkSZLUumKgdGQXxUMjaJ6FQNuOe2nbcS/jb7wLWYYkSZIkqaUkQFKFJVX4QiB8/k8ZPJsj+xrwD6uEN3PUJiPZ5BBniD9hKK3BMuAx4Dcy+HZG+J8g3A+hjCRJkiSppeU2rKZ4YJjY0YbmX3nzOjqP7CbX04EkSZIkqbVlEKag/xrhr18nfD+DUzX4W9eIq08zWIjAJuDbGeG3IHwewmIkSZIkSQtDEinsvJfC6DbUODoODNG2YzOEgCRJkiRpYcggmYQN14h/v0b4cQb3xwA5CEuRJEmSJC046ZI+ivuHSFf0o8ZR3rKetj3bSNrKSJIkSZIWnhokVar5WCO8jCRJkiRp4Uki+eF7KB7eiRpLLOToOryT8r0DSJIkSZIWpiskfxiBDLiAJEmSJGlBSbo7KO4fIn/vAGo8bbu20rZrC7FURJIkSZK0sESYjEDMyGoZ2feRJEmSJC0cMZDbtIbSkZ2oMSXtZbqPj1JcuxxJkiRJ0sKSwLUUsghkwFkkSZIkSQtGbCtT2L2V/PAm1Ljadm+lsn0jsZBHkiRJkrRwBPggADFALcCPkCRJkiQtGOmqpZQf2kfI51Djyi/po+vobnJLepEkSZIkLRyB7K1AVotABryHJEmSJGlBCKUihV2bKe4bRI2v8/7dlDcNENIESZIkSdKC8TaQRaAGvIYkSZIkaUFIlvZSPnGQUCmhxlccWE7XsT2kPZ1IkiRJkhaGCC9HslqMkAV4F0mSJElSywu5lPzmdRQP70DNo+fR+ygOLIcYkCRJkiS1vozw7UisRiCD8CqSJEmSpJYXezopnzhA0tuFmkdx/So6D+0gba8gSZIkSWp9k4STGbEWBziVZXAJOI8kSZIkqXUlCbmNq6g8eQQ1l5Am9D13nNziHiRJkiRJrS1ArUZ2ZYSTWeQjGVk1I3sDSZIkSVLLim0lSsdHSZb0ouZT3raerqO7ieUikiRJkqTWlcC1FDI+EvmpGnAeSZIkSVJrCoF0+WLav/Qwak6xkKf36aOknW1IkiRJklpXgGsBMj4S+UiAqQAvI0mSJElqSaFYoHziIOmapah5dewfpn3PNkIuRZIkSZLUmgLZG5GsykciP5UB15EkSZIktaTYVqL9lx+HGFHziuUivc8cJZaLSJIkSZJaUyScj4QaH4l8JMJkgO8gSZIkSWo5IZdSeeYouY2rUfPre+44pfUrIQYkSZIkSa0nkH07kk3wkchPZcAkkiRJkqTWk0upfOkhiBE1v1jIs+RXnibmckiSJEmSWtIkH4t8ZIBTExnhW0iSJEmSWk75gb2UDo6g1rHoS4+QX9aHJEmSJKn1XCP8xjCnr/CRyM9kwBSSJEmSpNaRJrS98ChqLUlHhf6vPAkBSZIkSVJryfiEyM9MAD9CkiRJktQy8lvWUXnqftR6+r/6FElHG5IkSZKk1pHAeAo1Phb5WEZWzcguIEmSJElqDUmk8z/9AmpN+WWL6H/hcSRJkiRJrSPC1Qg1Phb5mUngTSRJkiRJLSE3sJzy44dQ61r0xYdIOtqQJEmSJLWGAO9EmOJjkY8FmAzwJpIkSZKkltD+wmPErnbUuirDm+g6vhdJkiRJUqvIPoCsysciPzMJvIkkSZIkqemlK/qpPHuMkCaodYU0ZfHzJ4ilIpIkSZKk5hdgLMIEH4t8LMJUIJxFkiRJktT0Kp97gHRlP4SAWldIIp2HdtKxdxuSJEmSpOYX4NVINsnHIj8zBbyNJEmSJKmpJf09lB8/RCjmUetLykUW/9LjhHwOSZIkSVJzq8F3A9l1Phb52ACnpjI4iyRJkiSpqZWO7iG/ZR0kCWp9IZfScWCYyrb1SJIkSZKa2wThz4c4M87HIp82DryNJEmSJKkpxfYKlWePETsqaIEIgdziHhZ94SEkSZIkSc0rgfEUanxC5BMyssmM7F0kSZIkSU2peHCYwo57CfkcWjiScpGuY3spb1mHJEmSJKk5BZiMkPEJkU8IcD3Aa0iSJEmSmk4o5Kk8e4ykrwstMDFSWLmEnkfvQ5IkSZLUnAK8G8gm+ITIp00B7yNJkiRJajrF/YMU9mwllApo4Uk62+g+Pkph9VIkSZIkSc0nkF0KUOUTIp+QwTjwFpIkSZKkplM+cZB0RT+EgBaekCYUN6ym88guJEmSJElN6dVAdp1PiHxChMlAeB9JkiRJUlMpjGyiuG87sa2MFq78kl56Hz9M2t2OJEmSJKm5BHgrEsb5hMgnBJgA3kWSJEmS1FRKJw6SblgFMaCFK+RSylvX03X/biRJkiRJzaVK+BbES3xC5NMmMngLSZIkSVLTyK1dQenAEEl3J1JhZT/dDx8glgpIkiRJkppHFV6BcJ1PiHzCAKcy4CpwDkmSJElSUyg9sIfcvQMQA1IsFqgM3UPHnm1IkiRJkppDgGqAqRFOZnxC5DMysusZ2TtIkiRJkhpe7OmkeP8u0hX9SP9R6Z41dD20HwKSJEmSpCaQwPUUqnxG5OdNAReRJEmSJDW88mMHKezcDCEg/UdJW5mOg8N0jA4iSZIkSWoK14EanxH5jABXAryCJEmSJKmhxc42inu2ka5cgvRZpfWraN83REgTJEmSJEmNLZC9Gcmu8RmRn1cFxpEkSZIkNbTigSGKo9sJuRTps3KLe+g8vJPShtVIkiRJkhpbIJyPhAk+I/IZES4Fwg+QJEmSJDWsUCpS2LON3IZVSDdT3rKW9r3bCEmCJEmSJKmRZT+MZJf4jMjPqwJXkCRJkiQ1rMLIJkqHdhAqJaSbKa5ZTueRXeSX9SFJkiRJalwZ4RwwzmdEPmOAU5cz+DGSJEmSpIYUigUKo9vIb9+AdDvtu7fSvnc7IUYkSZIkSY1pEr4+zOlzfEbkxqaAK0iSJEmSGk5u/UqK+4eJXe1It1Ncu4KO0UHS3k4kSZIkSY0nQC1Axg1EbuwK8A6SJEmSpIYScimFnZsp7tmKNB0hl9JxcITK9g1IkiRJkhpPhIkUatxA5AYysvGM7AKSJEmSpIaSrOyneHgHydI+pOkqb1lLx/5h0q52JEmSJEmNJcDlCJPcQOTGrgV4F0mSJElS40gihcGNlA7tQJqJWCrSeWQXpY2rkSRJkiQ1lgAfBLjODURuIMBVCGeRJEmSJDWMZHEPxYPDJCv6kWaqMriRtl1bSColJEmSJEmNJDsP2Tg3ELmxq8BZJEmSJEkNI3/PGsonDhLSBGmm0u4OOo/sIr9yCZIkSZKkhvJGApe4gcgNRBgPcAFJkiRJUkOI3R0UDwyRW7sCabY6D47QNriRkM8hSZIkSWoY70aya9xA5MauZPA2kiRJkqSGkFu3gsozRyFNkGYrt7iHruOj5Jf2IUmSJElqDFV4CbJz3EDkBgY4NQVcRZIkSZI072KlRGHnZnKb1yLNVdfxUUobVxOSiCRJkiRp/mWE94c4c50biNxERvYB8BqSJEmSpHmVrFhM5bkHCPkc0lzlly2i6+ge0t5OJEmSJEnzK4HrKUxxE5Gbm8zIriFJkiRJmjchl5K7Zw3FfduR6iHESO/TR8kvW4wkSZIkaX4FqAXIuInITQQ4Hwg/QZIkSZI0b5LFPbQ9/wihWECql+LaFfScuI+0qx1JkiRJ0rx6O5Jd5CYiN1cFJpEkSZIkzY8YSdcso/LEYaR6Ckmk57FDpL2dSJIkSZLmUzYF1LiJyE1kcAF4HUmSJEnSvIhdbbQ9/zAhn0Oqt/ZdW+g8vItYKiBJkiRJmjc/CWTnuYnITSQwEeAykiRJkqS7L0CyqIe2508g3REx0PfsMdKuDiRJkiRJ8yMQzieEq9xE5OauZPAekiRJkqS7LpSKtD//CLGtjHSndD+0n7bhTYQ0QZIkSZJ091XhZEbyJjcRuYkBTl0F3geqSJIkSZLuqmRRN+2/+hTSndb/1SdJ2itIkiRJku6+Gnwwwslr3ETk1i4B55EkSZIk3TUhTSifOEjS34t0p3U9uI/SxtUQA5IkSZKkuyfCVAJVbiFyCxnZFeADJEmSJEl3TWiv0PHXnkO6G5JKif5fepyYpkiSJEmS7p4AEwlMcQuRW7sKfIgkSZIk6a4p3jdCfss6pLul99kHKKxZhiRJkiTprroSYJxbiNxCgEvA+0iSJEmS7opQKdH1X/4i0t2U6+ui/ytPIEmSJEm6ewKcj2SXuIXIrV0FPkSSJEmSdFcU926juH8I6W7rfeYY+SV9SJIkSZLujgDvRcJFbiFyCxEuAmeRJEmSJN1xIZ+j4z95Gmk+lDasoufxQ0iSJEmS7o4M3gtkF7mFyK1dAs4jSZIkSbrj8lvXUzq2F2m+LH7hcdKONiRJkiRJd14GrwDvcQuRWxjg1GXgPJIkSZKkO679q08QOspI86VtZBNdx/ciSZIkSbrzqvDKMKfPcguR27sMXESSJEmSdMfkNw1QfuQAIUmQ5kvI5ej/ypPEYgFJkiRJ0p0ToBqhxm1EbiMjuwRcQJIkSZJ0x1S++CDJ4h4IAWm+hCTStmMzHfsGkSRJkiTdORGmEpjiNiK3dxm4iCRJkiTpjkiXL6b86H2EYh5pviVd7Sx+4TEkSZIkSXdOgEsRrnAbkdsIcBE4jyRJkiTpjig/fojcmqUQI9J8i/mUjgPDdIxuR5IkSZJ0x1wJZNe4jchtZPAh8AGSJEmSpLqLvZ20ffFBYmc7UkMIgdziHnqevB9JkiRJ0h1zIcAlbiNyGxEuAueRJEmSJNVd6f5dpAMrIIlIjSIpl+g+Pkpp0wCSJEmSpDvinQjvcxuR2whwHbiKJEmSJKmuQrlI2xcfJlncjdRQYiC/fDHdD+1DkiRJknQnZB9Gape4jcjtnQPeQZIkSZJUV8XdW8lvWkPI55AaTa6vi75njpFb1I0kSZIkqb6mCN8FfsRtRG5jgFM1oAZkSJIkSZLqIwTavnyCdGAZUkMKgeLAcnqfuh9JkiRJUv0EyAJMDXGmym1EpiEjew14HUmSJElSXRRHt1MY2UQoFpAaVa6/l54T95F2tiFJkiRJqo8I4zkYZxoi0zMFVJEkSZIkzVlIEsonDpKuWYbUyEKaUNq0hq5je5AkSZIk1U0NqDINkWkI8CbwJpIkSZKkOcttXEVx3yCxqx2p0RVWLaX7kYPEchFJkiRJUl2ci2TnmIbI9EwCk0iSJEmS5iZNKD20j9w9q5GaQSzmaduxmc6DI0iSJEmS6mICmGAaItNzDjiHJEmSJGlO0tVLKR3dQ7K0D6lZFFYvpfPQDmKpiCRJkiRprrJ3Itk7TENkGiJcBa4iSZIkSZq9JFI6sov81rVIzSTtaqd9/xDlreuQJEmSJM1VeD8SzjENkem5AFxAkiRJkjRrSX8vxQPDpMv7kZpNaeMaOu8bIeRzSJIkSZJmrwavZCSvMA2RaRjg1FXgAjCJJEmSJGlWinu2Udi5GdIEqdnkl/TSeWgnpbUrkCRJkiTNWgZcHeHkVaYhMn3ngYtIkiRJkmYs6eumeGiE3LoVSM2qMnQPHQeGCUmCJEmSJGnmIlQTmGSaItOUkV0CriBJkiRJmrH80EaKo4OEYh6pWeWXLaJj/xD55YuQJEmSJM3KZIRJpikyfeeBD5EkSZIkzUjsbKM4up3cpjVIzSwkCe17t9O2YzOSJEmSpJkLcDWQXWSaItMU4DJwDUmSJEnSjOTWr6S4f4jYUUFqdoW1y+k8tJP8kj4kSZIkSTN2ORIuMk2RaQrwHvABkiRJkqRpC8U8hd1bKezajNQKYj5Hx/4hypvXIkmSJEmasXOR7G2mKTJNAS4DV5EkSZIkTVs6sJzS/buIPZ1IraK8eS3t+4dIu9uRJEmSJM3I1QCXmabI9L0NnEOSJEmSND1pQmFwI8UDw0itJJaLdBwcprh2BZIkSZKk6avBj4EzTFNkmgY4dQ0YR5IkSZI0LemyRRQP7yRZ3I3UajpGB2nftZVYLCBJkiRJmp4MLg9z+kOmKTIz7wIfIkmSJEm6rdyGVZQf2gcxIrWapK1M1/FRigPLkCRJkiTdXoBqApPMQGQGMrLLwHUkSZIkSbeULOml/NB+0pX9SK2q8/BOylvWE9IESZIkSdKtBagmMMUMRGbmfeAykiRJkqRbSpf3U3xgN8SI1KrSrna6j+8lv3QRkiRJkqRbC3A5wnlmIDIDAd4HLiFJkiRJuqnY2Ubp6C4K2zcitbQQ6H78CMV1KyAgSZIkSbq1CciuMgORGcjgHHAJSZIkSdJNJUsXUXrkAISA1Ory/T30PX0/+f5eJEmSJEk3l8GHAc4yA5EZSOA8cBlJkiRJ0g2FUoHi3q2UDu1AWii6Hhglv6IfQkCSJEmSdFMXEnibGYjMzCXgOpIkSZKkG0qW9tH2S48jLSSlTQN0PbCXpKOCJEmSJOmmLgZqZ5mByAwMcOpd4EMkSZIkST8n5FLyW9ZT3LUFaaHpeewQ+SV9EAKSJEmSpJ9XgzeHOPN9ZiAyc1eACSRJkiRJnxK72ml/4VFCuYi00HSMDtKxb5BYyCNJkiRJ+rQAtQhVZigyQxnZG8CHSJIkSZJ+JonkNqyidGQn0kK16PkT5Pq6kCRJkiR9WoBqCuPMUGTmPgTGkSRJkiT9pVgq0vaLjxJ7OpEWqo59g1SGNxHSFEmSJEnSp0wEuMIMRWYowNvARSRJkiRJPxUC6ZqllJ84hLSQxWKBxb/4KLFcQJIkSZL0KVcD2XlmKDJzF4FxJEmSJEl/IaQJlWeOkS7pQ1rouh4YpTJ4D8SAJEmSJOkvXQc+YIYiM/cecAVJkiRJ0l+IvZ20Pf8IkiDtbGPxl08Q0hRJkiRJ0l+6GMneYoYiMxThAnANSZIkSdJfqDx7jNz6lUj6qZ4T91HasApJkiRJ0k9l8H4k/pgZiszce8AVJEmSJEmEUoGOX3kKST+TX7aI3meOIkmSJEn6qQzOZ8SfMEORGRrg1HXgA2ACSZIkSVrgyicOkNs0gKRP63/hcXJ9XUiSJEmSyAJMjHDyOjMUmYWM7F3gGpIkSZK0wHV89SlCPoekTysOLKfv2WNIkiRJ0kIXoJbCBLMQmZ2LwASSJEmStICVDu+ksHsLBCR9Vgj0f/VpkkoJSZIkSVrIAlQDjDMLkVkI8AZwGUmSJElawNp/9SlCRxuSbqy0aQ3dD+1DkiRJkha4a5HsLLMQmZ1xoIokSZIkLVD57Rso3reDkCZIurFYKtL/q88gSZIkSQvceCR8yCxEZiHCD4ELSJIkSdIC1fblEyQ9HUi6uZBE2kbupfuh/UiSJEnSAnYhkv2AWYjMziRQQ5IkSZIWoGRJL5XHDxFKRSTdWtJRoe+5B5AkSZKkBawGTDILkdn5HvABkiRJkrQAdfzV50iW9EJA0m3EQp6uY3tp27UFSZIkSVqIavAq8LvMQmQWBjiVAVUgQ5IkSZIWkNjbSeXJI8SONiRNT9rdTu/T90OMSJIkSdIClA1zOmMWIrM3BlxFkiRJkhaQti88SNLfi6TpS9or9D5+hNLAMiRJkiRpIQlQS2GcWYrMUkZ2EZhEkiRJkhaI2Fam8sRhkr4uJM1Mvr+Xvs8/CDEiSZIkSQtINcJ1Zikye+8A15EkSZKkBaL86EFyG1ZBEpE0M0l3O13HR8kv6UWSJEmSFooA4xHOMkuRWQrwDnAdSZIkSVoAYqVE5ckjJMsWIWnmQowU162k55EDSJIkSdJCkcEkZB8yS5HZewcYR5IkSZIWgMK+QXKb1xLyOSTNTr6/l+6HD5Dr60KSJEmSFohrEV5nliKzFOEcMI4kSZIktbhQyFN+9CDpwDIkzV7IpZS3baDz/t1IkiRJ0gJxLZK9wSxFZu8sMI4kSZIktbj8tvUUdm4mtpWRNDf5ZYvoun83aVc7kiRJkrQAXApkLzNLkVka4NQ5YAJJkiRJamEhTSifOEh+0wCS5i6plGjbtYXKyL1IkiRJUqvL4PIQZ15mliJz8zYwgSRJkiS1qHTDKgqj24g9HUiqj+LaFXQd3UMsFZAkSZKkVhWglsAEcxCZg4zsHWACSZIkSWpRpSO7KGzfgKT6Sbva6dg/RGXreiRJkiSphWUJTDAHkTkI8BowjiRJkiS1oHTVEor7B0n6e5FUX+XNa+k8vIuQS5EkSZKkFjUZyM4yB5G5eR+YRJIkSZJaUPG+EYqj2yFGJNVX2ttJ++h2SutWIkmSJEktairAReYgMgcZvAVMIEmSJEktJlnUTXHvNpKVS5BUfyFG2nZuoX10O5IkSZLUosYD2WvMQWQOIpwDJpEkSZKkFlPYtYXigWFCmiDpzsgv7aPzyC6KA8uRJEmSpBY0EQlvMgeROQjwLjCJJEmSJLWQUClR2LmZ3L0DSLpzQprQvnMLlcGNSJIkSVKryeASxG8xB5G5eRuYQJIkSZJaSGFwI6Vjuwn5HJLurOL6lXQe2kGuvwdJkiRJajHXIbzCHETmYIBTU8A7wBSSJEmS1AJCpUTx4DCFvduRdOeFXErb3u2U7hlAkiRJklpJhKkRTk4xB5E5ysjeBKaQJEmSpBaQW7uc4v5BQi5F0t3RvmsrnfuHSColJEmSJKkVBKilcJU5iszdBaCKJEmSJDW5kM9R2LON0tE9SLp7QhLpenCU8pZ1SJIkSVKLqAHXmKPIHAX4ITCBJEmSJDW5dEU/pYMjhHIRSXdX++5ttI3cSyzmkSRJkqQWMBnJXmWOInM3DtSQJEmSpGaWRPLbN1B+9CCS7r5YKtB1fJTiwHIkSZIkqQVUI+F95igyRxFeAsaRJEmSpCaWLumjdHwvsacDSfOj8/AuylvXE3IpkiRJktTkrkeyl5ijyNxdBmpIkiRJUrOKkdyGVZQe2oek+ZN2t9Pz2CEKyxcjSZIkSU2uCrzHHEXmaIBTfw6MI0mSJElNKna1UTy0g9zAciTNr877RihuXE1IEyRJkiSpWWVweZjT/4Y5itTHJSBDkiRJkppNDOQGllN56giS5l9h9TK6HthL2t2BJEmSJDWrAFXqIFIfY8AUkiRJktRkYrlEcf8Q+cGNSGoMPQ/vp7hmGSFGJEmSJKkJZSmMUweROsjIzgE1JEmSJKmZhECypJfKM0eR1DjKW9bTef9uYlsJSZIkSWo2AWoRLlAHkfp4HagiSZIkSU0k5HMUdm6msGcbkhpL37MPkF+2CEJAkiRJkppMLcBZ6iBSBwFeB6pIkiRJUhOJHRXavvQwoZBDUmOpbN9Ax74hYiGPJEmSJDWZGmRnqYNIfbwOVJEkSZKkJhHShMLwJkr370JS4wn5HIt+4RGSzgqSJEmS1GSmIrxMHUTqIMI5oIYkSZIkNYlQLFB5/hFCpYSkxtS+dzud+4cJuRRJkiRJahYZVBOy16iDSH2MAVUkSZIkqRmEQH77BsqPHEBS40rKRfq++DCxmEeSJEmSmsgEZP+eOojUwQCnLgI1JEmSJKkJhCSh8uwxkt5OJDW2rmN7qAzdAyEgSZIkSc0gQHWIM29TB5E6yci+C9SQJEmSpAaXLF9E2/OPIKnxpV3t9D13nJAmSJIkSVITyFK4Qp1E6ucikCFJkiRJDa7tF0+QLOpGUnNY/PwJCssXI0mSJEnNIECVOonUSYDvADUkSZIkqYHF9jIdv/wkkppH2t1B/y8/gSRJkiQ1gSySvUydROrnOpIkSZLU4CrPHCNd0Y+k5rL4K0+StFeQJEmSpAaXARPUSaROMvgeUEOSJEmSGljH3/gcJAmSmkt+6SIWff44kiRJktTgaoHsJHUSqZMEzgMZkiRJktSg2r74EPl710JAUpMJSWTpf/YlQpogSZIkSQ0sSwhvUieR+nkVyJAkSZKkBhRyKZXPH4d8DknNqbR+JYu++DCSJEmS1MCqGcnvUSeROhng1FvABJIkSZLUgIoHhinuHyKkCZKaU8jn6PvccWIxjyRJkiQ1qNoIJ9+iTiL19SqSJEmS1GBCLqXyuWPESglJzSskCe2j2+k4OIIkSZIkNaIEJqijSB1lZG8gSZIkSQ0md+8A5YcPEEoFJDW3pFKi73PHCfkckiRJktRoErhCHUXq620kSZIkqZEkCW2/8DCxpwNJzS8WC3QfH6WybT2SJEmS1IA+oI4idRTgFSRJkiSpgeQGllE6uodYKSOpNaTdnSz64sOENEGSJEmSGklC9ip1FKmvd5AkSZKkBlJ+4jDpqiUQA5JaQ1Ip0XlkF8V1K5EkSZKkRhIIY9RRpI4ivIwkSZIkNYh0ZT/lh/aRdHcgqYXEQGHVUnqfPIIkSZIkNZJI9kPqKFJfryNJkiRJDaL0wCi5e9ZAmiCptaTd7XQdH6W4ZhmSJEmS1EC+Qx1F6qhGeAVJkiRJagDJ4h5KD+whWdSNpNYTkoTyxtV0HR9FkiRJkhrFZcI3qKNIfWXA20iSJEnSPCseHKYwsolQzCOpNaWLuuk6tof8kl4kSZIkab5FmIzUV6SOMjIysteRJEmSpHkU2sqUjo+SrlyCpNYVC3kq2zbQvnc7kiRJkjTfErieUF+R+nsLSZIkSZpHxf2DFHZvIZQKSGpthVVL6X54P0l7GUmSJEmaTxHejZBRR5E6CkCAV5EkSZKkeRLyOUqHd5JbuwJJrS+Wi7Tt3EL77m1IkiRJ0vzKzgUy6ilSRxmQwStIkvT/swenT3Leh2Hnv7/f0+f03ANgCIA4BheJewDiPkSQBAiSIimKuixbli1byW7tkVRqa1/sy/0f8iJVeZGKN1suJc6uLctSSU4c0TosSpEIkqAoybxEEgAJ4hrMPdPdz1qON5YtkgKJ6e6n5/l+PpIkdUhp/91Ujuwh9vUgKR+qW9YzePowsVxEkiRJkjolwOuBpRVZQhHSCK8hSZIkSR1SObqX4q7NEAKS8iHp66Hv0C5qu7ciSZIkSZ0S4cXI0oosoQAEuIokSZIkdUBpxyYqH9lPMjyApBwJgZ692+i/9wCSJEmS1CmB9M1Ik6UUWWJNwgtIkiRJUgeUj+6hfGgnxICkfCkODzBw7z3Udm1BkiRJkjphgfBlIGUJRZbQGOf4G3UkSZIkqc0Kd45SOT5OYfUKJOVQCNT2bqO2fzuSJEmS1G4B0jphbpzzLKXIEktJ6ynpXyFJkiRJ7RIC5cO7qJwYhxCQlE/l9asZPHOE8oY1SJIkSVI7FWCyCClLLNIai0iSJElSm8ShfirH9lLcuh5J+da7/25q49sgBCRJkiSpjeq0QGSJBWgE+K9IkiRJUjuEQPnQTqpnDiNJPTs2M3jqAMWRASRJkiSpXSLpTyNpgyUWWXopMIckSZIktUHs66G8726K2zYgSb/Q/5F7qI3fDSEgSZIkSW0ySwtEll4T+CmSJEmS1AbF7WP0PHyMUC4hSb/Qs3MLfYd3kfTVkCRJkqR2CPBsJG2wxCJLLEIa4CqSJEmS1GKhWqa8dxul8buQpP9fLBcZfOAQ1W3rkSRJkqR2CPBSJDRZYpGl14TwOpIkSZLUYsWxtfR89CSxr4Yk/bLeA7voO7iL2FNBkiRJklqtTvxWSlJniUWW2Bjn0hSuADNIkiRJUouEcpHSnq2Uj48jSf9Y0tfD0EPHqGxcgyRJkiS1UoC0Tnp1P8+kLLFIazSAN5EkSZKkFklWr6TnkRMkIwNI0rvpO7yb2p6txHIJSZIkSWqVCPMJpLRApAVS0kZKehlJkiRJaoUkobhtA9UHjyBJ76U4OsLA6SMUVw0jSZIkSa0SYTZCSgtEWqMe4A0kSZIkqQWSkQF6zh4lGR1Bkt7P0OkjVO/aSCgkSJIkSVIrBHgnQIMWiLRAgCZwFUmSJElaajFQ2LiG2idPI0m/TnnDaobOHqUw1I8kSZIktUKAtyI0aYFICwSoB3gFSZIkSVpisa9G9cxhCuvvQJJuxfDjpyhvWA0xIEmSJElLLcBPI+kiLRBpgQBN4AqSJEmStMSSkUH6fusRJOlWVTbdyeB9h0h6e5AkSZKkpRZI3wnQoAUirbEI4adIkiRJ0hIKlTKV+w9S3LoeSbpVoZCw4rMPURwZRJIkSZKWWp3wn4A5WiDSAmOca6ZwA0mSJElaQnGwl/7/8ZNQSJCkD6K2czNDDx4lVstIkiRJ0lJahAv7eK5BC0RaZxH4OZIkSZK0BEIhoXJgJ6U9W5GkDyqUiox88gxJbw+SJEmStFQSWEggpUUiLZKS1lPSa0iSJEnSEgjVMn3/y6cJxQKS9GH0n9xH37G9hEKCJEmSJC2FCAsJpLRIpHUWgUtIkiRJ0u0KgcLYWqr3H0KSPqxYLrHiU2eI5RKSJEmStBQCXIqwSItEWiTAYoALSJIkSdJtCklk4H//PKFYQJJux8rfeIjq1vUQApIkSZJ0+9JJSJu0SKRFUlhM4U0kSZIk6TYld6yg73MfRZJuV0gSVv+vnyUUEiRJkiRpCfw8wAItEmmRBBYj4RKSJEmSdJsG/vlnkaSlsuJTZyivWYkkSZIk3a4ILyUwT4tEWqcBXEOSJEmSbkPsq9H3ex9DkpZK0ldj9PeeQJIkSZJuV0r6ZqC5SItEWmSMcwspvIYkSZIk3Ya+Lz5BHOhDkpbSqi98jMJwP5IkSZJ0O+aJ3xnn/DQtEmmtOjCFJEmSJH0Isb9G///wCYgRSVpKpTWrWPXbjyJJkiRJH1aEeoSUFoq0UEo6m5K+jCRJkiR9CD0fPUnhzlEISNKSCjGw4tMPUhjqR5IkSZI+jAhzBWjQQpHWqge4jiRJkiR9QLG/Rt8/+TihUkaSllwI1PbexeDpw0iSJEnShxFgKkCDFoq0UIBZ4DUkSZIk6QOq3HsPpT3bIIlIUivEcomVv/kISU8FSZIkSfqgAunbgXSBFoq0Vh24gSRJkiR9AKFWpe/zjxL7epCkVgmFhP4T4/Qd24skSZIkfQhXgUVaKNJa8xAuIkmSJEkfQPme7ZQP7yKUikhSKyW9NVZ97qPEUhFJkiRJ+oBejaRztFCkhSIsBriKJEmSJN2iUCrS+5kHSYYHkKRWi+UifcfGqe3dhiRJkiR9ECnhxUicpoUirbWQwiUkSZIk6RYV7x6jcmIfoaeCJLVcCJTuGGHFpx9EkiRJkj6IOvw4JU7TQpEWGuNcA5gAbiJJkiRJt6D3kw9QWDcKISBJ7ZDUqgzcd4ja7i1IkiRJ0q0I0ASm9/NMgxaKtFhKOge8jSRJkiT9GsWt66ncd5A40IsktU2MlDesZujhk0iSJEnSrYgwX4AmLRZpvYWU9AaSJEmS9Gv0PHKC4uY7IUYkqZ0Kg30MPniEysY1SJIkSdKvE2A+QIMWi7RYgJkAbyBJkiRJ7yO5Y4TqA4eIK4eQpHYLhYTq1vX0nzqAJEmSJP06AS4H0jlaLNJ6TWAOSZIkSXof1fsPUdw+RigkSFInlNasZOSxeykM9SNJkiRJ7yfAjYSwSItFWizCzUD4KZIkSZL0HuJQHz2PnqSwcQ2S1CmhUKBn52YG7z+EJEmSJP0aL0bSm7RYpPWawAKSJEmS9B7Kh3ZR2j5GKCRIUieVN65h8OxRYrWMJEmSJL23dAFo0mKR1ptI4QUkSZIk6V2Eapnaoycpbh9Dkjotlkv07rub/iN7kCRJkqT3skD4CnCBFou02BjnUqABNJEkSZKkf6Q8fhelvXcRyiUkKQuq2zcxePYYIUmQJEmSpPfQ2MdzKS0WaY9J4HUkSZIk6ZeEQoHq2aOU992NJGVFUqvSf3ycvsO7kCRJkqR/LIGFAjRog0gbpKQLKekkkiRJkvRLSrs3Uzmym9BbRZKypLptA31H9xCKBSRJkiTplwWYi9CgDSLtMRPgMpIkSZL0d0KpSPn4OKXxu5CkrCmuGmbgIweobl2PJEmSJP2yAFcizNIGkTYIMAPhMpIkSZL0dwqb1lK99wDJ6AiSlEU9e7bSe2gXoZAgSZIkSX8vnYR0gTaItMcMcBlJkiRJ+oVCQnn/dkr33I0kZVVl4xoGTx2ktGYlkiRJkvRLLkSYog0ibRBhLsA1JEmSJOlvFFavoHLqHopja5GkLOs7spu+g7sIMSJJkiRJf+diJJ2iDSLtMZfCFSRJkiQpRkrjd1E9uQ9JyrrKpjvpO7qHwopBJEmSJOkXUng1kE7QBpE2GOPcLHAVSZIkSbmXjAxQObqXwuZ1SFLWhWKBgVMH6Nm5GUmSJEn6hTrh5XHOT9AGkfaZAa4iSZIkKdeK2zZQPX2IUCwgSd2gZ8dm+o+PUxjqR5IkSVK+RVhMoEGbRNokJZ1OSa8iSZIkKbfiYB+VE+OUdm1BkrpFrJYZfOAwlc3rkCRJkpRvERYTaNImkfaZDIS3kSRJkpRbhQ2rqZ45QqiWkaRuUhu/i76DO0l6q0iSJEnKteuBdIY2ibRJgFngBpIkSZJyKdSqlA/soHxgB5LUbQqDfQzcf5DSmlVIkiRJyrN0OsACbRJpkxSmgStIkiRJyqVkdJjqmSPEgV4kqRsN3HeQ2p5thFIRSZIkSbn1ViC9SZtE2iTCDHAdSZIkSbkTigVKOzfTc+YIktStiiODDD18nNIdI0iSJEnKpwDvRMIUbRJpkwAzwDUkSZIk5U5cMUjPY/cSh/uRpG429NBxqlvWE5KIJEmSpPxpEl4IhLdpk0j7TANXkCRJkpQvMVIcW0PtsZNIUrcr3THC4INHKQz1I0mSJCl/GnAxJU7QJpE2GeNcE7gJTCBJkiQpN2J/jZ5HTpKMjiBJXS9GVnzqDMU7ViBJkiQpXwI0Iyzu55kmbRJpo5R0EriKJEmSpNxIRgbo/a2HIQQkaTmobFzLyMdOkfT3IkmSJCk/IiwUoE4bRdprDphGkiRJUi6EWpXapx+ksGE1krRsxMDIE/dTHO5HkiRJUq4sAHXaKNJGAa4BF5EkSZKUC8lQP31feBxCQJKWk94DOxg8c4RYKSNJkiQpHwJcjqQ3aKNIezWAOpIkSZKWvVAsUD1zhOLW9UjScjTyydMkA71IkiRJyocAk5EwSxtF2ijCZeA1JEmSJC17oa+Hvt9/AklaroYePEbfPdsJSYIkSZKk5S+Fn0fSd2ijSHstAnNIkiRJWt5CoHxoF5Xje5Gk5Wz0i08Sa1UkSZIk5cJNYJY2irTRGOeuAG8iSZIkaVkL5SKD/+JzSNJyN/jgUXru3gghIEmSJGl5q8Mz+3juZdoo0n7zwDySJEmSlq3S7i1UTowjSctdUqsy+vsfJ8SAJEmSpOUrQBqgSZtF2u8GcAVJkiRJy1b///RpQk8FScqDkU88QGXTnUiSJElavgIsFqBBm0XaLCWdBqaQJEmStCwVt6yj56FjSFJeFEcGWfW7jyNJkiRp+QowG2GONou0303gOpIkSZKWpb7ff4Jk5TCSlCcrnjxNae0qJEmSJC1PASYDTNFmkTYLMAFcR5IkSdKyU7hzlNrH74MYkKQ8qWxZx/CjH0GSJEnSsnUT0mnaLNJ+E8A1JEmSJC07tSfvp7DuDggBScqTkERWff5RCgO9SJIkSVqW3olwjTaLtFmEGWAKSZIkSctKHOyj9htnCZUSkpQ7IVDbs42hs8eQJEmStByl1xLSCdos0n43gKtIkiRJWlZ6Hr+X0t0bIUYkKY9ipczK33mMWCkjSZIkaXlpEF6B9A3aLNJmY5ybA2aRJEmStGyEapneT50h9PYgSXkVCgm943fTf2IcSZIkSctLCjfGOX+TNot0QEr6NnAZSZIkSctC9fRhSnu2EAoFJCnPCsMDrPrco0iSJElaPiIsFmCBDoh0xhwwjyRJkqRlofbx+0hWDkNAknItlov0HdtL//FxJEmSJC0PAZoRmnRApAMCXAQuIUmSJKnrVY6PUz60m1ApIUm5FwKl0RGGHz+FJEmSpGXjaiS9SgdEOmMRWESSJElS16t94n4K60chBCRJkPT1MHj6MD3bNyFJkiRpWWgAdTog0gEpvAO8gyRJkqSuVto+RuXYOLG3B0nS3wmB8p2jDJ49iiRJkqTlIL0USC/RAZEOSGAGmEWSJElSV6t99iGKW9dDCEiS/l5x5TArnnyA0ugIkiRJkrpdmEwIN+mASGdcB24gSZIkqWsla1ZSObaXONyPJOkfCVAeW8vwx++DEJAkSZLU1S6WCBfogEgHjHHuJnADaCJJkiSp+4RA7ZOnKW4fQ5L07kp3rGDowWMUBvuQJEmS1L0acHEnz16gAyKdcx2YRJIkSVLXSUYGqd53gMKalUiS3l0oJPTs2MTg/YeQJEmS1J0CNBJo0CGRDklJbwCTSJIkSeo61TOHKe3cjCTp/ZU3rGHw7DGS3h4kSZIkdZ8Aiwks0CGRzrkJzCBJkiSpq8T+GtX7DlAYW4sk6f3FSom+AzvoPz6OJEmSpK40D8zQIZEOCXAVmECSJElSV6kcH6d8YAehkCBJ+vXKY2vpP7mfpFZFkiRJUncJMB1JJ+iQSOdMATNIkiRJ6hqxVqVy6gDF7WNIkm5NYbCP/uN7qe7YhCRJkqSuMxVggg6JdEiEy8B1JEmSJHWN0p6tVA7tJFTKSJJuXXX7JgZO7COWikiSJEnqKpcTuECHRDpnAphCkiRJUlcIpSLl4+OUxu9CkvTBlEZHGLj3Hiqb70SSJElS90jhHeACHRLpkDHOXQUmkCRJktQVilvXUzm+lzjYhyTpg6vt307fsb2EQoIkSZKk7tCEi/t47lU6JNJZE8AMkiRJkrItSSgf2U3l2F4kSR9Oac1K+o+NU1q7CkmSJEnZF6AZoUEHRTooJb0GTCNJkiQp0wrr76Bych/JqmEkSR9OSBL6j4/TO343kiRJkrIvQCOBOh0U6awJYAZJkiRJmVbes5XqqQNIkm5PZWwtA6fuobR6BZIkSZIybyHADB0U6aAAV4ApJEmSJGVWMjpC5cQ+CneOIkm6PaFUpP/Efqp3bUSSJElS5s0G0gk6KNJBKVwFJpEkSZKUWaWdm+l57CQkEUnS7evZuZn+4/soDPUhSZIkKdMmI1yhgyIdFOEKMIUkSZKkTIoDvZQP7aSweR2SpKURq2X6791PeeNaJEmSJGXa9QiX6KBIBwWYAuaQJEmSlEnFLevoeeIUoZAgSVo6Ayf20XdgB7FSRpIkSVJmTUea1+igSGddBG4gSZIkKXNirUr54E7K+7cjSVpasVph6OETlDesRpIkSVI2NeF14Fk6KNJBY5xrAE0kSZIkZU5y5yp6PnaKUCwgSVp6A/cfomf7JkIhQZIkSVImNcY5v0AHRTosJf0pcAVJkiRJmRHKJcr37KDn7FEkSa1RGOhl+NGTlFavQJIkSVK2RFgswQwdFum8OtBEkiRJUmYkq4boeewkhIAkqXWGHz9FZdOdEAOSJEmSMiUFGnRYpMMC/DVwFUmSJEmZEAoJxe2bqD1+CklSaxVXDjHy5AMUVwwhSZIkKVNuRtILdFik8xaABpIkSZIyIQ70Unv0JKGngiSp9YYePEb5zlGIAUmSJEmZ0QAW6LBI510AbiJJkiSp82KksHENvZ99CElSe1Tv3sjgg0dJaj1IkiRJyozrkfRVOizSYREmgQUkSZIkdVzsqVB78n7iikEkSe0z8sR9lEZHIAQkSZIkZcJ0QrhCh0U67x1gGkmSJEmdFQLJ6hXUPnUGSVJ79R3eTf/JfcRSEUmSJEmdl8K1IuElOizSYWOcuwlMAA0kSZIkdUwoJFQfPEJx63okSe236vOPUhjuR5IkSVIm3NzJsxfpsEg2XAZmkSRJktQxccUgfb/3BJKkzug7spfee3YQkgRJkiRJnROgmcAiGRDJgJT0GjCPJEmSpM4IgcpH9lPefzeSpM6IlRKjX/gYoVxEkiRJUucEqEeYIwMi2XAZmEWSJElSR4Rqmf5/+iSSpM4aOH2E3v3bIQQkSZIkdcxCgBtkQCQDAtwA5pEkSZLUEeV7tlM5vg9JUmcV+muM/s7jEAKSJEmSOmYxkE6SAZEMCHARmEGSJElSRwz8z58hlItIkjpv6NGPUN22HkmSJEkdczPCq2RAJAMCXAPmkSRJktR25fG7qJ45giQpG0p3jLDik2eQJEmS1DFzEd4hAyLZ8DowiSRJkqS26/3C48SBGpKk7Bj93ccprhxCkiRJUvulcBn4ARkQyYAxzk0Ci0iSJElqq9KOTdQevxdigiQpO8rrV7PiU2eQJEmS1H4pzO7jubfJgEh2XADmkCRJktQ2PU+cIhkdhoAkKUNCIWH0Cx8jqVWRJEmS1D4BmgkskhGRjEhJrwMLSJIkSWqLZNUwvb/5CKFSRpKUMSFQ2bqeoYdPIEmSJKmt0gQWyIhIdlwG5pEkSZLUFrVPn6GwdiWEgCQpe5JaD6O//3EkSZIktdUicJOMiGREgEvAPJIkSZJaLvRW6f30g8S+GpKkbAqFhN59dzH8yAkkSZIktc1CJL1CRkQyIoVLwBySJEmSWq722L0Ut6yDJCJJyq5koJeRT56BGJAkSZLUFrMB3iQjIhmRwFvAHJIkSZJaKpSK9H7mQeKKQSRJ2RYrZQZOHaDv0C4kSZIktcVMAq+REZHsmADqSJIkSWqpnoePU9qzlVAsIEnKvsLwAMOPnyIkEUmSJEktNxdoXiIjIhkxxrnXgRkkSZIktUyolKiePUpcOYQkqTsUBnoZ/uhHqGxehyRJkqTWSuH6OOefJiMi2TINNJAkSZLUEuX926kcHyf29iBJ6h6lNStY8YnThBiRJEmS1DJpgAYZEsmQlPRnwBySJEmSllwoFaiePUqydhWSpO5SGBpg4IHDlNauRJIkSVJrBGgWYZYMiWTLBFBHkiRJ0pIrbt1A9f6DJCMDSJK6S0gi1W3rGTp7HEmSJEkt0wgwRYZEMiTAK8AckiRJkpZWklB96BjFLeuQJHWn0ugKBs8epbhqGEmSJEktsRhIL5EhkWy5ATSQJEmStKQK6++gcnIfycphJEndKZQK1PZsY+DUASRJkiS1xCJwjQyJZMsFYB5JkiRJS6r6kf2Ud2+FJCJJ6l6ltasYOHWQwlA/kiRJkpbcfCR9hQyJZEiEq0AdSZIkSUumsGYllfsOkNy5CklSd0tqVfoO7qC2724kSZIkLbn5AuF1MiSSLReBBSRJkiQtmfKhnZTv2U4oFZEkdb/K1vUM3n+Q2FNBkiRJ0tJJYbpAeI4MiWTIGOemgWtAE0mSJEm3LRkZoHJyP8VNdyJJWh4KA330HxuntmsLkiRJkpZOgPmdPHuFDIlkTEp6AVhEkiRJ0m0rjd9F5fg4oaeCJGn56Nm9hf6T+wnFApIkSZJuX4BmAebJmEj2XAUaSJIkSbotoadC+egeirs2I0laXorDA/Qf20t1yzokSZIkLYk0wCwZE8mYAK8Ci0iSJEm6LaU9W6nef5BYqyJJWmZipPfQLnoP7UaSJEnSkqgH0otkTCR7ZoAmkiRJkj60UCxQ3nc35X13I0lankqrVzJ430Eqm9YiSZIk6balAebJmEjGBDgPzCNJkiTpQytu20D19GHiQC+SpOUpJJG+w7vo2bkFSZIkSbdtNoHvkTGRjAkwB6RIkiRJ+tCKd2+kcnwvhIAkafmqbF3PwKkDFFcNI0mSJOm2NAPMkDGR7PkZsIAkSZKkD6WwYTU9Z4+RrBpGkrS8hSSh79heqts2IEmSJOnDS+Em8CUyJpI9E0AdSZIkSR9cCJR2bKL60DEIAUnS8td/ZA8DJ/eT9PYgSZIk6UNL9/HcIhkTyZgxzvE3fgLUkSRJkvSBJCuHqNx7D4V1o0iS8mPw7DF6to8hSZIk6UNJCzBHBkUyKCW9DjSRJEmSdOtCoLhlHT2PnECSlC99h3dR23c3sVpGkiRJ0geWRpgjgyLZ9AbQRJIkSdIti309lI/sprR7C5KkfImVMkMPHae8fjWSJEmSPrAUuEoGRTIowEWggSRJkqRbEwKFsbX0fuZBpDxbfPNtpLwauO8gtd1bCMUCkiRJkm5dgEYkvUgGRbLpMtBEkiRJ0i0JlTLlfXdR2rMVKa/SuQXe+j//Fc25BaQ8Kgz2Mfz4KUqrVyJJkiTp1qXQiPAyGRTJoAgvAw0kSZIk3ZJkdIjaZx4kVMpIeTX37We48X9/lZvffgYprwbuvYfqtg2EQoIkSZKkW1aPpC+TQZFsugQ0kCRJkvRrhWKB0q4tVI7uRcqrdLHOzX/5JdKFOpf+5R+SLtaR8qi8fjWDDx6lMNiHJEmSpFtWD6QvkEGRDBrj3EWgiSRJkqRfKw730/c7jxEHepHyavFnP2fue8+TNhpMfu95Zn72c6S8Gn70JOUNqwkxIkmSJOmW1Mc5/ywZFMmuC0CKJEmSpPeWJBTv2kj1waNIeTb1B1+heWOSX6jfmOSdP/hTpLzq2b6JwdNHiLUKkiRJkn69BObJqEhGpaQ/B1IkSZIkvafYU6H3Mw8S+2tIeVW/cJnpL/8l6cIiv9BcWOTal59i4cJlpLxa8ZmzlEZHIAQkSZIkva80gTkyKpJdl4AUSZIkSe8uBJK1K6k9+QBSns1+/a9ovHUF0pS/laYsvHWF61//LlJe1XZupv/kfmKpiCRJkqT3F0jfIqMiGRXgTSBFkiRJ0rsKxQK1T58huWMEKa+aE1NMfekbpFOz/LLG1CxXvvR1GhNTSHkUSkVW/c5jxN4qkiRJkt5XGuAqGRXJqBReBppIkiRJeldxsI/+Lz6JlGdz3znH4gsvk9br/LK0Xmf6hZe5+Z1nkPKq79BuBu89QEgSJEmSJL2nZiB9mYyKZFSES0CKJEmSpF8VArUn76ewbhQpz6b/5Js0rt/k3dSv3+Tqn3wTKa9itczK33qEUCogSZIk6T2lkfAaGRXJqAAXgBRJkiRJ72rgn38WKc/mf/AC8997nnR2nnfTnJ1n8vvnmT7/ElJeDZ4+Qu/+7UiSJEl6T2mR8GMyKpJdrwMpkiRJkn5FzyMnKG7dgJRnM1/9DvU334Y05V2lKfOvv8W1//cvkPIq6a+x4rMPQQhIkiRJeleNCN8joyIZNca5BWAKSZIkSb9i8P/4PUgiUl41r00w960f0bwxxfup35hk4qkfUr82gZRXo59/jPLaVUiSJEn6VREaO3l2moyKZFhK+gKSJEmS/oHywZ2Ux7ch5dnM177L4stvQrPJ+2o2mXv5Da5/7TtIeZX01Rj94seRJEmS9KsKME2GRbLtKpIkSZL+gYH/7bcJlTJSXqWz88z82bdoXLjMrZi/cJlrf/YtmrPzSHk1+oUnSPprSJIkSfoVs2RYJMMCPIskSZKk/64wtobq6UOQRKS8mnv6eRZefJV0sc6tSBfrzLz4CpNPP4eUV6U7Rhj97UeRJEmS9A9F0r8mwyLZtoAkSZKk/yYEBv7F54i1HqS8SusNZr/6HeqvvMkHMffKm1z76ndI6w2kPArFAqu++CSxUkKSJEnSPzBPhkUyLMLTSJIkSfpbyeoV1B6/l1ApIeXV4ouvMPeDF2jenOaDaNycZuoH55l58RWkXAqB6uY7Wfnps0iSJEn6ewX4czIskm1zSJIkSfpbfb/7GHGoDym3milz33qG+ktv8GHMvfQGN7/1I2imSHkUK2VGPnGa2FNBkiRJ0n93hQyLZNuLSJIkSSIO91N74j5ibw0prxrvXGfuL39E/c23+TDm33ybib/8EQvvXEfKo1As0Hd4F/0n9yNJkiTpv5kifIkMi2RYkzAFTCJJkiTlXO8nTlNYvxpiQMqruW/9iPnn/prbMfPcz7j5rR8i5VXSX2PFJ04TyyUkSZKkvAvQDGRbJPteQpIkScqxZGSQ2qdOk4wMIOVVc3KauafPU3/tIrdj7rWLTD79PI3JaaQ8itUKgw8corZnK5IkSVLeJTBbINsiGZaSpinpZSRJkqQcq545THHbBigkSHm18OzPmH/6edLZeW5Hc3aeyafPM/3sz5DyqrhiiBWfOUsoFJAkSZLyLMJ0INsi2fdzJEmSpJyK/TV6PnqSZNUwUl6lC4vMP32ehfMvsxRmzr/E5NPPky4sIuVR0tvDwEfuobp1HZIkSVLOvR3ItkiGBSDAW0iSJEk5VT60i9K+uwjVMlJe1V+7xNz3z9O8fpOlUL9+k8nvn2futYtIuRQD5Y1rGH78FJIkSVKeRdLXA2lKhkUyLEAa4DUkSZKkHAo9VXoev5fC+tVIudVoMP+DF5h/+jxLaerp55n6wQukjQZSHhWG+hk8fZjKprVIkiRJeRXgJ5Fsi2RYAAK8jiRJkpRDpV2bqRzaSezrQcqrxjvXmf/+eepvXmYpzb95mcnvn2fxnetIeRQKCdW7NjL4wGEkSZKkvIqkryakKRkWybY0hVeQJEmSciaUivQ8fIzClvVIebbw41eZ+/Yz0GiwlNJGg4lvP8PMj19ByqviqmEGHzhMafUKJEmSpDxqwrchTcmwSIaNcY6UcB1JkiQpZwqb1lI+vJtkqB8pr5oTU8w//TwLL75KK8y++ArTz/yUxvQsUh7Fcome3VvpO7wbSZIkKY9miT8f5zxZFsm4lLSRkv4ESZIkKUeqpw9T3rsNYkDKq/prl5j79jnS2XlaoTk7z8RTP2D+lTeR8qoytpahs8dI+mpIkiRJeVKAmQKkZFwk+1LgBpIkSVJOFDauoXpiH8noCFJuNRos/Phl5r79DK008dQPmT7/EmmjgZRHsVqm98BO+g7vQpIkScqTAPVI9kUyLkAjwMtIkiRJOVE5tofSPdshiUh5VX/jbWa/8T2aN6dppcbNaW5+60csXLqClFfVuzYycN9BYrmEJEmSlBeR9JVI2iDjItmXAleQJEmSciBZMUjl+D4KG9cg5dniaxeZ/c/fpx2uf/XbzL38BlJeJb1V+g7tprZ7C5IkSVKOzNEFIhmXQiOFF5EkSZJyoHRgB+UjuwmFBCmvGtcmmHvqR9QvXKYd5t54m4lv/pD6tQmkXAqB3v1303diP5IkSVJ+pM8F0gYZF8m4BNII15AkSZKWudhXo3rqAOXxbUh51rj4DrPf+CtoNmmLZpMb3/guCxffQcqrwtAAg/cdpLZrC5IkSVIeRMKlhNAk4yLZ14TwOpIkSdIyV9q9hcqR3RAjUl6lcwssPPNT5r77LO1087vPMvXMT2jOLSDlUoDavrup3bMDQkCSJEla7hLCj0qEOhkXybgxzjVTuACkSJIkSctUqJapnBinfGQ3Up413rrC1L//czrhyr//BotvXUHKq/K6UQbvP0h5w2okSZKk5W4KfrSTZxtkXKQ7NIBrSJIkSctUcfM6ykf3EsolpNxqNqm//hazf/F9OmHiL77P3OtvkTabSHnVe2AHtT1bIQYkSZKk5SrCYgIpXSDSBVLSekr610iSJEnLUCgVKR/ZRfW+A0h51rg+ydQf/SfSmTk6oTEzx5U/+nPq1yeR8qpnx2YG7j1AcWQQSZIkablKYCaBlC4Q6Q4N4AqSJEnSMlTYtJaes8eJA71IuZWmNC6+w8wf/xc66dof/wULFy9DmiLl1cCpA9T2bIUQkCRJkpapm0CTLhDpAgHqAX6OJEmStMyEYoHSzs2Uj+xCyrN0boG5p35I/Y236aT5N97m5lM/pDm3gJRXPbu20HdoF4X+GpIkSdJyFEjfiqQNukCkOzSBa0iSJEnLTDI6TPWBQxTuHEXKs+b1m0z+wVfIgst/8KfUr99EyqtYKjJ45iiVzeuQJEmSlqMAbwdo0AUiXSDCYoCXkCRJkpaTJFLcuoHq/YeQcq3RYP6ZnzD/gxfIgskfvMDUMz8hbTSQ8qr34E56D+0iqVWRJEmSlpsAzyewQBeIdIcmhGtIkiRJy0gy2E/l/oMU79qAlGfp/CKT//ZPyZLL//bLpPMLSHmV9PYw/PBxSutGkSRJkpabFF4EFukCke5QT+ENJEmSpOUiBAob11B7/CNIuZamLLz4KrPf+B5ZcuMbf8XMi69CmiLlVd+RPdT2bCOWS0iSJEnLyTzhB/t4bp4uEOkCY5xLgWngCpIkSdIyEHurVI7vpbh9E1KupSnTX/oGzYkpsqQ+McU7X/o6aZoi5VVx1TCDZ45QWDmIJEmStFxEqEdI6RKRLpGSLgKXkCRJkpaBZOUQtU+dIRQLSHnWuDrB1H/4c7Loyn/4c+pXJ5DybOjscXq2bSAUEiRJkqTlIMJCAildItI96inpO0iSJEldLlTLVE7up3zPdqS8m/njb1J/7SJZNP/aRa798X9ByrPyulGGHj5BYbAPSZIkaTkIMBmgSZeIdIkAiwEuIEmSJHW52N9L7RMPEKplpLy7+a//H7LsrX/9H5HybuSJ+ymvuwNiQJIkSVoGrgTSRbpEpHvUgetIkiRJXSwUCpTv2U7l3v1IeTf71A9ZeOFlsmz6hZeZeOq/IuVZeWwNg6cPk/RUkSRJkrpdIH0zwiJdItIlAiwEeBVJkiSpi4VqmdrH7yP29yLl3eS/+iPSuQWyLJ1f4PL/9WdIeRaShJWf+yiFwT4kSZKkbhfg5QjzdIlIlwhQh3AVSZIkqVuFQGHTWmqfOoOUd/VXLjD71A+h2STL0kaTG1//LnOvXEDKs57tmxj+6ElipYQkSZLU5d6KNBfpEpHuMZ/CS0iSJEldKhQL9H3+UeJAL1LeTf67r9K8MUk3WLx6g3f+3VeQ8iwUC6z49FlitYIkSZLUzRYJ3wSm6BKRLjHGuRRYRJIkSepScWSA3s89gpR3zelZZr78TdL5BbpBc36Bq1/+Jo3pWaQ86z+5j/4T+whJRJIkSepWTZgd53yTLhHpIinpVEr6PJIkSVIX6vutR0hWDiPl3cyXv0n9tYvQTOkKzZT51y5y7cvfRMqzUCyw8jcfIhQLSJIkSd2oANMlaNBFIt0lBepIkiRJXSYUC/T/s89CQMq3RpPJf/OnNCam6Cb1iSku/5s/IW00kfJs5W88TM/2TUiSJEldqgGkdJFIFwkwE+BlJEmSpC7T93sfo7BuFCnv5p5+nsWf/RzqDbpJWm8w87PXmXz6eaS8W/3PPgsxIEmSJHWbSPpqJJ2li0S6Sx24gSRJktRFQrVM3z99Ein3Gg2m//DrNK9O0I3qV29w5Q+/RtpoIOXZik+cobx2FEmSJKkLzQMpXSTSXWYhvIokSZLURXrOHKG0YzNS3i2+coHZp35Ic2qGbtSYmmHiqR8y/8oFpDxL+nq44/efQJIkSepCP42k03SRSBeJsBjgBpIkSVKXCOUSvV98glAsIOXdzFf+ksbbV+lmC29f5epX/hIp71b+9qMUVw0jSZIkdZNAeCshzNNFIt1lIYVLSJIkSV2ifHAH1eP7IIlIeda4eoOZr32XxtUbdLP61Rtc/9p3WLx6AynPyneOsuo3H0aSJEnqJin8uEiYpotEusgY5xaBa0Cd/489+H7Suz4QPP/+fp7cUVkgooQQBklIAhQQSCRhsI3BaW/sSZ5wO3c/XN3+dv/HVm2oq9mt806Va8bLGHudsU2wMMJCQrQykhAoodjd6vT0k5/vUdWeasuMx4BSP9/v+/WSJEmSZrgom6X333+FqKeElHaVX26nefQUtNp0srjVpnr0JCO//A1SmkXZDHO/uoXs3H4kSZKkDhE34NhydlfoIIHOUwMGkSRJkma43Io7KG5cRZTLIqVZPFGh+vIOmueGSIL6uSFGX95Ba6KClFoh0L3yTmZt2YAkSZLUCQI0MtCmwwQ6TExciYnPIEmSJM1wPd94mswNcyGKkNKs9vY71HYeJC5XSIJ2ucLEzgOU3z6IlGahq8j8rz9FpruEJEmSNNMFqAZo0WECnacawTkkSZKkGSy39BZKjz1A6CoipVncbFF56U0ax06TJNVjpxl5aTtxs4WUVlEuS++Ge+l7aDWSJEnSTBfBSAR1Okygw0RQAy4iSZIkzWDdX3mC7JKbIQSkNGsePUltx37aI+MkSWtknPEd+6kePYmUZtn+XuZ943OEQg5JkiRpZovHIuImHSbQYSKoQHQaSZIkaYbK3rSA0mc3EPp7kNKu8upO6nuPQLtNksTtNpN7jzD66k6kNAvFPH0bVtK9+jNIkiRJM1kE7weYoMMEOkwEtQiGkCRJkmao0pMbyC27jSibQUqz1oWL1H6zj9aZIZKofmaI8d/soXHhIlJqRRH5RQuY97UtSJIkSTPcuQAVOkyg81RjOI8kSZI0A4W+Hro+/xCZhXOQ0q725n5qA4eIm02SKG42Ke87SnngEFKaZXpK9D3yAN2rliFJkiTNVC2iHcAQHSbQeWrAEJIkSdIMVHpyPfnVdxHlc0hpFpcrVF/bRePQMZKscvA9Rl/ZQbtcQUqtECjefiOzn9qIJEmSNFO14Mwa9lToMIEOs5iBGBgDziJJkiTNIFExT2nLerI3LUBKu/rB96nteoe4UiPJWuUK4zv3M3nwfaQ0y87pZ9aWDRQX34QkSZI00wRoZKBNBwp0oJi4BowiSZIkzSDFh1ZTWLucqFRASrva9r3Udu4nDcp7DjPx9jtIaRZlMhTvvJW+zfchSZIkzTQBGhlo0YECnWkyJh5EkiRJmkGKj9xPbuktEEVIadY4coLq67tpj0yQBo0LI4y+uoPKkRNIaVa4eSFzntlMdnYfkiRJ0gwzATToQIEOFMFkRHQeSZIkaYYo3Hc3xYdXE/q6kdKuvu8otZ0HII5JhXabiR37mdz3LlKaRdkM3SuWMuvxdUiSJEkzSUQ8HIgrdKBAZ2oAE0iSJEkzRNcXHqZw/z0QRUhp1h6fpP72OzTePUmaVN49Sfntd2iNTyKlWWHJzcx6cgOhq4gkSZI0g5yNoEwHCnSgAKMRHEOSJEmaAXLLbqVw/92Evm6ktKvt3M/kT34NcUyqxDHDP3mNiZ37kdIs5HP03H83fRtXIUmSJM0c0YkMjNGBAp2pHsM4kiRJ0vUWIkpPrKewbgVS2sXVGvV9R6nvP0oaTe4/Snnfu7SrNaQ0K929hP7H1xHls0iSJEkzQ3w+oj1JBwp0oMUMjAOnkCRJkq6zzMK5FNYuJ3PjPKS0ax47Q/W1XcTVOmnUrtYZe20X1WOnkdIs012i/6HV9D6wHEmSJGkmaBDtWs2+c3SgQOdqAFUkSZKk6yWKKG6+j+KmNUhpFzdb1AYOUfn5b0izkZ+/QXngEHGzhZRmpc8spnf9SqJ8DkmSJOl6iqAdQUyHCnSomPhiTHwCSZIk6ToJc/ooPngvuaW3IKVd6/ww1Td20x6dIM2aoxOMv7GbxvlhpDTLLZhD3+b7KS29BUmSJOl6ykA1Bw06VKBzNSKoIEmSJF0nhfs+Q3HzfUip127TPHKC6ss7EYy8vIPKkRPE7TZSmnWvvoueB5YTZTNIkiRJ11E1ggYdKtChIhiD6BySJEnSdRB6uyiuW0l+xVKktGuPlalu201937sIJve9y/i2AVpjZaQ0K96+iP5HHyC/aAGSJEnS9RMPRsRlOlSgc00Cw0iSJEnXQe6eOyh9dgNRLouUds0zg0y++AaadvHFbdTPXEBKu76Nq+i5/26iEJAkSZKukzGgSocKdK5x4DySJEnSNRaVihQeuIfCA/cgpV1cqVHfdZD6WwfRtIm3DjKx6yDtSg0pzYpLbqbvwVVk581CkiRJuk4+CMQjdKhAhwpQBUaRJEmSrrHc4kWUtqwj6ioipV1rcITy91+lPTGJprUmJhn+/qs0Bi8ipVmUy9L/+Dq67l6MJEmSdD1EROeyRON0qEDnmgAGkSRJkq6hKJclt+IOipvvQ0q9VpvmiTNUt+5CHzW69S1qJ84St9pIada1fAl9D68hO7sPSZIk6Vprw9Es0SAdKtChFjPQACaABpIkSdI1krlxHl2ffZDMnH6ktGuPl5n8wVZa54fRRzXODzPy8zdoT0wipVkoFpi1ZQPFxTchSZIkXUsRxG0YXs7uSTpUoIPFxKPAIJIkSdK1EAK5u26n65lNSKkXx7TODFJ+4SX0hw0+/3NqZwYhjpHSrOe+z9CzbgWZ7hKSJEnStRJBIwtNOligs5WBESRJkqRrIDOvn9KTG8gsnIuUdnG9QfWNPTSPnUZ/WOXICca3DdCuN5DSLNPXw6wn1pFbNB9JkiTpWomgHkGTDhboYBGMAOeRJEmSrrYQyC29lZ6vPYEkaI9PMvb3LxA3W+gPi5stzn/7x7QnKkhpN+uJ9XSvXEqUyyJJkiRdCxFcjIgn6GCBztYAqkiSJElXWejtorhpDdlbb0RKvVab2q6D1He9g/648Tf2MP7WAeJWGynNsrP7mPPMZvIL5yJJkiRdI/UImnSwQAeL4AJwEkmSJOkqyyyYQ+83vwiZgJR2caNB+flfEtcb6I9rV2oMPf8L4kYDKe1mf34TxSU3E4WAJEmSdA0cycBpOligg0XQAOpIkiRJV1HUVaT0xDpyy25DErSGxpj4x5+hj+/CP/6UxtAoUtrlF8xh9ucfJjO7F0mSJOkaqEVQp4MFOttF4AySJEnSVRT6e+j5889DJiClXhwz/t9eIC5X0MfXKlc4999egDhGSrUoYt7XnyY3fw6SJEnS1daEbcBBOligs1WBMpIkSdJVEmWzFB+4h+LGVUiCuNVm/Fs/RJ/c+W/9gLjVRkq74q03MP/fPUmmtxtJkiTpKmusYU+LDhboYIsZ4EMXgLNIkiRJV0HU20Xv330FoghJUP7eyzSPnUafXPXYaYa+9zJS6kURc7/8BNk5fUiSJElXS4BGFpp0uECHi4mrwCSSJEnSlRYi8iuX0vXMZiR9qNVi/D//T/TpnfnP/0TcaiGlXfeau5j15AZCIYckSZJ0NUTQDNCkwwU63yhwEUmSJOkKiwp5ev/yGSRNqR94n+r2vejTG9++l8qB95AE8/7kKTJ9PUiSJElXyQQwSYcLdLgIxoBRJEmSpCssu/gmer7+FJI+1Goz9l+fJ2600KcXN1qc+a/PE7faSGk3e8sGetcuJwoBSZIk6SoYDcTjdLhA5ysD40iSJElXWO+ff56ou4QkaJ46x+SPXoNWC316cavF8I+2Ujt1Dklww999jVAqIEmSJF1pEQwGGKbDBTpcgGFgEEmSJOkKyiycS+/ffglJU8rfe5nW8Ci6fI3hUYa+9xKSoP/JDXQtvwNJkiTpKrgQiIfpcIHONwGMIkmSJF1BPX/6NJn5s5EEreFRys//krhaQ5cvrtYYfP4XNIdHkdIu01Xkhn//FSRJkqQrrU18NiK+QIcLdLjFDIwBo0iSJElXSGZ2Hz1/8QWIIiRB9ZWdNA4fh1YbXb641aZ6+AQjr+xAEsz58uOU7rwVSZIk6UpqE51azb4zdLhAMowB40iSJElXQOnpjeTvXowkiBtNyv/8S9rjk+jKaY2XGfrnXxI3mkhpl5vTz4K//CKSJEnSlRJBKwNNEiCQADHxRWAESZIk6TKFvm56//ZLRLkckqC+6x2q2/cR1+roymnX6oxv38vEroNIqRdFzP3KExRuWYgkSZJ0JQRoZqBJAgSSYRyYQJIkSbpMhY2rKNz3GcgEJMHEd39Je2gEXXmNoRGGvvtLJEHxjpuZ/cxmJEmSpCtkIoJxEiCQABGMAGNIkiRJlyEq5un9y2eIuktIgsZ7p6i9vpv2RAVdee2JCmOvD1B97xRS2kW5LAv+7AtkZ/UiSZIkXQGTEfEkCRBIgBiGgWEkSZKky1BYt5LixlVEuRySoPLjX9N47xS02+jKi9ttqsdOM/LL7UhpF4VA14o7mP30Q0iSJEmXL74YEQ+RAIEECDAGjCNJkiRdhp5vPEVm/myIkFKvPTZB5aU3aQ+NoqunMTjCyIvbaI1NIKVdpqvE/D//AqFUQJIkSbo80UggukgCBBIggjFgHEmSJOlTKqxdTnHTGqJSAUlQ/dUu6u8cI2400dUT1xuU9x9l9FdvIaVdlMvSfe8y+jfdhyRJknSZLuSIzpEAgWS4CIwiSZIkfUpdz2wiu2gBRBGSYPLFN2iePIuuvtrJs1x88Q0kQW7+LOb96eeQJEmSLkcbTgU4QQIEEmAxAy1gEmggSZIkfUK5ZbdR2rKB0N+NJKjteof6wDvElRq6+tqVGuWBd5jYdRAp7UIhT9+Ge+l7eA2SJEnSpxFBHEF1ObvrJEAgIWLis8AQkiRJ0idUemId2dtvhBCQBJWfbaNx6DjEMboG4pjKoWNc/Nk2pNSLIvI3zGPOM5uRJEmSPo0IGlmokxCB5CgDVSRJkqRPIMybRddzj5K9YR6SoHVmkNrO/bSGRtG10xgaZWLnfupnBpHSLtPXzawt6+m6ZwmSJEnSp9AEGiREICEiOA0MIkmSJH0C3V/YRH7ZbRAiJEHlpTep730X4hhdQ3HM5N4jjLy0HSn1ooj8zQuZ9fRGiJAkSZI+kQhGAvEFEiKQHC2gjSRJkvQxhb5uSk89SOaWBUiC9kSFyis7aLx7El17lXdPMvrKDloTFaS0yy+cy9xnH6OwaAGSJEnSJ9QGWiREICECHAPOIEmSJH1MxUfuJ79yKVE2iySovbmX+v6j6PqZ3H+U8Tf3IgmKS25i9jObIYqQJEmSPoHjWXiHhAgkRwNoIUmSJH0MUalA15MbyN1xC5Igrjeobn2b+r6j6PqZ3PcuY1t30a43kNIuf+N8Zj2xntzcfiRJkqSPK4YqUCYhAslxDhhGkiRJ+hiKD95LYf1KolIBSVA/8B61N/cRlyvo+mmVK4y/uZfJA+8hpV2UzdC9Yin9jzyAJEmS9HG14fAa9uwiIQIJsZiBGjABNJAkSZL+DVGpQGHjKrJLb0bSh5ot6m8dpL73CLr+JvceofzWAeJmCyntCosX0b9lPZm+HiRJkqSPIY4gJkECyXIWGEOSJEn6N+Tvup3SpjVk5vQjCZpnBqlu203z1Hl0/dVOnWds227qZwaR0i4UC/SuW0Hfg/ciSZIk/TEBWlmokyCBBImJx4EqkiRJ0h8Q5bIUNt5LbvkdSJpSHzhEddtuNHOMbxugPPAOkqC45Gb6Hl5DpqcLSZIk6Y9oRlAjQQLJMghMIEmSJP0B2dtupPjIA2RvWoAkaI9OUNt5gObRU2jmqBw9xcTOAzRHJ5DSLjurl96NqyjdvRhJkiTpj6hEMEaCBBIkglFgEkmSJOlfkwkU1q+kuPYeJE2pH3iPyis7iRtNNHPEjSYjr+xg8sB7SILu5XfQ99BqQiGPJEmS9G+YiIiHSJBAgkQwBEwgSZIk/SuyNy2g9Mh9ZG+5AUkQV2vUdx+mPnAIzTzlgUOUdx+iXa0hpV1u4Vz6N99PccnNSJIkSf+G0QBnSZBAgkQwCEwgSZIk/Svy995JcdN9kM0gCZonz1Hduov2eBnNPK3xMmNbd1E7eQ5J0LN2Ob3rVxJlM0iSJEl/wHggvkCCBJLlAjCOJEmS9Hsy82dTfGg12cWLkPShVpv6/veovLwDzVxjv36byqFjxK02Utrlb5xH30Oryd+0AEmSJOlfE8O5iPgwCRJIkMUMlIEakiRJ0u/J3b2Y0pMbiAp5JEFrcITatt20zg2hmat++gJjv36b5uAIUtpFmQx9m++j+95lSJIkSf+aGMZXs2+QBAkkTEx8ChhDkiRJ+q3Q10Nx/Uryy5cgaUrz2AdM/vTXaGaLWy2Gf7yV6rEPkATFxTfR/9gD5G+chyRJkvS7ImhmoUbCBJJnAqgjSZIk/VZ2ySJKn91AVCwgCdpjE1Rf303j0HE081UOHWdi10Fa5QpS2kW5LP2b76d0561IkiRJvyuCOECLhAkkTARngQkkSZKkD0WFPPl7l1HcuApJU1pnh6j8/A3iRhPNfHGjyfAPt1I/fQFJ0LV8KX0PryE7qxdJkiTpd0wE4rMkTCB5RoEakiRJ0oeyt91I91efIOoqIgniRpPGwfepbN2FOsfoqzuoHHiPuNFESrtQzNP36AMUbrsRSZIk6Xe0gDoJE0iYGE4Co0iSJEmZDLmlN1PatAZJU9rDY0y+uI24UkOdo12pcfHF12kOjyIJ+jc/QM/99xCKeSRJkqTfGomIj5EwgYTJwDhQR5IkSamXvWEu3V/dQpjVi6QprfNDTHzn56jzXPjOi9TPDyMJQiHHnC9upnDrjUiSJEm/VckQDZMwgeS5AJSRJElSukWQWTSfrs8/DFGEJGiPTVD+7su0h8dQ52kOjzH43ZdojU0gCWZteZCuuxcTZTNIkiRJH7qYJzpKwgQSZjEDg8AkkiRJSrXMnH56/rfPkrlhLpKmtIfHmPz+K6hzDX//ZRrDY0iCTE+Juc89Sn7hXCRJkqQ2DC1n9xESJpBMY0AdSZIkpVMUkVk0n66vPYGkKXG9QXXbbmq7D6POVd59mPFtu4nrDSTB7C8+SmHJzUQhIEmSpPSKIA7QIoECCRQTHwcmkCRJUiqFriKlJx8kd/siJE1pj5UZ/x8/Qp3v/P/4Ac2xMpIgN28W8762heycPiRJkpReETSzUCGBAsk0AtSRJElS+kQQ5s+m58+eRtJvtds0jpyg+voA6nxjrw9QOXIc2m0kweynHyJ/yw0QApIkSUqtJjBJAgUSKIIzwCSSJElKnSiXpfjQagr33Y2kKXGjyfi3fkBcrqDO1ypXOP+tH9BuNJEEpWW3MfupB8l0FZEkSVJqVQPxBRIokExjQB1JkiSlTujroe//+CqSprXODlF+4WWUHEMvvETj7BCSpsz9yhPkFsyBKEKSJEmpVIvgIgkUSKAAJ4AykiRJSpcQKKxdTuGBe5A0rfy9V2gPjqDkaAyOMPS9l5E0pXftCvofuZ8ol0WSJEmpNJaBIyRQIJnGgDqSJElKlSiboe//+hOiUgFJU9rjZcb/+/dR8pz779+jNV5G0pQFf/Us2f4eJEmSlD4xjAPHSKBAMp0FKkiSJClV8iuXUnp8HZKmVX89QH3fuyh5yvveZezXbyNpSu/6lfSuX0kUApIkSUqXGC6uYc9eEiiQQIsZqAODQANJkiSlRv9/+FOiYh5J08b+339GyXXuWz9A0pRQyLPwf/8yZDNIkiQpVeIATRIqkFAx8TmghiRJklIht+Qmur64GUnTagOHqL66CyXX6Ks7mRh4B0lTZj2+jt51y5EkSVJ6RNDOQJ2ECiTXIFBHkiRJqdD7N18i9PcgaVr52z8lLldQcjWHx7jw7Z8gaUqmt5uF33wOSZIkpUorgjIJFUioCM4CVSRJkpR4YW4/3V9/CqIISVNapy8w+ePXiFstlFxxq8XFn/ya5sUxJE2Z/cxmSnfdjiRJklKjHhEPkVCB5LoINJEkSVLi9fzp58jeNB9J08ovvEzz5DmIY5RgcUztxFkGv/MikqbkF8xh3te2IEmSpNSoBThDQgUSKoKTQAVJkiQlWtRVpO9vvkRUyCNpSlypUX7hZdqVGkq+dqXGhf/5c9qVGpI+FCIW/NWz5ObPRpIkSakwGeAYCRVIqAiGgDqSJElKtO7nHiV7+40QRUiaUt2+l8bh49BqoeSLWy0qh48ztn0PkqYUbl7I/D95CkmSJKVCLdA+R0IFkusYMIkkSZISrfdvniP0dCFp2vjff4/W4AhKj+bgCOf+/gUkTQn5HPP/4hky3SUkSZKUbDFcBN4goQIJtZiBBhAjSZKkxCptWU/uM4shm0HSlPr+o9R2HSSu1VF6tGt1Jna9w+T+o0j6UAiUlt7CnC9sQpIkSYnXWs2+SRIqkGAx8R5gEkmSJCVS3//5VTILZiNp2uRPXqd94SJKn+aFYS7+5DUkTcn09bDgr59DkiRJyRVBKw8TJFgg2RpAjCRJkhKncP/d5FfeSZTPIWlK68wg5ed/QWtoFKVPY2iUC8//gvqZQSRBlM3Qveou5j77KJIkSUq0NgkWSLAIjgBVJEmSlCwh0PPXz5JZNB9J0yZ/9jqtM4MovRpnBrn4s9eRNCU7q5c5zz1GlM0gSZKkRKoG4qMkWCDZRoAmkiRJSpTs7Ysorl9J6OlC0pS4WqPy8+20Lgyj9GpcGGbk52/QrtaQBKFUoG/zGnrWrkCSJEmJFAN1EiyQYDEcBapIkiQpOUKg588+R/b2RUiaVnnpTWoDh4hrDZRe7VqDiYFDjLy0HUlTcvNmM+eLm4myGSRJkpQ4lYj4AAkWSLAMjAAtJEmSlBjZG+dRenwtmXmzkDQlbjapvrKT1unzSPXT5xl9ZSdxs4kkyM7qZfZTGyktvRVJkiQlTj1LdJYECyTbaaCOJEmSkiET6Hr2EXJ33IKkac0jJ6nu2E97rIzUGiszsWM/lSMnkDSlcMtC5nz5MaJMQJIkSYlSyRHtI8ECCbaYgWGgCsRIkiSp42UWzKX05Hqyi+Yh6bdabco/eo3GoeNI/6Jy6BgXf/QacauNJMjOmcWsR9eSv3khkiRJSpTKcna/R4IFku8c0EKSJEkdr7R5Dfl77oBMBklTWueGqO3cT2twBOlfNAZHGN+5n8a5ISRBlAmU7rqd2U9uQJIkSYkRB6iTcIGEi4mPAw0kSZLU0TJz+yk9uYHs4kVImlZ5fYD6niPQaiH9i7jVorznCGOvv42kKfkb59G/ZQP5G+YhSZKkzhdBnIEKCRdIvtNAE0mSJHW0wroV5O+7myifQ9KU9ug41VffovneB0i/r/beKUZffYvm6DiSIMrn6Fm1jL5Na5AkSVIitCIYIuECCRfBBaCFJEmSOlbo7aL4yP3k7rwFSdPq+45S33uEuN5A+n3teoPy3iNM7juKpCn5W26g/5EHyM7pR5IkSR2vFRFfJOECCRfBCaCJJEmSOlZ++VKK61cQerqQNCWu1qi+9jb1/e8h/SGT+48y/sZu4mYLSZDpLtGzdjndq5chSZKkjtcIcISECyRcBOeAJpIkSepIUalA8dH7ya++C0nTGkdPUX1jD+3hUaQ/pDk8yti23VTePYGkKaW7bmfWo2sJXUUkSZLU0RoBTpJwgeQ7DTSRJElSR8rdcTOFDSsJs3qRNK0+cJj67sNIf8zEroOU3zqIpCnZ/h76HlpN94qlSJIkqXPFUAFeI+ECyXcOaCFJkqSOE+WyFB5cRXH9SiRNa548R/W1XbQ+uID0x9Q/uMDY9r3Uzw4haUrXqmX0PbSaKJdFkiRJHauxhj3HSLhAwi1moAkcA1pIkiSpo2RuWkBxw0oyC2YjaVpj/1Gqb+whbjaR/pi42WTstV2U9xxG0pTc7H76Nq6itPQWJEmS1JHiDNRJgUAKxMQXgDaSJEnqKIX7PkPpiXUQApKmxJUqtT2HaRw6hvRxVQ6+R3ngEO1KFUkfChG9G1fR88ByJEmS1JkyUCMFAunwAdBGkiRJHSNz4zyKm+4je/NCJE1rHDpO9dVdxLUG0sfVrjUYe3UnlUPHkTQld8M8Zj2+juKSm5AkSVLHaQMjpEAgBSI4CbSRJElSx8jfvZjSlnWQCUiaEjeb1AYOU902gPRJjW0bYGLgEHGziSSIQqB3w7103b0ESZIkdZx2ID5HCgTSYQRoI0mSpI4Q+noorF9J/p4lSJrWOn2B6hu7aY9OIH1SzdEJxt/YTf30BSRNKS27jf5H15JbMAdJkiR1lHYE75MCgRQIsB9oIkmSpI6Qu+tWup7ZBCEg6bfimMbB96n89HWkT+viT3/N5MH3IY6R9KEQ0bf5PkrLbkOSJEkdpZmBg6RAIB2GgRhJkiTNeFF3icKDqyhuXIWkaa2hESpb36Z58hzSp1U7eY6xrbtoDI0gaUrvuhX0PbyGTG83kiRJ6hjtiPYpUiCQAosZOAy0kCRJ0oyXW7yI7mcfQdKlmsfPUnnpTaTLNfLSdmrHzyJp2uzPPURp2W0QIUmSpM5QX82+X5ACgfQoI0mSpBktKuTJ37uM4sZVSJoWV2rUdx+itn0v0uUa376X8u5DtCs1JE3pXbeCnjV3EYoFJEmSNPNF0CIlAikREw8AbSRJkjRjZRbOpfu5R4lKBSRNa35wnvILryBdKUMvvET9g/NImhKKBWZ/YTOFmxciSZKkmS8HE6REID0mkCRJ0owV5bLk71lM6cn1SJoWN1s03j1J9fUBpCtl7PUBKu+eIG62kDSl/9EH6Fp5J1E+hyRJkma0GBgnJQIpEcERIEaSJEkzUpjdR/fXthBm9yFpWnt4lMkfbqU9Mo50pTRHxhn+4Vaaw6NImpKd1cvcLz1GfsEcJEmSNKPFgfg4KRFIjw+AGEmSJM08mUDujpspbVmPpN/RjmmeOsfkj15DutKGf7SV2qlz0I6RNKX/0QcoLbuNKJtBkiRJM9ogKRFIj/eBGEmSJM04oatE1+cfJnvbjUiaFleqVLe+TfPEGaQrrXbiDGNbd9GqVJE0pXDLDcx6eiOZvh4kSZI0Y7UD8UFSIpASAc4BMZIkSZpZoojMonl0ffVxJP2OOKZ1/iIT//gzpKvlwj/+lNbIOJKmzX32UQq33gAhIEmSpBkpzhIdJSUC6XEciJEkSdKMEuVzdD39EPm7lyBpWtxsUXvrAPWBQ0hXS3ngEONvHSBuNJE0pXTX7cx+aiOZUgFJkiTNSHGW6E1SIpASixkYA6pIkiRpRgmze+n5y2eQdKl4ssrEP71IXG8gXS3teoPz//BDWpNVJE2b/42nyS2YA1GEJEmSZpYIWsvZ/QEpEUiRmPgokiRJmjlCoPTYWvIrlyLpd7Rj6gfeo/LSm0hX2+hLb1J77wOIYyRN6brnDvoffYAol0WSJEkzSwYqpEggXT5AkiRJM0aUCfT93VeIclkkTYubTcovvEx7ZBzpamuOjDP4/M+JG00kTYlyWRb+9ZcIxQKSJEmaWQJMkiKBFIngMJIkSZoxSk+sp7BhJZIu1R6dYOLbP0G6Vs5963/RHJ1A0rSetfcwe8t6CAFJkiTNHBHxSVIkkC7jSJIkacbo+atniIoFJF1q8se/pnVmEOlaqZ8ZZPjHryFpWigWmP8XzxBlApIkSZo5IpgkRQIpEsHbSJIkaUYorL6Lrqc3Iumjxv7Td5CutTP/6Z+QdKlZT26g5/57kCRJ0swRYCspEkiRCCaQJEnSjND99acIvd1IulTl1Z3U9xxGutbKew4z+upOJE3LdJeY/2efQ5IkSTNHBGOkSCBdDiJJkqTrLrNoPr3f/CKEgKRLTfzDj4kbTaRrLW40Of8PP0TSpRZ+81kKNy1AkiRJM0ML/j9SJJAibaIhJEmSdN31/9/fIMzuQ9KlWh+cp/zCS0jXy9ALL1H/4DySpoXuEjf83VeRJEnSzFAlmiRFAunSBvYiSZKk6ybM6af7uUeI8lkkXWr0vzxPPFlFul5ak1XO/JfvIGlaFAIL/uo5cnP6kSRJ0vWVhUqWdAmkSExMTHwRSZIkXTe9f/1FMosWQBQhaVpcrVN+/hfEzRbS9RI3Www+/wva1TqSpuXmz2b+n30OSZIkXV8BqoF0CaRLDBxHkiRJ10XUXaL72UcJ3UUkXWriOy/SOjcEcYx03cQx9XNDXPjOz5A0LRTyzP/LZ8n0lJAkSdJ1NQjEpEggRSKIIziFJEmSrovurzxO7jO3QyaDpGlxrU752z8lnqwiXW/tySoXvv0T2rU6kn4rRJSW3sK8rz2JJEmSrp+I+FQgJk0C6XMOSZIkXXOhu0T3V58gzOpF0qVqOw5Q33+UuNlCut7iZovJ/e8xseMAkqZluorMee4xMj1dSJIk6fqI4EiAmBQJpEiAOMBhJEmSdM0VH15D4d47ifI5JP2OVouJb/+E1sg40kzRHBnjwrd/RNxqIWlKlM/Ru3Y5fQ+vQZIkSddHgMMBYlIkkDIxnEaSJEnXVFTI0/WVxwgL5iDpUo33T1N59S3iySrSTNGerDLy6ltU3z+NpGnZ2X3M/crjhGIeSZIkXQ/xvoh2TIoEUmQxA3FMdAJJkiRdU/k1d1F8cBWhu4SkS5W/9wrtwYtIM01z8CLD33sZSdNCV5H+Rx6ge/VdSJIk6dqbJLy5mn0xKRJInzZwFkmSJF0TUTZL95cfI3vLQiRdqnV2kMqL22iNjCPNNM2RcS7+4g0aQyNImpZfOJd5X91ClMsiSZKkaydAPZA+gZSJidsx8TEkSZJ0TeTuvp3i+pWEvm4kXaryyk4a756EZgtppombLarvnmT01Z1Impbp7abv4TWUlt2GJEmSrp0MVLMQkzKB9GlHcB5JkiRdE6XPPkjurtshBCRNi8sVKj//Da3zw0gzVf3sIBd/tJV2uYKk3woRxSU3M+cLm5AkSdK1E8H5CNqkTCBlImgDp5AkSdJVl118E6WH1xDmzULSpWo7D1DbdZC4UkOaqdqVGuXdhynvOYykadk5/fQ/vo7S0luQJEnStRERD0bEMSkTSJkY2sD7SJIk6aorPb6W/OplRNkMki41+eIbNI+fQZrpqsdOM/zT15E0Lcpm6PrMYvofXYskSZKumeMRcZuUCaRMgHYEZ5AkSdJVlblhLsVNa8gsmo+kSzUOHaO2Yz/t8TLSTNccHWf8jd1UDh1D0rTcjfPof3wd+UXzkSRJ0tUX4P1A1CJlAikTQRs4gyRJkq6q4qb7KK5fSZTPIelSlV9sp3HwfWjHSDNeO6Zy5ASjW3chaVrI5+i+90561q5AkiRJV18geidL1CJlAunTjolOIEmSpKsm9HRR3LiK7JKbkHSp1uBFqr/ZS+vcEFKnqJ++wNivd9EYvIikacU7bmH2ZzeQ6e1GkiRJV1cddmSgScoEUmYxAzFQBSaRJEnSVVHYsJLiQ6uI8jkkXaq2bQ/1PYeJmy2kThE3mpTfPsT4tt1ImhaKeXrXrqB3/QokSZJ09UTQasH4cnbHpEwghWLiRkx8BEmSJF1xUT5H8eE15FctQ9Kl4lqD6ht7aBw9hdRpqkdPMvbGHtq1BpKmle5eTP/m+wmFPJIkSbo6MlDJQEwKBdKpBQwjSZKkKy6/ehnFh1YR5XNIulR9z2FqO/YTV6pInaZVqTKxYx+Tew4haVqmu4veDffSvXIpkiRJujoiqEYQk0KBFIqgEcE7SJIk6YorrF1OceMqJH1U9bW3qb11EGKkzhPDxFsHGXvtbST9jgh61i6nd+NqJEmSdHVExMcDcYMUCqRTDDSRJEnSFZW/Zwmlx9YSdRWRdKnG+6ep7TxAe2QcqVM1R8YZ33mA6vunkTQtO6uXWVvW033vnUiSJOmqaJBSgRQKUIvgLSRJknTlhEBh3XJKT6xD0u+JY2rb91J7cx9Spxt/cy/j2/dAHCNpWvfqz9C96i6iTECSJElXVoBXs1AhhQLpVUeSJElXTPbmBRQfXEWY1YukS7WGR6n9Zi+No6eQOl316CnGf7OX5vAokqYVbllI/+Nryd9yA5IkSbrixoA2KRRIp3pMdARJkiRdGSGQX7WM0lMPIumjGvuOUt2+FykpxrfvpbzvXSRdqnfdSrpXLCUKAUmSJF05VaL/tYY9ZVIokEKLGYiBCaCCJEmSLltmTh+F9SvJ3nYjki4VV2pUd+ynvusdpKQo7zrIxI79tCs1JE3rumcJ/Y/cT3ZuP5IkSboyImhHEJNSgfSqAceQJEnS5YkicncvoftLjyLpoxpHTlD91VvE9QZSUrTrDUZ/9RaVI8eRdKn+J9bTtWIpRBGSJEm6fBmoZSEmpQIpFRO3YuKLSJIk6bKE3i4K61eQX34Hki4VN5rU9x2ltvMgUtJM7DzA5L6jxI0mkqZ1Lb+D3nUryPZ1I0mSpMsXQSWCNikVSK96BB8gSZKky5K97Ua6v/wYkj6qdWaQ6ta3aJ0dREqa+tlBRre+Rf3MIJKmhXyO2U8/RGHxTUiSJOmKGIqgSUoFUiqCJnABSZIkfWpRqUDhvrspPHAPkn5PO6Zx+DiVV3YiJdXoKzuoHD4O7RhJ03oeWE7vuhVkuktIkiTp8kTEZyLiBikVSKkI6sAZJEmS9Kllb5xHz9efIsrnkHSp9ug4tTf30Xz/A6Skqr7/ARNvv0NzvIykaZmeEnO+sIn8ovlIkiTp8kTwfoAaKRVIqQgaEdFpJEmS9KlE+Rz5FUspblqDpI9qHj9L+UevETeaSEkVN5pc/NGvqB0/g6RL9T64iu5VdxEKeSRJknRZTgXiOikVSK96DKeQJEnSpxJm99L9754k6i4h6VJxtUZtz2HqA4eQkm58x37KA4doV2tImpabP5tZTz1Idm4/kiRJ+vTa8HZEPElKBVJqMQMtYARJkiR9YlE2Q/7uxZQ+9xCSPqp1bpjKT18nrtSQkq5dqTHy8nYaF0aQdKk5n99E6c5biTIZJEmS9Ok0iE6uZl+dlAqkWExcAY4hSZKkTyTqLtH1lSfIzO1H0u9ptmgcPk7lF79BSouLP32dyqFjxM0WkqblF81nzjObyfT3IEmSpE8uA9UstEmxQLo1Y+JRJEmS9PGFiOziRfT8yWeR9FHtsQkqL71Ja2gUKS0a54cZ+eVvaI1NIOlSc7+6hcJNCyCKkCRJ0icTQTNAmxQLpFgE1Qg+QJIkSR9blMvR9cxmMgvmIOmjWkOjlH/wK6S0Gf7Br2gMjSLpUoVbb2T20xvJdBWRJEnSJxPBUAQNUiyQbg1gGEmSJH1smfmz6PvbLyHpo+JyhcmfbaN55CRS2lSOnODiz16nVa4gaVqUCSz45rNkeruRJEnSJxWPRcRNUiyQYjFMQvQ+kiRJ+nhCoPTkg2RvvQFJH9Uen2Tyuy8RN5tIaRM3mwx995e0xstIulTprtuZ+9yjRPkckiRJ+kQOR8RlUiyQYhloRjCCJEmSPpYoE5j1/3wTQkDS72m3abx3iurru5HSauz13dTe+4C43UbStCibYd43niYU8kiSJOnjC3A+Q1QnxQLpVgPOIkmSpI+l6wubyN11G5I+qj1RYew//iNxs4mUVnGzyen/+G3aExUkXap/0330P3I/RBGSJEn6uKJDeaIyKRZIscUM1GI4C8RIkiTp35YJ9P2Hb0AU/f/swYmTneVh6Onf956l90UbQqwSCASIRQuIXYBYbGyDsRM7jid142QydyZzZ2qq5m+5SdWkpqZu9sSJ4zE2YMA2IFYjIQkkIQkkhNCubvXep8/6vRNzx8Siz+ludbdA3f17HiR9TozUTvZSeO51pIWu77nXKZ3sgRiR9DtC4JIfPEmSyyBJkqSpKcHutbw7zAIWUAUYRpIkSRNqvmMtzfeuQ9J4sZYy8qNfkg6PIi10teFRzv7oF8RaDUnnWvp7j9B207VIkiRpcgmkASILXGCBi8SRSDyCJEmSGkqyWTr+1++SZAKSxkuHRhj6r/+EpP/u5H/9J2pDo0gab8X//ockISBJkqSJZaCQhRoLXEBloB9JkiQ1lLtxFW1PPgAhIGm8seffpHayF0n/XflkL/3Pv4mk8ZY8tYWmq1cgSZKkSY0CVRa4wAKXQCGBE0iSJKm+TIb2P/oaSXMeSePFUpmRv/4pks515q9/QloqI+lcma52lv/Jk0iSJGliCbEnEIsscAFVIBlGkiRJdWWvupS2b28hyeeQNF55534KL76FpHP1v/gWozv3I+lcSQgs/d7j5FcsRZIkSRMaSKDMAhdY4AKMJnAESZIk1dX+ew+TuWQxJAmSxhv+659BRNLnRTj9108j6XMSaLriEpZ976tIkiSpsYTkQAYGWeACqgDDSJIkaZzMiqW0fecRQnsLksarfHScwnOvQ4xI+pwYGXjudUrHTiPpXEk+z+KntpBbtghJkiTVF+EMUGSBC6gQ4QSSJEkap/Ubm8muuhxCQNJ4o//4c2qnepFUX/nUWXr/+XkknSvJBNpuvpbuh+9EkiRJ9VVhTyTTzwIXWOBWsSsFhoFBJEmS9JnM8iW0PfUgoasDSeOlwwVGn36FWKkiqb60UqH3hy9QGy4g6VyZ9laWfvcxMu2tSJIk6VwJ1BIY3sDOKgtcQERiAehBkiRJn2nevIH8zatJ8lkkjTf28zeofHAE0oikBtLI2IefMPjyNiSdK8nn6LhjLZ33rUeSJEnnClDJQA0R0G8UI7EfSZIkfSp0tNL25ANkli1C0nixVGbk758ljo4haWK10THO/O3PSEtlJJ0ru6SLpd99jNCUR5IkSf8hgUICVURAJFBISHqQJEnSp5ruuY2m228kaWlC0njl9z6ktPtDYrWKpInFSoWRd/Yx+t6HSDpXaG6iY9PNtK+/AUmSJJ1jICEWEQH9RgkYRJIkSSRNedq+sZnMFcuRVN/w3z5D7XQfRCRNJkKlp4/ef30RSZ+TJDRdsZzF396CJEmS/kMCQ4GkhAiIBEaAE0iSJIn8ujU03X4Toa0FSeNVDh2j+NpOYqGIpKmpjRYZ/NU2ioeOIelcmY5WujZvpH3dGiRJkvSZw4E4iAiIBIoJDCBJkiRav3o3ueuvhiRB0nhjL/6a2oleiBFJU5SmlI+eYuDFN5H0OSHQvPJyuh+9C0mSJP1WPBWII4iAfmM4wjEkSZIWuPxt19N8/wZCdweSxotjJQpPv0ytdwBJ56fSO8DZp18mHSsh6VzZpd10PXwnzddcjiRJkqBKsgPiaURArGJXDaggSZK0wDXfexu5G1ZCSJA0XuGFN6l8cARqNSSdn1irMfbBJ/S/8AaSzpVkAi3XXUXnfRuQJEkSRBhbx54KIqBPRWIPcAhJkqQFKrfyMlq2bCK7YhmS6ht77g2qJ3uRND3lkz0MPPc6ksZrWnkZi79+P9lFnUiSJC1kGRjLQRl9KqDfSiOxhiRJ0gKV33Qz+ZuvhZAgabzSO+9T2rGPWCgiaXrSQpHhHfsYeed9JJ0rCYHWW66j++FNSJIkLWQJxAT9VkCfSqA/ITmKJEnSAhSWdNP62F3k1qxEUh0xUnh6K5VDR5E0M8VDR+l7+hWIEUnnall9Jd0P30mmvRVJkqQFrDfACPpUQL9VAkaQJElaaJKE5ntvpemOtUiqr3ail9K2vaR9Q0iamWrfEMPb9lA+0YOkcyW5LO0bb6TjrluQJElauOIoxBL6VECfitAPHEeSJGmBCR2tNN+zjtwNK5FUR4wUXniT8v6PkTQ7xvZ/TP8Lb0CMSDpXy03X0vXA7YTmPJIkSQvU4YR4Fn0qoE9loASMIEmStMDkb72e5ntvI8nnkDRe2j9M8ZV3qB09jaTZUTp6msFXdlDtH0bSuTJtLXTet5729TciSZK0ECUkfVmSUfSpgH5rBOhFkiRpAUlam2m++1by69Ygqb7SO+9T3nOIWK0iaXbEapXCnoMMv7MXSeO13nQN7ZtuJjTlkSRJWmgifJQj6UWfCuhTq9hVBAaAGpIkSQtE/oaVNG+5g9DeiqTxYqHI2MvvUPngCJJm19gHRxh6+R3SQhFJ58pdspiuzRtovvYKJEmSFpoqnFjLuwPoUwH9rlFgEEmSpAUgac6TX38DTevXIKm+8v6PKW3fSzo8iqTZVRseZXj7Xgr7P0bSeG0bb6J9400kuSySJEkLRQK1DNTQZwL6TCQOAr1IkiQtANmrVtDyyJ1kli9BUh21lNLbeyjvPoSkC6Ow+yAjb+8m1lIknav56hV0PXg7+cuWIUmStFAEKGaggj4T0O8aBvqRJEma55Jslvyt19G8eQOS6qseP03xjXepnexB0oVRPtnD8K93UznVi6TxOu9bT/u6NSSZgCRJ0gIxksAY+kxAn0mgAAwiSZI0z2VWLKHlkU1kL1uGpPpK7+yj9PZeJF1Yw9v2MrJjH5LGa77mcjruWUd2STeSJEkLQQIjCXEMfSagzyQwBJxFkiRpPguB3JqVtDx6N5LqS/uGKL29l+rHJ5B0YRUPHmXojXep9g0h6VxJNkv3I3fSsuZqJEmSFojTAfrRZwL6TAIjwACSJEnzWGZJFy0P3U72qkuRVF/5/UMUX91JLJWRdGGlpTLDb73H2IGPkTRe603X0nX/BrKLOpEkSVoAegIMos8E9LuGgX4kSZLmsczll9D6jc0k2QySxoulMuVdH1B+9wMkfTFGdx5gZOd+0lIZSecKzXm6H72bpqtXIEmSNN9FOAZJD/pMQL9rFBhEkiRpngqdbbQ8eDu5NVcjqb7q4ROMvbqTdKSApC9GdXCYwVe2Uzp8HEnjtW+8kY5NN5Npa0GSJGk+q8GxSOhFnwnoM6vYlQLDwCiSJEnzUGb5Etq+8whJUx5J9ZUPfExx6w4kfbGGtu5g7MARJI2X6Wij+9G7yC1fgiRJ0nyVQC0DxQ3srKLPBHSOSBwE+pEkSZpnkuYmmjatpWnDjUiqr3bqLMVXd1I704ekL1blTB+Dr+6gfKoXSeMteuxu2m5ZTZLLIkmSNB8FqGagis4R0OcNAv1IkiTNM2FRB23ffYykOY+k+ioHP2HsudchTZH0xYppSv9zr1E8eBRJ42U621n8zYfILVuEJEnSPDUGFNE5AjpHAgNAP5IkSfNJJkPu+qtpfexuJNUXR8co7/qAygdHkPTlGPvgCKO7DlAbHUPSeIuf2EzzystJQkCSJGkeGgrEEXSOgD6vCIwhSZI0j4TONjr/l98nac4jqb7qJ6co/GwrsVpD0pcjVmv0/WwrpU9OImm83JJuFj/5AJmudiRJkuabBMYCyRg6R0DnCHAGOIUkSdJ8kSRkL1tG6+P3Iqm+WK1R3v8xhRffQtKXq//FNxnb/zGxWkPS5yQJy/7o6+SWdiNJkjQPfRyIx9A5Avq8FKghSZI0TyTNeTr//PcJXe1Iqq92+iyFZ16FNCLpS5ZG+p7ZSuX0WSSN13T5JSz7/uNk2lqQJEmaTyJxICEdROcI6Byr2HUc+ARJkqR5InR30Pbth5HUQBqpHjlJ4elXkHRx6Hv6FYpHTkIakTTekm9tIbu4C0mSpPmkRrJvHXsOonMEVE8FqCBJkjTXhYTOP32KzIqlSKovHRym8Nzr1Hr6kXRxqPT00//ca1QHh5E0Xttta+j+yt0kuSySJEnzREwgonECGicSTwCnkCRJmuNCVzvtf/IEkhqIkdqZPsaeeQ1JF5f+Z16lcqYPYkTSeMv+8HEyHW1IkiTNBxko56CExgmonhJQQZIkaY5re+ohctdeiaT6YqlC8a09lHbuR9LFZWTnfobf2k1aqiBpvO4tm+i86xZIEiRJkuaBKlBF4wQ0TgK9wFkkSZLmsKSlic7/7XtIaiwdGmHk755B0sXpzN/9jNrQCJLqu/TPv0PI55AkSZoHhgMMoXECqmcUKCBJkjSHNT+wkfzN1yKpgVpK5cARiq/tQtLFaei1XRQOfEyspUgar3vLnbTdshpJkqR5YAjiIBonoHr6gUEkSZLmqCSfo+v/+D5JNouk+tJiieG/+RmxWELSxSktluj5x5+TFktIGi+0NrP8P/8ekiRJ80BPIJ5G4wQ0ToABYBBJkqQ5qun2m2i++1YICZLqiJHa8TMUfroVSRe3/mdepXyiB2JE0niLn3yQ1htWIUmSNMf1Z0nOonECqqcfGESSJGmO6vjP3yZpaUJSA2lK4adbqZ0+i6SLW+mTk/Q9/TIxTZE0Xm5JN8v+6OtIkiTNZRFOZEmOonECGmcVu4rACFBDkiRpjsmvvZaWBzaS5HJIqi8dGWPo//4xkuaGnr97htrIGJLGSzKBJd98kKarVyBJkjRXRRhay7uDaJyA6orEs8AgkiRJc0zH//gUmWWLIEFSA8Wt71DZ/zGS5obR9z9iaOs7SKojSWhadTmLv34/kiRJc1GAagYqqK6AGhkFikiSJM0huZWX0bLlDpLWZiQ1NviX/4KkuSOWK5z8yx8iqb7Q3MSy7z9OdlEnkiRJc1AlQAnVFVBdCZwC+pAkSZpD2r77KNkrl0OSIKm+0jvvU3ptF5LmlqHXd1LYdxhJ4yWZQOsN17Do8XuRJEmaaxIYSYgDqK6AGhkFSkiSJM0RYVEnLV+9l9DVgaTGRv7hedLCGJLmltroGGf+20+QVF+ms41lf/g4oaUJSZKkOaaSQBnVFVBdCRwDepAkSZoj2p56kNz1V0EmIKm+2pk+Rv/1F5BGJM0xaaTnn56ncqYPSeMluSxtt6yma/NGJEmS5piTGTiE6gqorgRKQAVJkqQ5IGlpou1bW8heugRJjRV+upVaTx+S5qZKTx99P30FSfXlLlnC0u99FUmSpDmmlMAYqiugRk4DfUiSJM0BLY/eRW7N1ZDJIKmxob/6N2KpjKS5KS2VOfVXP0JSfaE5T8edt9C1eQOSJElzRQpHI+EAqiugRkaBIpIkSXNA21MPkl15GZIaKzzzGtVDxyCNSJqj0kjx0DH6nnkVSXUkCfkVS1n01fuQJEmaKyIMQNKD6gqorlXsisBZYBRJkqSLWPPmDeRvu54kn0NSAzEy+sMXSEcKSJrbaiMFen/4AsSIpPGy3R10P3onrbesRpIk6WKXQC0L5Q3sjKiugBqKxF5gBEmSpItVJtD27YfJ37gKSY2V9x5ibOsOYqmMpLktLZUZ3PoOhb2HkFRf/orlLHrsbggJkiRJF7MEagEqqKGAJtILjCBJknSRyt+8mqbbriNpaUZSAzEy8g8/J+0bRNL8UO0bpOcfnoUYkTRe/tKlLHr8PpouX44kSdJFrggMo4YCaiiBs8AokiRJF6Ekm6X16/eRu2U1khqrnelj7OXtpCNjSJof0pExBl7eTvlMH5Lqa7nuKhY9fi+EBEmSpItYIRAHUEMBTWQIGEOSJOkilL32Cprvvo3Mkm4kNTb69CtUPz4BaYqk+SGmKaWPT9D39MtIqi9/2SV0PXQHuaWLkCRJulglUAgkA6ihgBoKcAYYRpIk6SKTZDO0PHg7+duuR1Jj6UiBws9eJe0dQNL8UukdoP9nr1IbKSBpvCSboe3W6+m6fz2SJEkXqwi9gXgYNRTQREaAEpIkSReZzGWX0PzABrJXLkdSY6U3d1P54AixUkXS/BIrVcY+/ISRbXuRVF/zNZfTtWUT2e4OJEmSLkYRBhLSY6ihgBpaxa4TwACSJEkXk0yg6c6baVq/BkmNxVKZwk9foXa8B0nzU/lkD/3PvkZaKiNpvNDcRMemW+jYdDOSJEkXowg969hzCDUU0GT6gSKSJEkXicySbprvW0d29ZVIaqxy4AjFbXtJh0eRND9VB4YZfG0nYweOIKm+5tVX0nHvOjIdrUiSJF1MEkgDVNGEAppQJJ4CRpAkSbpI5G+9juZ715Fks0hqrPDCm1QPn0DS/FY6cpLBl95GUn3Z7g4677mNlhtWIUmSdDFJoJaFMppQQJMZBEpIkiRdBEJ3B833rSe/9hokNVY9epriqzup9fQjaX6r9PYz9OoOSkdPIam+tluvp/Pu2whNeSRJki4ilQRG0YQCmlACPUABSZKki0DuhpU0P7iRpLkJSY0VX9tJZd9hSFMkzW+xUmX0vQ8Zem0nkurLXbKYrgc20nztFUiSJF1EiglxAE0ooAlF6AeKSJIkfcmS1maab7+JpvVrkNRYOjBM8bWdVI+dRtLCUDp2muE33yMtFJFUX/udt9B++1qSbAZJkqSLxEhCPIEmFNCEApwBRpEkSfqS5VZeRvOWOwid7UhqrLRjP6Xt+4hjJSQtDOlYieFtexnetgdJ9eUvXUrnfevIX34JkiRJF4mRQHIKTSigCSXQAxSQJEn6EiVNOfIbb6TlwduR1FisVCm+8S6VD44gaWEZ23+YoVd3EitVJI2XZAJdD95B69rVSJIkXSSGsiTH0IQCmswZoIAkSdKXKHPpUloe2EhY1ImkxqqHj1PedYB0aARJC0t1aISRXfspHj6OpPqaV15G98N3kF+xFEmSpC9bCn0ZOIAmFNCEVrGrAowCNSRJkr4MmQz5m66h9Wv3ImlixVd3UnzzPUgjkhaYNDL85nsMvboDSfUluSxdD9xB8zVXIEmS9GVLoLKWdwtoQgFNKhI/AUaQJEn6EmQWd9J8/3oyy5ciqbHaqV6Kb++lduoskhamyqmzDL+9l/KpXiTV13bLajrv30C2uwNJkqQvSwLVLIyhSQU0FRUgIkmS9CXIXr2C9j/8KoQESY2V9xyivHM/pCmSFqaYpozu3Edhz0Ek1Zfkc3RtuYP8FcuRJEn6EqUJFNGkAppUAu8DA0iSJH3BQlc7LQ/fSfbqFUhqLB0pUNy6g9KOfUha2EZ27GNo6w5qIwUk1df90CY6Nt5EaMojSZL0ZUigEIgn0aQCmooqkCJJkvQFy6xYStv3HoMkQVJjlX2HKb75HtRSJC1ssZYy9OZ7jO07jKT6kmyGJb/3ME1XXYokSdKXJAI1NKmAJhVgLzCAJEnSFyi0tdD66F00rVuDpAnUUsp7DlHa/j6S9Bsj2/cyuucgsZYiqb6uh++k5cZVJLkskiRJX4LeLLyNJhXQVFSBFEmSpC9QWNJF61MPImlilYNHKTz/BunAMJL0G9WBYfqff4PiwU+QVF+mtZmlT20ht3QRkiRJX7QINaCEJhXQVBwBRpEkSfqCJLksTXespWXLJiRNII1UPjhC6a3dSNLvGn7rPcY+OAJpRFJ9i554gOZrryDJBCRJkr5IEXojme1oUgFNahW7xoAxICJJkvQFCN0ddPzgCSRNLO0forRtL9UjJ5Gk31U6cpKRbXup9g8hqb7c0m6WfudRMl0dSJIkfZESKG5gZx+aVEBTdQooIUmSdKGFQO6ma2jZsglJE4iR8r7DjD79CpJUz9mnX6aw7yOIEUn1LXr8PpquXA4hQZIk6YuQQJqFEpqSgKYkEk8CRSRJki6wJJ+j4wdPkrQ2I6mxWChS3n2Qyv6PkaR6xvZ/zOjug9QKRSTV13LdVSz66r2E5iYkSZK+ILUEimhKApqqk0AJSZKkCyy35mrantyMpIlVj5+h8NxrxFIZSaonLZUZePFNyid7kNTY0u88Sm7ZIkgSJEmSvgCVBPrQlAQ0JQmcBcpIkiRdSElCxx8/QVjchaTGYrlCec8hii9vR5ImMrh1B4U9h4jlCpLqa994E91bNpFkM0iSJH0BKoHYj6YkoClJ4BRQRpIk6QLKXnkprd96CEkTS/uHGHtpG+lwAUmaSPXsAIO//DWV/iEkNbb8T58i09GKJEnSF6AYSI6iKQloShI4C5SRJEm6gNqeepDcysuQNIFaSuXQMcaefR1Jmoq+Z1+jfOw0xIik+trvWEvnPesgSZAkSbrACgnpITQlAU3VCaCEJEnSBRK6O2j/wRNImlg6WqD48nYqHx1Dkqai+NExBl7aRm2kgKT6QlOeS//n34cESZKkC204Ie5GUxLQlKxiVw9QRpIk6QJp/cb95Ndei6SJpX1DjP7kFSTpfJz9lxepnh1EUmNdD95O5123IkmSdCFFKK5jzzE0JQFNWSQeBkpIkiTNsqSliY4/+SZJNoOkxmK5QnHb+5R3f4gknY/R3R8yvG0vabmCpPoy7a1c8sdPIkmSdKEkkGZhDE1ZQOejH6ghSZI0y1oeuJ38bddDCEhqLB0eZfQfnyOOlZCk85GOlej5x+eoDY8iqbHF39hM642rkCRJukBigCqasoCmLIFjQBlJkqRZ1vEnTxI625A0gTRSPXKKsV+8jSRNx8Avfk3pyClII5Lqyy1bxJLfewRJkqQLpJpAL5qygM5HL1BBkiRpFrU8sJGmu28hyWaR1FgslRn95xdIh0eRpOmoDY/S+88/Jy2VkVRfks1wyX96gvwli5EkSboAaglxEE1ZQFMW4RRQQZIkaRa1fushMou7IEHSBGpnBxj++2eRpJno+ftnqZwdQFIDSUL+smUs/d5XkCRJugCKCXE/mrKApiwDJ4AKkiRJsyR/82paH7ubpLUZSRNIU8aef5PaiR4kaSZKJ3rof/4NYpoiqb7Q0sSy73+NTHsrkiRJs6ySITmNpiyg83ECKCNJkjRL2v7gUTIrlkKSIKmxWEsZ+st/gRiRpBmJkVN/+UOopUiqLwmB5muuYPHX70eSJGmWjeVI9qEpC+h8HAfKSJIkzYLM5ZfQ+vh9hO4OJE1s7KXtlHbsQ5Jmw8iOfQy8tA1JjWUXdXLJD75JkglIkiTNlgiFBHaiKQtoylaxi383CKRIkiTNRJLQ8Z++TvbqFUiaRIyM/LenkaTZdOa//QRiRFJ9STZD2y2rWfzEA0iSJM2WBNK1vIumLqDzEokfAhUkSZJmILO0m+bNG8ks6kDSxKrHzzD6r79AkmZT77/+gtLxM0hqLLuok8Xf2EySzyFJkjRTCaQ5GEbnJaDzVQBSJEmSZqD1ic3kb1oFmQySJjb0Fz8k1lIkaVbVUk7+xT8jqbHQ2kznvevouGMtkiRJsyAFRtB5Cei8JLAXKCNJkjRNobONloduJ7N8CZImlg4MM/rjlyCmSNJsijGl78e/ojowjKTGcsuXsOhr95PkskiSJM1QLRBPoPMS0PkaBFIkSZKmqeWhO8hvuJGkKY+kiY3++FdUj56CiCTNrgjFo6fo++krSGosu6iTRY/eScv1VyNJkjRDtQT60HkJ6LwEOACUkSRJmobQ3krzI3eSvXoFkiYWiyVG/v45YqmMJF0IsVyh94cvkBZLSGqs6erLWPzEZpJMBkmSpBkoZWAnOi8Bna9BIEWSJGka8utvoPn2mwhtLUiaWGnb+5Tf+xBqKZJ0IcRqjeFf72Zk214kNZZd0k3X5o00XbUcSZKk6YpQA06i8xLQ+foEqCJJknSekqY8LVtuJ7fmaiRNLFaqDP/tM6TDBSTpQqoNFzjzd88gqbEkE2i96Rq6t9yJJEnSDBQjmW3ovAR0XlaxqwgMARFJkqTzkLtpFc33rics6kTSxCoHP6H42k5iqYwkXUhpqczQazsZO3QUSY3lV1xC18ObyF+2DEmSpOkIUN7AzkF0XgKajqNAiiRJ0lRlM7Tcv4H8rdchaXKFn7xC7dRZiBFJuqBipHyyl95/eRFJjSX5LG3rbqDzntuQJEmahpiBEjpvAZ23SPwEqCFJkjRFuWuuoOne28gs7UbSxKonehj7+RvEoVEk6YtQGxpl4IU3qfQOIKmx5qtX0PXA7eSWdCNJknSeYgLD6LwFdN4SOAqkSJIkTVHT7TfSvOlmyAQkTaz48nYqh44RazUk6YsQazWKh44y+Ku3kdRYaG2m/fabaL31OiRJks5TmhDPoPMW0HT0AimSJElTkL3iEprv30Dm8kuQNLFYqlD46VZqPf1I0hepcrqPsz/+FWmpgqTGWm+6lq4HNpJpbUaSJOk8xEDSi85bQOctgUNAiiRJ0hQ03bGWlkfuJMllkTSx0o73Ke89RCyVkaQvUloqU9h7iJEd7yOpsUxnG533raf15tVIkiSdh2og7kHnLaDzlsAwEJEkSZpEZkkXTZtuJrvyMiRNrvD0VqqfnEKSvgylT07R9/TLSJpY+/ob6LjrVpJcFkmSpClKA/EwOm8BTcduoIokSdIkcrdcR8tjd5FkM0iaWHnfYYpvvkc6PIokfRmqwyMMv7mbwr7DSGosu6iTzvvW0bL6SiRJkqaoDPGX6LwFdN5WsWsUiEiSJE0gaWmmad315G+5DkmTK27dQfWj45BGJOlLkUaKHx1jaOt2JE0gSei8bwNt629AkiRpiuI69gyi8xbQtETiNiAiSZLUQP7GlbQ+8QBJLoukiaX9wxR/tY3q8TNI0pepfPwMA7/aRrV/GEmN5ZcvofuRu2hedTmSJEmTycEwmpaApquCJElSA0k2S/6W62h5YCOSJjf20jbKew5CmiJJX6aYphT2HGTwpbeRNIGQ0HnPbbSsWYkkSdJkEkjRtAQ0LQm8B0QkSZLqyF57Oa3ffAAyAUmTSFOKW3dQOXgUSboYjB08yuDWd4hpiqTGWtaspPuRO8ktX4IkSdIEYoAjaFoCmq5+ICJJkvR5IZC77mpav3IPkiZXfGs3pR37iOUKknQxiOUKIzv2MfzWbiRNrHPzRlpWXwlJgiRJUgMRYj+aloCmJcIRICJJkvQ52cuW0vbNB0ham5E0iVqN4tYdlPccQpIuJoU9hxja+g6xVkNSYx13rKXz3nVkOlqRJElqICbEd9C0BDQtGTiCJEnS54VA7rqraPv2FiRNrnrkFKUd+0j7h5Cki0m1f4iRHfsoHTmJpIkt/vpmWq69EpIESZKkerIkx9C0BDRdR4CIJEnS7wjdHbQ8chdhcReSJpFGim/sorR9H5J0MRrZ/j5Db+yCNCKpsfZNa2lbfwOhuQlJkqQ60hzJdjQtAU3LKnadBipIkiT9VpKQvepS2v7gMSRNrtY/RPGt3VQPH0eSLkbFw8cZfms3lf5BJDUWmptY8uQD5C9biiRJUh1xLe/uRdMS0EycRJIk6f+XtDbTvHkDuWuvQNLkyrsOUHp7L5J0MRt5ew+juw4gaWKdD95B263Xk+RzSJIk/a4MVNC0BTRtkXgESZKk30ggs3wxnX/6TSRNLh0pUHxrN+W9h5Cki9no3kOMbH+ftFBEUmPZrnaWfGsLuaXdSJIk/a4MDKNpC2gmTiBJkvTvklyO5ntuI3/b9UiaXOXgUUpvvEssFJGki1laKDL85nuMHTqGpIl1P3QHLWtWkmQzSJIk/VYCPWjaApq2BA4hSZL075L2Fjr/7FtImlysVCm/+yGld/YhSXPB0FvvMbpjH7FSRVJj+SuWs+jxe8m0tyJJkvRbCbEHTVtA05bAESRJkjKBptvX0nT3rUiaXO34GYqv7qB2+iySNBdUTp9l6K13KZ/qRdLElnxrC01XXgohQZIk6TcSOICmLaBpS+AokiRpwUvyObr+y3dJ8jkkTa7ywRGKL21HkuaSwV9tY+zAESRNrGX1VSz62n2EpiYkSZJ+I8CHaNoCmomjSJKkBa9pw420PLwJSZNL+wYpvrWbyicnkaS5pPjRMYbe2EW1bxBJE1v2R18nt7QbEiRJkv5dsgtNW0DTFkmOI0mSFryOP/sWSVsLkiZXPXKKsV++DdUakjSXxGqNgV/+muKRk0iaWOualXQ/cidJJoMkSVKVZCeatoCmLUIZ6EGSJC1YuVWX0/bNB5A0uThWovTuAco79iNJc9Hojv2MvvsB6VgJSY0luSzL/6dvk+RzSJKkhS0D5SqxgKYtoGmLxBiJnyBJkhas9j/+BmFRJ5ImVz3ZQ+HZ10lHCkjSXFQbKdD/7KuUT/YgaWLtG25k8VfvRZIkLWwBShk0EwHNRASOIEmSFqTMpUvo+LNvIWkKainVwycovrIdSZrLBl/ZTvHwcWItRVJjoSnPJX/8JCRIkqSFrR/NSEDTlkBM4AiSJGlBanvqITLLFiFpcrW+QQrPv0GtdwBJmssqvQMMPP8G1b5BJE2s+9G7aL99LZIkaeEKxJOBGNG0BTRTfUiSpAUntLfS+effIcllkTS52qmzjP7wRUgjkjSnpZHeH75I5VQvkiYWWppY9kdfQ5IkLVyBpC+QoOkLaNoCxAT2IEmSFpyWR+4ke9WlkCRImlgsFCm+9R7VT04hSfNB8ZOTDL21m7RQRNLELv3BN2m6YjmSJGlhSohvBmKKpi2gmaogSZIWlkyGrv/zfyB0tCFpcrWefkb+5hmIEUmaF2LkzN/8lEpPP5ImFlqaWfFf/gCSBEmStBDFTxLSiKYtoGlbxa40kryFJElaUFq/cje566+GTEDSxGKlSnn3QYqv7USS5pOh13YyuvsgsVJFUmNJNsPS7z5GbtkiJEnSwlMg/Gwde1I0bQHNVASKSJKkBSHJZWn//lcJXR1ImlwcGWPkhy8gSfNR7w+fpzZSQNIEkoTcJYtZ9r2vIkmSFpYE0gTNVEAzEonVSHwXSZK0IOTXraHprltJmvNImkSMVI+fZvTffoUkzUdn/+2XlI6fgRiR1FhobWbZ9x8n29WOJElaOLIwkoOIZiSgmYrAKJIkad5L8jna//ArZJYtQtLkYqnCyD/8nDg6hiTNR7XRMXr+4VnSUhlJjSUh0LL6SpZ8+2EkSdLCkUAJiGhGApqRBGoJHESSJM17ueuuouXhOwmdbUiaXHp2gMKPX0KS5rOzP36J2uAokiaW6Whj8RMPkOlsR5IkLQwJnAiQohkJaKYicBZJkjS/ZTO0PrGZzIqlSJqCNFJ48S3K+w8jSfPZ2P7DDL68DWJEUmNJPkf7xpvovG8dkiRpoYgnIaZoRgKaqRpwFEmSNK9lL7+ElkfvIrOkC0mTi6Uyw//PT5CkheDkX/wTabGEpIlll3Sx5JsPEVqakCRJ818C+wKximYkoBkJkCbwCZIkaV5rfexucquvhBCQNLnSjn2Utr2PJC0Ew9veZ3TvISRNLNPWQuf962lffwOSJGn+C/BxliRFMxLQTNUgOYokSZq3slcup+Vr95JZsRRJUzP0f/2IWCwhSQtBWixx+q9+hKTJ5S9bxuKnHiLJZZEkSfNbSrI9S1JBMxLQjKxiV4wwAJSQJEnzUvPmDeRvXk2SyyJpctUjJxn7+RtI0kJy9v99idKRk0iaWLajnc571tF6w0okSdL8VoLja3k3RTMS0IxFYhU4hiRJmncyyxbR8uDtZC+/BElTM/LPL1DrH0KSFpJq/xBnn34ZSZMICS3XXcWix+9DkiTNXxkoZiCiGQtoNtQisR9JkjTv5DfcQH7DjSQtTUiaXNo/xMjfPwu1FElaSGIt5cxf/5Rq/xCSJpZd0kXXg3fQct1VSJKk+SlAIUCKZiygGUugksBBJEnSvJK0tdCyZRO5669C0tSM/fJtqh8dhxiRpAUlRsYOfMzAL3+NpIklmQytN66ic/NGJEnS/JQQTyXEGpqxgGZDCvQjSZLmlaZ1a2i++1ZCeyuSpmbkn54nFstI0kKUFsv0/tPzSJpc/rJldD90B/nLliFJkualQgIpmrGAZiyBcgL7kCRJ80aSz9F8/3ryt6xG0tQUX91J6e09xFoVSVqIYq3K8Nt7GHx1B5ImluRztN56He13rEWSJM0/Ad7JQAnNWEAzlkAKDCNJkuaN3Jqrab77VkJXO5KmZvRHv6R2dhAikrQwRaicHeDsj36JpMm1XL+SRY/cRaazDUmSNO8MJJCiGQtoNlQg+QhJkjRvNG26maa7boEkQdLkaj39jL20jThWQpIWsnSsxOBL26j09CNpYqEpR/umm+m442YkSdL8UiN5IxLG0IwFNBtqEfqQJEnzQu66q2h5eBOZZYuQNDUjf/MzqsfOQIxI0oIWI6VjpznzNz9F0uRab15N5/3rCU15JEnS/FGFjyGpoBkLaMZWsYt/VwZOIUmS5rz8zdfStGktJAmSJhdHxyj8/A3SwREkSVAbHKH/569TGx1D0sQyrc103n0bbbesRpIkzQ8ZKGWguoGdaOYCmhWRWI7E40iSpDkte9kyWh65k9y1VyJpasZe3k7lo2NQqyFJglirUfzoGIMvb0fS5NrvuoWOe9aRhIAkSZr7ApQDpGhWBDRbKsAJJEnS3JUk5G5cRdPdtyFpamK1yvDfPkvt2BkkSf+hfOwMPX/7M2K1iqSJZTvb6X54E61rr0WSJM0L/UANzYqAZkUC5QROIUmS5qzQ1U7zfetpWr8GSVNT3nmAyv7DxHIFSdJ/SMsVCvs/ZmTnASRNrm3DjbTdej1JNoMkSZrbEmJPIFbQrAhotlSBPiRJ0tyUJORuWEnLV+5G0tTEao2x59+kdqIHSdJ45RNnGHjhTWKaImliTVcsp2vLHeSvWI4kSZrbEpKeQFJFsyKgWRGgnJB8giRJmpOS1maaNt5E04YbkDQ11SMnKfzi19R6+pEkjVfp6WfwpW2UT/YiaXIdd99K69prSTIBSZI0l8XdgVhAsyKg2VIDBpEkSXNS7qpLaf3afSRNeSRNTfHl7VQ/PoEkqbGxg0cZ+PnrSJpc643X0L15I9kl3UiSpLkrwqGEtIhmRUCzYhW7ihEOIUmS5pykOU9+/Q0037cOSVNTOzvA2NYd1E71IklqrHKqh6HXdlIdGEbS5LofvYvWG1ZBSJAkSXNTmeTddewpoFkR0GwqA31IkqQ5JbNiGW3f3kLobEPS1JRef5fyjv3EUgVJUmNpqcLIrgMMv/UekibXsvZaOu68hWxHG5Ikae4JUAmQolkT0KyJxGIkHkOSJM0ZSS5L/qZraH5wI5KmJpbKFN98j+qRk0iSJlc8dIzBV94hLZWRNLGQz7Ho6/fTdPUKJEnS3BOglIUUzZqAZlMlgX4kSdKcERZ10vqN+8ks6UbS1JT3HqL09l7S4VEkSZOrDY8yumMfYwc+RtLk2m+/iY47byXT1oIkSZpbEhhJoIZmTUCzJoEicBJJkjQ3hEB21WW0fuN+JE1NrNYovrKD8p6DSJKmbnT3hwy98g6xWkPSxDJtLSx+YjO5S5cgSZLmnP6EWEazJqBZE6ECnEWSJM0JoaOVtqceInvFciRNTe3EGUo79lM7O4AkaeoqZ/oYfnsP5RNnkDS5zntuo+22NYSmPP8fe/DdbOd9GPj9+/s9z+nnNtx70dsFCBCd6L0QBEiAVRKpQluSpd2xE68nZfYF7AvIC0j+SDKTTZnMxN7seD32JBvb62itSCNLWoIqpCRTIsUGEv0CuL08sb1rW5Yp8l7glOec8/18JElSJ8neBqZRw0TUMBFmIFxFkiTlXwgkq4apvXQBSUs3853Xmf3ua7CwiCRp6bKFRe599zXuf+c1JH2ydHiQoadPkQz2IUmSOkeAdxOYQg0TUcMEmA7wAZIkKfdCqUj1uTOkY+uQtDQLN8eZ/sarzP3sPSRJyzfzs/e4+41Xmbs5jqRPtuL5c1S2bSQkEUmS1BkC4a2UMIUaJqJGmsngKpIkKfdCtUzfF58hpAmSlmbuR28y8+0fks3MIklavsWZWe5/+4dM/ehNJH2y4qphhj99nqSvhiRJ6gzz8IME7qGGiahhxriyCEwB00iSpPxKEqqXT1LYsxVJS5PNzTPz3deZ+e7rSJIe3P3vvsb9775GNjePpE828rknKa4ZhRCQJEn5FiBbhPu7eXUeNUxEDZWR3QfeQZIk5VYopPT99kuEYgFJSzP3k7eZ/tp3ySamkCQ9uIWJKca/9l2mfvJzJH2y4vpVrHjuDLFcRJIk5VuE6RTmUUNF1GiLGdkskiQpt8rH91I+thdJSzf3+ptMf/N7SJIe3r1vvsrk628i6ZOFGFn5Tz9DUq0gSZLyLcBMgAXUUBE1VIA7AV5HkiTlVt/vfI5QLCBpaeavXmf666+w8MFNJEkPb/aDm9z9+ivMXr2OpE9W2b6Rkc9eJKQJkiQpvwLZ1Ug2hRoqokbLgHkkSVIupZvWUH/xCSQt3dzrbzH1b78JWYYkqQGyjNv/9htMvv4mkj5ZiJHRLz1LKBSQJEm5tgBkqKEiaqgItwPhh0iSpPwJgaF/8VuQJEhammxiitkrP2b2R28iSWqcqR+9ycSVH7MwMYWkT9Z/+gCDTx5DkiTlVyD8RQrXUUNF1GgZMI8kScqdZPUI1WdOI2np5t54h8k/+jqSpMa7/Ud/zvQbbyNpaVZ+9QVCkiBJknJrFlhADRVRo93P4OdIkqTc6f/tl4jDA0hammxmltnvv8H0N19FktR4d7/5KhPff4PFmVkkfbKRTz9Bdc9WJElSPs3DtzOSG6ihImqoMa7MAxPAPJIkKTfiUD+1T58nFFIkLc3Ch7eY+tNvkU3NIElqvMWpGe786beY+/AWkpYgBNb+Fy8TkogkScqXAFkGNw/yygxqqBQ1wyRwHViDJEnKhb4vPUs6tg5CQNISZBkLN24z9+Ofk25ei9QpiixSRuocUz/+OXM3blPasApCQNLHW/HC45T/m3/J1BtvI0mS8iPCbIBF1HApariMbAK4HghrkCRJbRcH+6h/6WlirYykJcoykuFB+v/Ll5E6ST8Zc0idpTA8SJZlhBCQ9PHSwT5WfuV5fv4v/lskSVJ+BJiJMI8aLkXNMBngGpIkKReql06Sbl4HMSJpiWIk3bSG+qY1SJIk5UUopAy/dJEP/vt/xcw7HyJJknJjPMAMariIGi7AFITbSJKktgvVMrVfv0wcrCNJkiSpw4VAacMqRj73FJIkKT8C3Ilk06jhImq4AJPADSRJUtuVT+yjtG8boVhAkiRJUueL5RIrnj9HYdUwkiQpNz6IhPuo4SJquADTAW4jSZLaKhQL1L/4DMmqFUiSJEnqDiFNqO7eyuCFo0iSpLzI3g4sjqOGi6gZJjK4hiRJaqvi/kcpHd1NqJSRJEmS1D2SgTojL10k6ashSZLabxF+EshuoYaLqOHGuDIF3ESSJLVV7aULpOtXIUmSJKm7xGKB+qFdDJw5gCRJar8Fwvv7+cE91HARNUVGdhf4AEmS1BaFHWOUT+wj9teQJEmS1H0Ko0MMv3SRWCoiSZLaJ8JsCvOoKSJqlqmM7B6SJKktap85T2HHZggBSZIkSd0nVkrUD++ifmgnkiSpfQIsRFhETRFRUwS4HwjXkSRJLZduWEX55D6S4QEkSZIkdakQKG1ay4pPnUeSJLVPgPEA06gpImqWKWAcSZLUcpVLJynu3QYxIkmSJKl7pX01Bs4coH5wB5IkqW0mAtkMaoqImiKDCeAWkiSppeJAnfLp/STrViJJkiSpy8VAect6Bs4fRZIktUv2diC7iZoioqaIcB+4iSRJaqnKE0cpHd5FSBMkSZIkdb90dIjBC8cob1mPJElqvUC4lRAmUVNE1BQB7gE3kCRJLRPKRcrnD1PcMYYkSZKk3hBipLJ9E/2n9yNJktri7QLhJmqKiJrlPnADSZLUMuWTj1E+shuSiCRJkqTeUd6yjhXPnKEwPIAkSWqtOfjLANdQU0TUFGNc4a9MA5NIkqTmSyLlMwcpHtyBJEmSpB4TArXHtjPwxFEISJKkFgmQBch282qGmiKipsnIbgEfIEmSmq50YAflk48RigUkSZIk9Z7y1g0MnDtM0ldDkiS1RoTpAsygpomomeaAWSRJUlOFYkr57EFKJ/YiSZIkqTeFQkr9yG76juxBkiS1zDQwh5omoqYJcA14B0mS1FSF7ZsonzlA7KshSZIkqXdVd2+l/+xBYrWMJElqvgC3I9k91DQRNdMsMIUkSWqaUEgpHdpJ6dheJEmSJPW2pFZh4MxBao9tR5IktcREgCnUNBE1TYQbwPtIkqSmSdaOUj59gHTNCJIkSZJU3fMIfYd3E8slJElS072ZwAeoaSJqphlgCkmS1BxpQnH/o5TPH0aSJEmS/lphdIj+c4coj61DkiQ1VwbjwH3UNBE10zhwA0mS1BTJ8CDl0wcobN2AJEmSJP2tviO7qR3cQSikSJKk5lmEn2Yk76OmiahpxrgyD9wHZpAkSY0VI4Udm6lePIokSZIk/aLSxjUMPn6Y4tpRJElScwRYDHD/IK9Mo6aJqNnGgTtIkqSGiv01ysf2Uti9FUmSJEn6Zf3nDlPbu42QRCRJUuMFmE9gHjVVRE2VkY0Dt5EkSQ2VblxN9fkzhEKKJEmSJP2y8tg6+k/tJx0eRJIkNV6AmQAzqKkiaqoAd4A7SJKkhom1CuXjeykd2oUkSZIkfZSQJgxdPkXlkQ1IkqSmuBfIJlBTRdRsk8B9JElSwySrh6m+cI5QKSFJkiRJv0pl5xgD5w6RDvUjSZIaK8BEJEyipoqoqQLcAm4iSZIaIhQLFPc+QvnMASRJkiTp48RSkcFLpyitX4UkSWq4DyLZh6ipImqqADPADJIkqSHiin6qnzpP7K8jSZIkSZ+kfngXfcf2ktQqSJKkxsnIbkay26ipImq2D4GrSJKkh5ckFB7dTO3TjyNJkiRJS5HUKgxePkk6OoQkSWqcRcJfQvYz1FQRNdUYV2aBGSRJ0kOL9QrVZ08TB/uQJEmSpKUaunyK2u6thEKKJElqjAym9vODKdRUETVdRvYucBVJkvTgQiBdt5K+Lz+HJEmSJC1HUqsw8tknKQwPIEmSHl6E2QLMoKaLqBXmgQUkSdIDC6UCladOkKxagSRJkiQt14pPPU5p4xqIEUmS9HACZAEy1HQRNV2AD4DrSJKkBxb7agz88y9CCEiSJEnScqVD/Yx89knSviqSJOmhjUe4jZouolaYBKaQJEkPJKQJfV95nnTjaiRJkiTpQY1++VnS0RUQkCRJD2casinUdBE1XQZ3gHEkSdIDCbUKtZefQpIkSZIeRnH1CCu/+AyxXEaSJD2M7Gogexc1XURNl8BtYBxJkvRAqpdOUjq0C0mSJEl6WMMvXiBd0Y8kSXoY4V5KGEdNF1Er3AbGkSRJyxZKBepffR5JkiRJaoTavm0MXT5FSBIkSdKDyeBqgfAuarqImm6MK/eAe8AikiRpWUqHdlG9dAJJkiRJapSVX3qWpF5BkiQ9mEW4vptXP0BNF1GrjAOTSJKkJQtpSv/vfA5CQJIkSZIaZeDxw/Sf3I8kSVq+AIsRFlBLRNQSGdkt4B6SJGnJCjvHqDx1AkJAkiRJkhpp9e98nlBIkSRJyxNgNoVp1BIRtcpdYAJJkrRkfV99njhQR5IkSZIabeD8EeqPbUeSJC3bdIAJ1BIRtUSA68A4kiRpSQrbNlJ97gyhkCJJkiRJjZZUy6z6rZeQJEnLE2AqkN1DLRFRSwS4BdxDkiQtSe1zF0nWroQQkCRJkqSGC4GhZ89Q3b0VSZK0LHcCXEMtEVFLBLgF3EeSJH2idP0qqs+eIVZKSJIkSVKzFEeHGP31p5EkSctyJ4FrqCUiapU7wH0kSdInqjx5jMK2jZBEJEmSJKlZQiFlxXPnKG9eiyRJWpoMbkJ4D7VERK1yB5hAkiR9rDjYR+2zF4mDfUiSJElSU4VAefNahp49gyRJWppFuJ4R30EtEVFLjHFlAbgDTCNJkn6lyhNHKO59hFBIkSRJkqRmi7Uyoy9fJl3RjyRJ+kRZgNmDvDKLWiKilsnIbgATSJKkjxTKJWovPkEyOoQkSZIktUJIEiqPbmLFM2eQJEkfL8J8CrOoZSJqpRvAfSRJ0kcqn9hLcf+jhFIRSZIkSWqVdKCPkc8/RayUkSRJH2s2wH3UMhG1TIAbwH0kSdJHqn7qcdJNayAEJEmSJKlVQrFAdfdWBs4dQpIkfazJSHYHtUxErXQfmEGSJP0j5eN7KZ98jFirIEmSJEmtVlwzysjnn0KSJP1qAWYj4T5qmYhaJsK7wB0kSdI/Unn2DIVtGyEEJEmSJKnVYqVE39E9DJw7hCRJ+mgZXItkb6CWiaiVFoBFJEnSP1DcMUb55GPEwT4kSZIkqV2K61YydPkUhIAkSfpIi8AcapmIWmaMK38JXEeSJP29EKhcPkFh5xiSJEmS1E7pYB8D549Q27cNSZL0jy3CTw7wvT9DLRNRq80Ci0iSpL+RrB2lfPYg6ZoRJEmSJKndShvXMHDhGCFGJEnSP5AFWEQtFVFLZWQ/BW4jSZIgBKqXTlA6sANJkiRJyoPimhFWXDpJacMqJEnS34swX4Ap1FIRtdoMsIAkSSIZGaR0fC/JupVIkiRJUl5UHt3M4KWTECOSJOnvLAJzqKUiaqkA7wH3kCRJlE7so3x8H6GQIkmSJEl5UVy3koGzhyiODiFJkv7OVISbqKUiarVxYAZJknpc7K9RPr6Xwtb1SJIkSVKehDShduBR+k/tR5Ik/Z0ZyO6iloqo1a4Dk0iS1OOKB3ZQPneIUC0jSZIkSXlT3rKB/vNHSFcMIEmS/sb9CO+jloqopSJcAyaRJKmHxVqF8vG9FPc8giRJkiTlUSwX6T+2l/qhnUiSpL8xnsJbqKUiarVrwCSSJPWwdNtGymcOEvtrSJIkSVJelbdvov/kfpL+GpIk9boMbqeEn6CWiqilxrgyAUwAi0iS1INCsUDp0E5KR3cjSZIkSXmWDtTpO/kYle2bkCRJTOzm1euopSJquYzsQ2AKSZJ6ULp5LZULR0lGh5AkSZKkvKsf2EHf8X3EUhFJknpVgMUEZlHLRdQO48AckiT1miShuOcRymcOIkmSJEmdoDA6xODjhylvWY8kST1sMcI8armIWi7AO8AEkiT1mHTNCJUnDpOuGUaSJEmSOkXfiX3UD+0kpAmSJPWiANOB7BpquYja4Q4whyRJPSbdso7Kk8chSZAkSZKkTlFYNUL/mQMU161EkqQeNR9gArVcRC0X4E3gHpIk9ZBkeJDKE0dIx9YhSZIkSZ0kJJHBC8eo7hxDkqQeNZ7Aa6jlImq5ABPAPJIk9ZB0yzrqL18iFFIkSZIkqdOUNq1l8OJxiqtHkCSpB80FuItaLqJ2eAeYRJKkHhHrVcpH91B4ZAOSJEmS1IlCmjBw/gilzWuRJKnXZHArI15BLRdRO4wDs0iS1COS9SupffFpSBIkSZIkqVPV9m1j4OxB0oE+JEnqJRlMQngXtVxELTfGlQy4BswiSVKXC4WUwqObKR/dgyRJkiR1spCmDFw8TnHdKJIk9ZAswvxBXllELRdRW2Rk7wMzSJLU5ZLVw/T/9kuQRCRJkiSp0w1dPEbfkd3EchFJknpBgMUUplBbRNQuV4EZJEnqZklCYdtGqpdPIUmSJEldIQSGP/ckxXUrkSSpR8wBt1FbRNQWAT4EZpAkqYvFgTp9X30BSZIkSeomA+ePUt25hVBIkSSpB8xGshuoLSJql9vAPJIkdasQSNevpPbiE0iSJElSN0mqZUZeukhhxQCSJPWAuUi4idoioraI8A4whSRJXSpUSvR95QVCrYIkSZIkdZuh589S3rqBkEQkSepyE5Hsx6gtImqXe8ACkiR1owDpmhHqv/EskiRJktSNCsODjHzhEklfDUmSutws8CFqi4jaYowrPwUmkSSpG8WE2osXSEYGkSRJkqRuteKZ05Q2rIYYkCSpW2Vw+wDf+zpqi4ja6RYwjyRJXSYO1On7rc8gSZIkSd2s/MgGhp45TSwWkCSpS2UR5lDbRNQ2GdlbwCySJHWZ6uUTFLZtRJIkSZK63cjLlyiMDCFJUjcKsJjCNGqbiNrpFjCPJEldJJSKDPzzLyFJkiRJvaC+fweDT50gJBFJkrrQYoD7qG0iapsA7wNzSJLURcpnD1I6sANJkiRJ6hWrfvMzxFoFSZK60HyAm6htImqn68A8kiR1iVAuMvBfvQwxIEmSJEm9on5oFwOnDyJJUheaD2TXUNtE1DYB3gfmkCSpS5QO7qR88jEIAUmSJEnqFbFYYPU/+xySJHWhmQg/Q20TUdsEeA+YRZKkLtH3Wy8S+mpIkiRJUq8ZOHuI/lP7kSSpy0ynhB+htomond4D5pAkqQuUHnuUyvnDhDRFkiRJknpNUq+y8jeeR5KkbpLBZAJXUNtE1DZjXJkBJoAMSZI6XO2Ll0lGhyAgSZIkSb0nBoaeOU1191YkSeoWARZ28+pd1DYRtVVG9gYwhyRJHSzduIbq5ZOESglJkiRJ6lWF0SGGX7yAJEndIECWwgRqq4jabRrIkCSpg9VeeoJ03SoIAUmSJEnqVbFYYOWXnqW4ahhJkrpAFmARtVVEbRXgCjCLJEkdKhkdov6FS8TBPiRJkiSpp4VAcfUIIy9fQpKkLjAfyd5AbRVRu80BGZIkdajKUydI1q2EGJAkSZKkXhfrFUZfvkxSryJJUofLgHnUVhG1VYS/AGaQJKkDxb4a9S89Q7pmGEmSJEkShBgpb1nP8KfPI0lSh5tK4d+htoqo3eaBDEmSOlD57EEKW9ZDkiBJkiRJ+o/SoX5Gfu0ysVhAkqQOlgEzqK0iarefAHNIktRhQqlI/QtPkm5ajSRJkiTp74VCSm3PIww9ewZJkjpVBtMZyb9DbRVRW41x5T4wgyRJHaZ88jGK+7YTSkUkSZIkSf9QOjzI0NOnieUSkiR1qPmDvHINtVVEefAOsIgkSR0ilApULp8k3bwWSZIkSdI/ltQq9J98jPrhXUiS1IkSmENtF1HbZWTvAAtIktQhiju3UD6+lzhQR5IkSZL00YprRxl6+hShWECSpA6TJXAXtV1EefA2sIgkSR0gFAtULp2gsGMzkiRJkqRfLR3qZ/D8UaqPbkKSpA6zGOAGaruI2i7AVSBDkqQOkG5eQ/nMQZKVK5AkSZIkfbzylnUMPXOGkCZIktRBskh2DbVdRG0X4D1gEUmS8i5JKJ89SHH3FiRJkiRJnywdGaL/9AFKG9cgSVIHWYiEN1HbRdR2AT4AFpEkKefS9SupPH6YdMMqJEmSJEmfLCSR2p5HGDh/GEmSOshiIHsLtV1EefA2sIgkSTlXPraH0pHdkCRIkiRJkpamuG4lA+ePUlq/EkmSOsQ88B3UdhG13RhX3gMWkSQpx5I1I5TPHSLdvBZJkiRJ0tKFQkr9wA76ju1DkqQOsXCA711BbRdRLmRkfwlkSJKUU8V92ygd30coFpAkSZIkLU9581r6zx6kMDKIJEl5l8IUyoWI8uIakiTlVBzqp3xqP8VHNyFJkiRJWr5YLVM/spvqnkeQJCnvIsyiXIgoFwK8BWRIkpRDhW0bKZ98jFCrIEmSJEl6MLW92xg4e4ikWkaSpBzLAlxDuRBRXlxFkqQcCpUSpWN7KB3bgyRJkiTpwSX1Kv1nDlDdvRVJkvIskN1EuRBRLmTwHpIk5VBh6wYqF48R61UkSZIkSQ+nfmgX9WN7CYUUSZLyKsDbKBciyoUIbwEZkiTlSEgTivu2UTl9AEmSJEnSw0sH+xg4c4DK1g1IkpRTWYTXUC5ElAsBbiFJUs4k61dRuXCUONSHJEmSJKkBQqD/3GGqj21HkqScyoqE/4ByIaK8+AGQIUlSjhQe2UD1mdMQApIkSZKkxiiuXMHQpROUx9YhSVIOZQG+gXIholwY48oicAdJknIiXbeS2mfOk6weRpIkSZLUQCEwcOYQlUc3QwhIkpQnARZ38+oCyoWIciMj+wGSJOVBCCQbV1N+4iiSJEmSpMYrP7KBwQtHKaxcgSRJeVKAeyg3IsqTKSRJyoE42Ef14jGKOzYjSZIkSWqO/scPU96yHkJAkqQcmUG5EVFuBPgOkiS1Wwika0epPH0KSZIkSVLz9B3ezcCp/SR9VSRJyotI9hOUGxHlyQSSJLVZqJQonXyM8ol9SJIkSZKaa8UL5yiPrYMQkCQpJ26h3IgoT36MJEntFCBZtYL6y5eQJEmSJDVf/cge6gd2EsslJEnKgwS+gXIjotyI8D6SJLVRKBQoHdlN+eQ+JEmSJEnNF8tFhj9znuKqFUiSlBPvo9yIKDcyeANJktoo9tfo+43nCOUSkiRJkqTW6D93mNr+RwnFApIktdsC8WsoNyLKjYwwCdxHkqR2SCLFvdsonz6AJEmSJKl10oE6wy9eIB3qR5KkdgqwOEN2C+VGRHmSAT9HkqQ2COUS9X/yAnGgjiRJkiSptQYvHKO6YzMhTZAkqV0SmElQnkSUGxlZlpF9iCRJrRYCxW0bqT59CkmSJElS6xXXjjL07BlitYwkSe0SYDxChnIjojzJAryFJEmtFiO1X79MMjKIJEmSJKk9Rl66SGn9KggBSZLaIcCHgQzlR0S5ESAD3kWSpBZLVg5R/7WnkSRJkiS1T3nLeoZfeJxYLCBJUjtEuB4JGcqNiHIjQBbgp0iS1GL1Lz9Hun4lkiRJkqT2Gv3yc6Qr+pEkqR0i/CCSLaLciCg3AmTAOJIktVCoVej7ynNIkiRJktqvsn0TQ5dPEWJEkqTWy24ElCcR5ckihO8jSVIL1T97gcLW9UiSJEmS2i+kCat/+3OQRCRJarV5+ANgAeVGRLkxxhUyuIskSS3U99UXCMUCkiRJkqR8qO/fwYrnziBJUqvNEq4e4HsZyo2I8mYB+CmSJLVA9elTFPc/CiEgSZIkScqHUExZ+ZUXkCSplVK4X4AM5UpEuZKRZRnZTSRJaoG+3/oMoV5FkiRJkpQvQ0+eoO/oHiRJapUAiwHlTUS5EmA+wOtIktRkpcO7KB/fR0gTJEmSJEn5EspFRr/4DJIktUqEdyMsolyJKG8WgdtIktRMIdD3Tz9FHOxDkiRJkpQ/IUZWfuV5ymPrkCSpNbJxyBZRrkSUKxksZPAOkiQ1UbplPZWnThAqJSRJkiRJ+RTLJVb/5y9BCEiS1AJvBlhAuRJRriSwGOFdJElqlhjo/81Pk4wOIUmSJEnKr1gsMPzpJyiuHkGSpGaL8HoK8yhXIsqbReAGkiQ1Sbp2JZVzh4j1CpIkSZKkHAuB4poRRr/wFJIkNVsgvFIgzKNciShXxriykBF+BiwgSVIT1D7/JOkjGyBGJEmSJEn5FmtVhj/7JOmKASRJaqZJeG03r86jXIkojxaA60iS1GDJ8CDVp0+RDA8gSZIkScq/kEQq2zYy/KnHkSSpWSLMR8hQ7kSUOxnZfEb2LpIkNVj1+bMUtm+CGJEkSZIkdYZkoM7Qs2dIB/uQJKkZEphKIUO5E1EezQM3kCSpgeJgH9VnTpGsGUGSJEmS1DliqUj94E76Tu1HkqQmGQ+wgHInotwJMBfgTSRJaqDymQMUdm8lFFIkSZIkSZ2lMLqC4efPEatlJElqtED2QSBbQLkTUR4tADeRJKlBQqVE9dIJCpvXIkmSJEnqPEm9Qv+p/dQP7ECSpEYL8FaAOZQ7EeXRPPAekiQ1SOngToqHdhGqZSRJkiRJnam4fhUrXjhHKKRIktRIAX6WwCzKnYhyJ8J8ILyDJEkNEAoplcsnKe4aQ5IkSZLUudL+Ov3HH6O6cwxJkhppkfATCLModyLKo/kMriJJUgMUdm2hfGwvsb+OJEmSJKmDxUDl0U0MXjqJJEmNNA/fz4gzKHciyp0xrmTAFHAHSZIeUuXxQxT3b0eSJEmS1PnSkUEGzh2msn0TkiQ1QoDFDCYP8kqGcieiXMrIZjOy95Ek6SEUtq6nfOIxkuFBJEmSJEmdLyQJ1d1b6T99AEmSGiGB6RQylEsR5dUCcAdJkh5C+exBSqf2QwxIkiRJkrpDad1KBs4fobhuJZIkPawAdwPMo1yKKJcCTAf4GZIkPaBk9TClI3tI14wgSZIkSeoeoZBS27ed+qGdSJL0sALZ9Ug2j3IporyaB24jSdIDKh3dQ/nxQ5BEJEmSJEndpbpzjMELx0j6a0iS9DACYTwS5lEuRZRLEaYD4Q0kSXoAoV6ldHAnxe2bkCRJkiR1n1BI6Tu2l74ju5Ek6eFkr0aySZRLEeVVBswjSdIDKB3aSfXpk5BEJEmSJEndqbZvO/2n9hNLRSRJeghzQIZyKaJcGuPKRAavIEnSMoVykdKR3ZSO7kGSJEmS1L1ipUT/6YPU9m1DkqQHNUP43QN87wbKpYjyLAPmkSRpqQIUd2+l+tRxJEmSJEndr35sD/WjewlpgiRJDyALKM8iyrNJ4C0kSVqiUC5ROrKb8pkDSJIkSZK6X9pfZ+jJY1R3jCFJ0nKlMFGABZRbEeVWRjaXkd1GkqQlStevonL+CKFcQpIkSZLUG2qHdlHdt41QSJEkaTkCzAGLKLciyq0AkwF+jiRJSxAKKcX926k8dRxJkiRJUu8orV/FwPkjFNeOIknSMl2PMINyK6I8mwfGkSRpCZLVI1QvnyIO9iFJkiRJ6i39pw9Q3bWFkEQkSVq67A5k8yi3IsqzaQhXkSTpE4QkobB9I5UnjyFJkiRJ6j3VHWMMnDtMOjyIJElLFeCdCFMotyLKrQizAW4gSdIniIN9VC4cJd2wGkmSJElSbxq6dJLK9k0QA5IkLUUgvJHCBMqtiPJsJoNrSJL0cWIk3bqO2otPIEmSJEnqXdVdW+g/vpe0r4YkSUuxCK+lhHsotyLKrTGuzALXgDkkSfoVYq1M+ewhCo9uRpIkSZLUu0KxwIrnH6e4fhWSJC3FHFzdzavTKLciyrsp4EMkSfooIZCsGaH++SeRJEmSJKl2eBf9Jx4jqVWQJOnjRJhNYRHlWkS5lpHNZmTjSJL0EUKxQOnYXor7H0WSJEmSpKRaZsUL5yiMDiFJ0seJMBdhEeVaRLkWYCLAe0iS9BFiX5W+r75AKKRIkiRJkvTX+k8foHZgB7FUQJKkXyXAjUA2jXItorybBe4gSdIvSxNKx/dRPrEPSZIkSZL+VjrUz9CzZ0j660iS9Ktl9wPMoVyLKNcymITwAZIk/ZJQKtL31ecJlRKSJEmSJP2i4U89TuWRDYQkIknSRwnw4wh3UK5FlGsRZoDbSJL0i0KguGMzladOIEmSJEnSLyuMDDH82SeJtQqSJH20MB5hFuVaRLkWYAJ4G0mSflEM9P2TF4h9VSRJkiRJ+igjX7hEcdUwhIAkSb9sAb6XEW+hXIso72aBcSRJ+gXp+lXUv/oCkiRJkiT9KqU1owx/+jyxmCJJ0i9bgHchTKBciyjXxriSARPALSRJ+k/qL18i1ipIkiRJkvQrxcCq/+yzhFIJSZJ+UYDFCPMHeSVDuRZR7mVkkxnZdSRJ+itxsI+B//rXkCRJkiTpk1S2rmflF5+GGJAk6W8lMJ3CAsq9iDrBDHAPSZL+St9vPEccXYEkSZIkSZ8oBFb+xgvEYgFJkn7BXWAG5V5EuRdgPBDeQZLU80KlTN9vfpqQRCRJkiRJWoq+43sZvHgcSZL+ViC7HcmmUO5F1AlmgLtIknpe/eVLFLashxCQJEmSJGmpVn71BUIhRZKk/yjciYRplHsR5V6EewHeR5LU02KtQu2lC1AqIkmSJEnScgw/f47avm1IkvSfvBnJbqPci6gTzGUwiSSpp5XPHqR0dDchTZAkSZIkaVmShDX/7POENEGSpAxuAVMo9yLKvTGujANvI0nqWaFcpPa5i8S+KpIkSZIkLVdIIkOXT1HZugFJkubh2wf43nso9yLqFLPAJJKknlTc/yiV80cI5RKSJEmSJD2IdHiA0S8/hySptwVYiLCIOkJEneIucB1JUs8JhZT6F54iDg8iSZIkSdKDiqUiKz71OOXNa5Ek9a4IsynMo44QUUfIyCaAW0iSek5h+ybKZw8SaxUkSZIkSXpgIVDesJrhFy8gSepdAaYCzKGOEFFHCHAPuIEkqedUP/U46aY1EAOSJEmSJD2MWKuw4rmzFNeMIEnqWeMBJlFHSFGnmALGkST1lMIjG6hcPEoy2Iek5clm55j5zmtM/v6fIal3TJMxg6ReMPLiBeqHdhEKKZKWLqQJlZ1jDJw/wvX//f9CktSTxiGbRB0hRZ3iHnADSVJPqVw8RmHbJkgSJC3P4u273Psff597/9O/QVLvuMci95DUE+YXKG1eS3H1CJKWJx3qZ/ili9z6w3/Pwt0JJEk952oC46gjRNQRIkwDd5Ek9Yx07SiVC0dJVg4haZkWFpn/2XtM/tGfI0mSutOdP/kWs+9eQ9LyxVKR+oEdDJw9iCSp9wR4O4WbqCNE1CnuAteQJPWM0ol9FPc8QigWkLQ8i5PTTP7Jt1i4dgtJktSdpn7yc+596/ss3J9E0vIVVw0z/OkniOUikqTesgA/TQjXUEeIqCOMcWUWuAvMIknqerG/RuXySdLNa5G0fNm9CSb+zz9FkiR1r8WZWW7/3/8fc9duIWn5YqVE/dBO6od2IUnqLRlM7ObVGdQRIuoYGdlt4BqSpK5XOr6P0qGdhHIRScuTzc0z9fVXmHv9TSRJUncb/9p3mPrxz8nm55G0TCFQGlvPiufPIUnqHQnMpDCHOkZEnWQemEWS1NVCqUjliSMUtm1E0vJl0zNM/N6fkM3OIUmSutvCvUlu/z/fYP7OfSQtX9pfo//0AeqHdiJJ6hmLARZRx4ioYwT4AHgbSVJXKx3bQ/n0fmKtgqRlyjLm33qfyT/8cyRJUm+49Qf/L/O3xpH0AEKgvHUDA+cOI0nqDQGuRbLbqGNE1EkWgHkkSV2tfHQPxd1bIQQkLU+2sMj93/1jsukZJElSb5h+633u/Om3WJycRtLyFVetYODCUcpb1yNJ6gkLwCLqGBF1jAxuAleRJHWt4mPbKZ8/QhzsQ9IDmJvj/v/6R0iSpB6ymHHtX/4B8+P3kPQAQqD66Gb6T+1HktQTXkvhTdQxIuoYCUwBE0iSulOMlE89RunILiQ9mIl//WfM//wqkiSpt9z7ix8w+drPyBYWkLR85a0bGLp8isLoEJKkrjcPLKCOEVEnuQlcRZLUlQqb11I+tZ9kdAhJD2Bhgfv/yx8iSZJ604f/w79mcXIaSQ+mtv9RBh4/DCEgSepeC/BaRvIm6hgRdYwxrswCk8ACkqTuEiPFI7soHd+HpAcz+/qbTP7pt5AkSb3p1h/9e+au3YYMSQ+gsnUj/acPkA7UkSR1rwzGD/LKBOoYEXWacWAcSVJXSUaHKJ/aT2HLOiQ9mHv/8x/CYoYkSepNC/enuPa//SHZwgKSli8UU/qO7aV+aCeSpO4UYCGBBdRRIuooGdldYBxJUvcIgdKhnVQuHkXSg1m4Nc7k7/8ZZBmSJKl33fi9P2ZxYgpJD6a65xH6Tx0gqVWQJHWfCDMJzKCOElGnuQ/cQ5LUNeJQH6Ujuyls3YCkBzP5b77G/HvXkCRJvW3yhz/l3je/h6QHk9QqDJw7RHXvI0iSutL9AJOoo0TUUQLcAm4iSeoaxe2bqF4+QSgWkLR82dQ0E7/7x2Sz80iSJF397/4PJD246t5t1A/vJlZKSJK6S4D7kew+6igRdZQAd4G7SJK6QqxXKB7aRXHPNiQ9mJn/8CNmvvNDWFhAkiTpzp99m6k33kbSgymMDjFw9hClzWuRJHWdW5FwG3WUiDpKgHvAXSRJXSHdvJbq82cJ9QqSHszE7/0JixNTSJIk/bWFiSmu/f/sweeXnfdh2Pnv87tl7vQZFIJgAQkSrGADwAL2IjaRokSrWnZsx9FuznpPdrP7Yl/t/hf7Ys/Z7CZ24kRey3JEdYkUKZIiCRIkMGhEL0RvM5h++/1tjn0cJ1Hl3AfA3Od+P59/+30kLdzgxjsZuOcWkkIeSVKmTCTEC6ijBNRppoBJJEkdLyn1ULznFkoP3IGkhWl8cpLyzz8kVmtIkiT9nRgZ/4+v05yeQ9LC9Fx7JcNP3k/xquVIkrKjBSeAk6ijBNRRVjM2BUwiSep4uSuX0vf8w4SRQSQtzPwP36F5/Cy0IpIkSf+gcug4k69tQtLCjTx5H31rbyTJBSRJ2dCC4+vYfhJ1lIA60TQwiySpc+VzFG6+jt5nHkDSwrSm55j//tu0pmeRJEn6L8VqnTP/5hUkLVzP9Vcx/Mg68ktHkCR1vgCNHDRQxwmo40TiFDCDJKlj5ZaO0P/yE+SuWIKkham+v4Pa7sPEegNJkqT/Umw2md2ym5kPP0bSwiT5HKMvPEpp9dVIkjpfAs0cNFDHCajjJHAeuIAkqTOFhPyqFfS9+CiSFm7++2/TOn8BSZKkX6UxOcP437yKpIXrvW01w0/eR350CElSx5tPYA51nIA60QwwiySpI4XBfvpeepz81cuRtDC13YepfLCT1lwZSZKkX6VVqTL56iYaE1NIWphQLDD62YcprlyGJKnjlRPiHOo4AXWcCFPADJKkjhSWDjP4xy9CLoekhan87AMan5yGVkSSJOlXakWqx04z8b03kbRwg/euZXDjXYS+EpKkjjadwCTqOAF1nAATwBSSpI6T9PbQ99lHyF97JZIWpnVhmvlXN9E8O4EkSdJv0pic4fy3f4akhQt9JUZfeITC0hEkSR3tfIAzqOME1HESKAMVJEkdJwz2M/w/fQ1CQNLCVN7ZRuPAMWg2kSRJ+k1ivcH87sNMvfkhkhZuyYuP0rf2RpJ8HklSxzpTJDmBOk5Aneg0cA5JUkdJ8jlKD91N4aZVSFq48hubqR89hSRJ0u+ifnaCiR+8jaSFC6Ueln/9efKjg0iSOlMTTiRwBHWcgDrOasZawDxQQ5LUMZJSD8P/2x9DCEhamOrYXqqbdxFny0iSJP0umtOzTP9iK/Uz40hauKUvP0XpuqsgBCRJHScm0FzLthbqOAF1pEg8AYwjSeoYhdtvoPTQ3UhaoBipvLWFxsHjSJIkfRrVT04x/rc/Q9LC5Yb6Wf7158n19yJJ6iwB6gWooI4UUKdqAE0kSR0hyecY+d+/gaSFa56ZoPL2VhonzyFJkvRp1M9OMPmzD2hVakhauGV/8AKFK5ZAkiBJ6ihNoIk6UkAdKYFPgLNIkjpCfvXV9H/+cSQtXGXTdup7jiBJkvRpxUaT+T2HmXrjAyQtXPHKpVzxRy8SinkkSZ0jgclAPI06UkCdqgY0kCR1hOF/+XUkLVwsV6lu2kn90HEkSZIWonb8DFNvfkRsNJG0cMu++DT5JSNIkjpKNYEy6kgBdarTwCSSpEUvt2IpA7//HJIWrrbzANUPdxHnK0iSJC1EY2qW2Y8+pnr4BJIWru/ONYy++AgkCZKkjnE6BwdRRwqoIwWYAuaQJC16Q//8iyTDg0hamNhoUP1gF7Vdh5AkSWpHec8RJl/bhKT2XPHHL5Hr70WS1BkizANTqCMF1KnOAVNIkha13LIRBv7JCyS5gKSFaZ48R+X9HTRPn0eSJKkdtdPnmX5vO/XxSSQt3PCj6xl6ZB2SpM4Q4WQktx91pIA60mrGasAs0ECStGj1/96T5K66ApIESQtT27af2tY9SJIktSs2mszt2M/Mph1Ias/K//GrhGIBSdKiF4HyerbOoY4UUCc7D8wiSVqUwkAfA//kRUJvD5IWpjU1S/XDj6kfPI4kSVIaKoeOM/vBTlrVGpIWbuixDfSvuxVJ0uKWQCsHddSxAupYkTgFVJAkLUqlz9xP4bbVkAtIWpj6vqNU3ttOLFeRJElKQ3N6jtkPP6ay7yiSFi430MuKb/wekqTFLYFagHnUsQLqZOeAWSRJi07SU2TwTz9PGB5A0sLEWp3a2F5qW/YgSZKUptmxPcy8vwNJC5eEHKPPPUT/XTcjSVrUyglxCnWsgDpWAuPAHJKkRaf04F303HMLSbGApIVpnjxHZdN2muOTSJIkpal+ZpyZD3ZQO3kWSQuUQGH5KMu+9iySpEWtGkimUccKqGMlcAaYQZK0qCSlIgN/9CK55aNIWrj6/qNU3hlDkiQpbbHZYmbzLua270fSwoWeAkteeJTSDdcgSVq0LgTiMdSxAupYCcwDNSRJi0rxjjX03Hc7SW8PkhamdWGayvs7aBw+iSRJ0sVQ3vcJc2N7aZWrSFqgEOi5/ipGP/swkqRFq5rADOpYAXWyY8AkkqRFZeCrz5JftRKSBEkL0/jkNJU3PiLW6kiSJF0MrfkK0++MUd53BEkLlxvsY9nXnqOwZBhJ0uIT4RjwEepYAXWs1YzNAzUkSYtGce2N9Dx8D2GwH0kLE6t1ajv3U9m0A0mSpItp5r3tzO86iKSFS3I5em9axeiLjyJJWnwizK9j+wXUsQLqdCeBWSRJi0LvC49QWHMNhARJC9M8M075jQ+J82UkSZIupvrEFFNvb6V67DSSFq6wZJilX3qa0FdCkrR4JNAoQBl1tIA6WiROAzUkSZdd/uor6H3yXnLLRpC0cI0TZym/+j6SJEkXXYxM/2Ir5f1HkbRwSbFA/9obGHn8XiRJi0cCMYGIOlpAHS2BT4BpJEmXXe8zGyneej2EgKSFaU3OUH5jM43jZ5AkSboUyh8fYn7nAVrlKpIWrnj1CpZ+6WkkSYtKOcA51NEC6nQzQA1J0mWVWzZC3+ceJb/6aiQtXPP0OOUf/AJiRJIk6VKIrRYXfvA25f1HkbRwobeHwQfuYOSp+5EkLRp1iHOoowXU0SKcBeaRJF0+SULpkXso3HIdkhYuVuvUtu+j8u42JEmSLqWpt7dSOXgMWi0kLVzxmhWMPL2RJJdDkrQozCVwCnW0gDpaDs4DZSRJl00Y7KP3uYco3HI9khaudWGKuVfeRJIk6VJrlStM/OgXVE+cRdLC5UcGGXp8A313rkGStChM5+AT1NEC6nRTQBVJ0mXTs+5WinffTFLII2mBWpHGiXOUX92EJEnS5TD1xmaqx05DjEhauNLqqxh+8j6SXA5J0uUV4UKRZD/qaAF1tNWMnQSmgYgk6ZJLenvoffoBeu6+GUkL15orM//9t2ieu4AkSdLlUDlwjNkPd9OcKyNp4YorlzP6zEZ6Vl2JJOnyijC1lm1HUEcLKAsuADUkSZdc8Y419Gy8k6SvhKQFipHW+CTz3/k5kiRJl9P4375G7dQ5JLWn77YbGPnMAyQhIEm6PBKIAZqo4wXU8SLxFFBGknRJJb09lB65h+I9NyNp4WKjSfWDXVTH9iJJknQ5zby/g/LuI8R6A0kLV7xmBUOPrqewYgmSpMummYcK6ngBZcEFoIYk6ZIq3HANpcfWk1s2iqSFi9Uas3/1YyRJki63VqXG+HdepzExjaSFS/I5BjbcxuDGu5AkXTaNBGZRxwuo4yVwHJhHknTJJIU8xXtvo2fD7UhqQ4zU9x+j/MaHSJIkLQaTr71P7dQ5aEUkLVzpxmsZfuJeCktHkCRdeglUEuI51PECyoJJoI4k6ZLJXXMFvU/cS/7aFUhqQ7PF3LdepTU5gyRJ0mJQPXaaqTc206pUkbRwoVRkcONd9K+7BUnSZVFO4CTqeAFlwRmgjCTp0sgFeu6+hdKj65HUnuaFaea+9SqSJEmLybn/8EMa07NIak/fLdcz+ODd5IYGkCRdcnM5OIo6XkAdL8ApoIIk6ZLILR+l9PA9FK5biaT2lH/2AfUDx5AkSVpMZrfvZ2bzLmKjiaSFyw0PMPTwPfTetApJ0qUVYQ6SI6jjBZQFZ4EKkqRLonDTKnqf3Qj5HJLaM/Pn30WSJGmxibU657/5I1qVKpLaM3Dv7Qw+cAehVESSdOlEmImEfajjBdTxVjPWAC4ADSRJF1VYMkzvE/dSuOV6JLWnOraX6ns7kCRJWowmf7qJ+qnzEJHUhsLSEYafvI/S6quRJF0yMYH6eraWUccLKBMi8RRQRZJ0UeVXXUnvMxtJegpIas/cN39Ca3YeSZKkxag+Psn5v3mV2GoiqT1DD6+j/55bSPI5JEkXXwIxDxWUCQFlxSTQQJJ00YSBPkob76Rnw61Iak/z3AXm/uY1aLWQJElarM78m1eg2UJSeworljD82AaKVy1HknRJNBKYRpkQUCYkcAQoI0m6aHJXLKH32QdJ+nqR1J75H/6CxunzSJIkLWaVQ8eZ+OEvkNSeJARGnnuI3puvR5J0SdQC8TzKhICy4gLQQJJ0USSFPIU719D33INIat/sN39MrNaRJElazGKzxdm/+C6S2tezaiWjzz1I8cqlSJIuukYgmUKZEFAmBDgElJEkXRRh+Sj9X/oMSV8JSe2pvDNGbds+aDaRJEla7CZf3UTt5DkktSfJBUY+8wA9116JJOmimwvEnSgTAsqKBhCRJKUvBArXX0X/S48hqX1z336d1vQckiRJnaBVrnLmX30bSe3ru/tmhh6/l9zwAJKki6oF1FEmBJQVY8AMkqTUheEB+r/yDGFkEEntaZw4y/z33yLOV5AkSeoEsdXizJ9/l9hsIqk9SQiMvvAwxauWI0m6eCKcBb6NMiGgTFjNGP9JE4hIktKTJOSuXMrA159DUvvmv/MGrYlpJEmSOknt7ATn/urHSGrfyJP3M3jfHYRSD5KkiyauY3tEmRBQlhwAqkiSUpP0lRj8g8+SW7EUSe2J5QrzP/gFrelZJEmSOkms1Tn/1z8lNptIat/yrz1LceUyJEnpS6BVhFmUGQFlRiSOA00kSelIEnLLRuj7whNIat/8D9+htusgsd5AkiSpk8RGk9n3d1LecwRJ7Rt+4j76br+BpJBHkpS6CNRRZgSUGQkcAqpIklKR5HP0fe5RineuQVJ7Yr1B+Sfv0jw/iSRJUidqzMxx9i++i6T2hb4Sy776LPmRQSRJqasHOI0yI6AsuQA0kSSlIhnqZ/BPP4+k9tX3fUL1o93E+QqSJEmdqFWucuGn71E/dwFJ7Rt98TF616wiyQUkSalqQryAMiOgLDkB1JEkpaL3iXvp2XA7kto3/923aBw7gyRJUseKkdrJc4y/8gaS2ldYOszyrz9P6CshSUpVLcARlBkBZUaAs0ADSVLbkp4Cw//z15HUvuaZcSq/2EpzYgpJkqRO1pye5cKP3qE5M4ek9o2++Cg9q1ZCkiBJSk0lB3tRZgSUJaeBOpKktvU8cCc9961FUvvKP/+Q+v6j0GwhSZLUyVrVOnNje5l5bzuS2le64RqWvPQYSSGPJCkdEcoFku0oMwLKjNWMnQXmgYgkqS1D/8OXSXp7kNSeWK5SeXuMxomzSJIkZUH97ATj332TWG8gqX3L/+AFCkuHkSSlpr6WbcdRZgSUNceBJpKkBSveeRO9T92HpPbVdh6gNraXOF9BkiQpC5rzZWa37KZ86DiS2td/500seeERJEmpiHmookwJKFMicRxoIklasMFvvExYOoKk9pXf+JD63k+QJEnKjFakeuQEkz95F0npWPHPv0zoKyFJak8CMUAVZUpAmZLAIaCBJGlBCjdcTd+Lj5DkApLa0zhykuoHO2lOTCFJkpQl9fOTTL35EY3xKSS1b+CeWxh5fAOSpLY1E+JplCkBZc05oIUkaUH6v/IM+ZXLIEmQ1J7K+zup7TwArRaSJElZEusNyrsPMf3OViS1LykWuPLPvookqW2tBKZQpgSUKRGOAw0kSZ9aWDJM/5efJuntQVJ74lyZ6uZdNI6cQpIkKYuqx84w+cZmWrU6kto39Mg6hh9bjySpLbUAYyhTAsqUAGeBJpKkT23ga89SuPEaCAFJ7alu20f1w4+J1RqSJElZ1JwrM7d9P+W9R5DUvtxgP8v/8EUkSW1pBTiPMiWgTElgP9BAkvSpJH0l+r/wBMlgH5LaV938MbVt+5AkScqsGCnvPsTU65uR1L4kl2P0+Yfpu2MNkqSFiVCNhPdRpgSUNeNAC0nSp9L34qMUbr+BJJ9HUnvq+49S3bSd1tQskiRJWVY/O8HM5p3Uz04gqU0JFJaNsPSLTyFJWrAGJAdQpgSUKasZawEngRaSpN9Z/xceJ7d8FEntq+04QPWj3RAjkiRJWRabLebG9jL9zhiS2hd6e7jiD16guGIpkqRPL0BjPVsbKFMCypxIPApEJEm/k94n76Nnw+0kpSKS2tOanac2tpf6wWNIkiR1g8rB48y8v5NWtYakNiUJhRVLWf7155EkfWoxD3MocwLKogtAC0nSbxcC/V99hty1K5DUvtrYPsqvb4ZWRJIkqRu0KlVmt+5mftdBJLUvN9TPsq89R354EEnSpxKBcZQ5AWVOAruAFpKk36pn3S303LeW0N+LpDY1m9R2HaT60cdIkiR1k9ktu5l+dxu0WkhqTxICPdddxZIvPI4k6VNpBeIplDkBZdE40EKS9JvlAv1ffprCjdcgqX31A8cpv7GZWKkhSZLUTRrnJ5n76GOqJ88hqX2FZSMs/dIzhL4SkqTfWQwk51DmBJQ5AfYDLSRJv1H++qvouf8OwsggktrUitT3f0J10w4kSZK60cymHcxu3gUxIqk9SSFP/51rGH3+YSRJv7NmIG5FmRNQFs0AEUnSrxcC/S8/SfH2G5DUvtbkDNUPd9P45BSSJEndqHLoOHNje2nOzCOpfYUrljD67IOEvhKSpN9JCziDMiegzFnN2E6giSTp18qvXEbvY+vJXbkUSe2rHzzG/I/eQZIkqVu1anWmN22nvP8TJLUv19/L4IN3MbDhdiRJv5P6OrZ/D2VOQFk1jSTp1+p9+n4Kd9yIpPbFSpXazgPUtu1DkiSpm81+uIvZrXuJtTqS2tdzzQpGn3uQ0FNAkvSbBaijTAooqw4gSfqVcktHKD26nsKqlUhqX+PkOeZ/9C6xWkOSJKmbNSammXlvG7WT55DUvvySYYYfv5feW1YjSfrN8jCPMimgTIrE40BEkvRLSo/cQ8/9d0A+h6Q2NVs0Dp+k+osxJEmSBNNvb2F+9yFiq4Wk9vXetIrR5x4iyeeQJP16CcygTAookxI4jCTpl4ThAUqPrqNw8yokta81NUPlrS00Tp1DkiRJUDlyktmte2hOzyGpfflloww9cg+l665CkvRrxQROo0wKKKtOI0n6JcW7b6Zn450kPUUkta9xZoK577yBJEmS/l6sN5h87X2qR04iqX1JLtB3180MPb4BSdJvEk+hTAooq44AEUnSf5aUipQ23kXxrpuQ1L5YrlJ9fyf13YeRJEnSP5r98GPmdx2kVa0hqX09V1/B8BP30nPtCiRJv1qAPSiTAsqkAGeRJP1XCreupvTYOsJgP5La17owzfx33iDWG0iSJOkfNWfmmHxtE/Uz40hqX1LIM7D+NgbuXYsk6VeKBRhDmRRQVh1AkvSfJfkcpfvvoPTQPUhKQatF4+hpym9tQZIkSb9s8mcfUDl8kthqIal9pRuuYfixDRSWjSJJ+mU5kk0okwLKpNWMTQHzSJL+Tn711ZQeW08YHURS+1pzZeZe+TmtC9NIkiTpl9VOnmNm03aaM3NIal/o7WHg/rX0rb0RSdJ/LYG4lm3jKJMCyqxI3Isk6e8U71hD72fuQ1I64sw8s3/1EyRJkvSrxWaT8f/4OvXT40hKR//dtzD06Dpyfb1Ikv5RHuZQZgWUZXNIkshftZzS4xvIXbEUSe2L9QbzP36XxrHTSJIk6debG9vD/M6DxFodSe3L9fcy/NgG+tbegCTpHyXQQJkVUGYlsBlJEoW1N9D/8hMQEiS1L1ZrzH7zx9BsIUmSpF+vVa1z/m9epT4xjaR0DNy/loF715IU8kiS/l5C3IcyK6AsqyBJXS6MDlG6/w7y165AUgpipHHkFJU3P0KSJEm/3eRP36N28hy0IpLalx8aYPjxDZRuuAZJ0t9LoIYyK6DMirATSepyhTXX0v/VZyAEJKWgFZn5v79NrDeQJEnSb1e/MMXkq+/RLFeQlIIkYfip++m7Yw2SpL+Xgx+hzAoos3IwjiR1sTDYR+mhuynedTOS0hGrNWb+4ntIkiTpdxThzL/+Ds3JGSSlo7B8lKUvPUbphquRJP2dKsqsgDIrwg4kqVslkF+1kv4vPYWk9Mz8xfdoTc8hSZKk31153yfMfLCT2GgiKR1DD6+jd80qCAmS1O2ahO+jzAoosyLJNNBAkrpQUuqh577bKT26HknpiI0ms3/5QyRJkvTpnfl//pbWfAVJ6SituZbhzzxAYdkoktTlYoV4AmVWQFnWAo4iSV0od8US+r7wBJLSU99xgOrmXUiSJOnTm3rzIyqfnIQYkZSOkc/cT+mGqyFJkKRuFaCeQ1kWUGZFYozEE0hSl0kKeYp3rKHvuQeRlJ6p/+tbxGYLSZIkfXrNuTLn//onxFZEUjoGNtzO0MPryA32IUndKgczOYgoswLKsgicRpK6TBjqp//3niTpLSEpHc3T5yn/8BfQaiFJkqSFOfuXP6Q5NYOk9Cx9+UlKq1ZCkiBJ3SiBcwlElFkBZVYCMYEDSFI3yQUKN11H/xefQlJ6Zv/qpzQnppEkSdLCVY+cZPK195GUnoF71zKw4TZCqYgkdaNAPBOIEWVWQJmVQAROIkldJPT20P/VZwijQ0hKR5yvMP/Kz4m1GpIkSWrP6X/1t8R6A0npCKUiS7/8DIXlo0hSN0pIjgSSiDIroMxKoJXACSSpWyQJuWtW0P/Fp5CUnsqmHdR2HYRmC0mSJLVn5oMdzO8+hKT0DD+2gYF1t5IUC0hSt0mIBxJiC2VWQFkWgWNIUpdI8jn6P/cY+etWIik9s//+h7Rm5pAkSVL7WnNlzv7lD5CUntxQP8u+/Az5oX4kqdu0YCvQQpkVUGatZixGkqNIUpcIy0cZ+GdfQFJ66nuPUHlvO7FaR5IkSe2LrRYTr/yc+tkJJKVn+OkH6L3tBpJcDknqJhWSzevY3kKZFVDWtYAzSFIX6HtmI8XbViMpPXOvvEnzzDjEiCRJklIQoXriLBPffwtJ6SleuYwln3+cUCoiSd0iB5UcRJRpAWVaJDYj8SSSlHFJX4mhP/syktLTmp6j/LMPiNNzSJIkKT2xUuP8//cTWpUaktKz/CvPUrxmBSQJktQNAtRyKOsCyrQEmgkcRpIyrrTxLorrb0NSeio//5D6vk+IjSaSJElKT2w2mdt1kNmtu5GUnp7rVrLsi58hyeeQpG6QwHgCLZRpAWVdCziNJGXc8P/yBySFPJLSM/fdN2memUCSJEnpa1yY5tw3f4ykdF3xJy+RHxlEkrpBQpxIiC2UaQFlWoRmhFNIUoaVHriT0iPrkJSe6pbd1Mb2EitVJEmSlL5Wucr0mx9RPX4GSekprbmWJZ97DEnqEicSaKJMCyjTAjQDHEOSMmzgG18gGexDUnrKr75P49gZiBFJkiRdBDFSO3mWie+8jqT0JLkcK//F7yNJ3SCBvQEaKNMCyrQEWsAFJCmjeu6+mb4XHiHJ55CUjtaFaSrvbKN5fhJJkiRdPI2pWSZ+9A7N+QqS0tN/100s/cITSFLWBZLtRZIGyrSAsq4RSfYgSRnV96XPkBsdQlJ6yq99QH3vEWi1kCRJ0sUT6w0q+48y8/4OJKUnyee54k8+jyRlXQU2J1BDmRZQpq1mjP+kBswiSRmTW7mcga8/T9JXQlJ6yq9/QOPISSRJknTx1U6eY/xvXkVSukae2cjgxruQpKxKIEaor2UbyraAMi8Sa5G4F0nKkiRh8J9+jtzyUSSlp/LOGNWxvcRaHUmSJF18zbkys5s/prz/KJLSE0pFrvijFyEkSFIW5WG2AC2UeQF1gwjUkKQMyS0dpv/zTxAG+5CUklak+s42GgePI0mSpEunevQUE9/9OcSIpHQk+TzLvvosvTdeiyRlVAN1hYAyL4FKAtuQpAzp+/zj5K9fCSEgKR3N0+epfLiL5rkLSJIk6dKpj08y/c4YjckZJKUn19/Lim+8DCEgSVmTEA8FYg1lXkDdIAIVJCkjwlA//b/3JGHpCJLSU35rC7Vt+5EkSdKlFRtNyvs+YfrdbUhKTyj1sORzj9Nz1XIkKYNmEmihzAuoG9SAQ0hSRvQ+9xDFtWtICnkkpaM1W6b6/k4ah08gSZKkS6965CSTr75Hq1pDUkqShOJVy1n2lWeQpKwJsDkHZZR5AWVegGZCchZJyoAw2EfvsxsJV4wiKT21rXuofvgxsd5AkiRJl15zrszc2D7Ke44gKT25oX6WvPwUheWjSFKWRJJxoIkyL6BuUItwBEnKgJ4Nt1O6/w5Cfy+S0hHrDapb9lDffRhJkiRdPuV9R5h64wNis4WkdCS5HL03r2LJS48jSVnSINkUyZVR5gWUeasZi8AcUEaSOlhSKtL73IPkr12BpPQ0j5+hunkXzfFJJEmSdPnUz11g5sOPqZ8dR1J68iNDjD7/MPklQ0hSFiQQW8QL69naRJkXULeoASeRpA5WvP0GSo+uJ4wOISk91S17qG7agSRJki6v2Ggyt30/M5t3ISk9oVSkf92tDD14N5KUBQFqOYioKwTUFSKxEYnjSFKHSvJ5ep99kMJN1yIpPc2JKaqbd9H45CSSJEm6/CoHjzHz7jaac2Ukpad45VJGP/cYub4SktTpEpgJ0ERdIaBuUU3gBJLUofI3XE3pobvJLR1BUnrqe45QeWcbsdFEkiRJl19rvsLsRx9T/vgQktKTG+hj6MG7GdhwO5LU6RIYT4h11BUC6goJ1IHTSFKHKj22nuLdN0MuICkdsVanvvMgtR37kSRJ0uIxt2M/M5t3EhtNJKWn57qVjL7wCEmxgCR1sgQuBJIG6goBdYUEqgkcR5I6UP66q+h94l5yK5chKT2Nwyco/+wDWlOzSJIkafFonJ9kdstuaqfOISk9+aEBBjfeRd9tq5GkTpbAgUCsoK4QUFdIoAnJNJLUgUoP3UXPA3eQFPJISkmzRW3XIcpvb0GSJEmLS2y2mHlvO3Pb9iEpRSGh77bVjDy9EUnqbHEigTrqCgF1i3KEA0hSh8ldsYTSw/eQX3UlktLTHJ+kunknzbMTSJIkafGpHDzG7Ecf05yeQ1J68stGGX58A723Xo8kdaoGyZvANOoKAXWF1Yw1gRkkqcMU191Cz4N3khQLSEpP4/AJyj9+D5otJEmStPi0qnWm395Kee9hJKUnyQX67ljD0Ma7kaRO1YQz69heQ10hoG5SBo4jSR0i6e+l9OBdFNeuQVJ64nyF2rb91D4+hCRJkhav2S27mdt5kNhoIik9PdeuYPjJeylefQWS1GlyUC5AE3WNgLpGJNYjcRJJ6hA962+l9+kHSHoKSEpP48RZ5r7/NrFWR5IkSYtXY3KGmfd3UDt5DknpSfJ5+u+5hYH1tyJJnSaBZgIRdY2AukYCcwkcRpI6QFLMU7zrJop334ykFDVbNA6fpPL2FiRJkrTIxcjkq5so7z2MpHT1rb2RkafuJzfUjyR1kgTOBaiirhFQN2kAU0hSByjcdgN9n32YMNCHpPQ0J6cpv7GZ1uQMkiRJWvwqh08w9YsxGuNTSEpPkssx+ODdDN63FknqLHEWYgN1jYC6RoQKJKeRpMUuBIq3rab00N1ISlfzxDnm/vqnSJIkqUPEyNRr71M5chJJ6eq/5xYGH7qH0FtCkjpFAscTKKOuEVDXyEElgTNI0iJXWH01fS8+ShgdQlJ6YrlC9YOd1A+dQJIkSZ1j+t0x5nYeoFWtIyk9oafI8KPr6L/jRiSpcySHcjCPukZA3aQOTCJJi1kuULh9NaXP3IekdDXPTzL7zZ8gSZKkzjP543eonTyLpHQNPHAnA/euJSkWkKQOsadIMoO6RkBdYzVj5QhHgRaStEjlli+h98n7yK9cjqQUNZrUDxyjsmk7kiRJ6jwXfvoulYPHiM0WktKTHxpg5NmN9N60CknqBDXYv5Zts6hrBNRtqsAkkrQYhUDhpmvp/ezDSEpXa77C/Cs/J85XkCRJUudpTEwz9dYWmlMzSErX4L130H/nTSSFPJK0mCXQDBBRVwmoq0TifCSeRpIWoTDUT+nR9RRvvR5JKYqR5plx5r79OpIkSepcF37wNrVT5yFGJKWneM0VDD91H8WVy5GkxSwHlTw0UVcJqNvUEphCkhabJCF//VX0f/lpJKUrNpqUX3ufxvEzSJIkqXPNbtnN7NgeWtU6ktI1/NgG+m5bTZLLIUmL2FwCddRVAuoqCcwBx5CkRSbpK1F64A6Kt69GUrrizDyz/+4HSJIkqfONf+tVGhemkZSu3luuZ/iJe8kvGUKSFquEeD4hllFXCajb1CCZRpIWmdyyEfq/9ixJTxFJKYqR6o79VLfuQZIkSZ1v6o3NVA4cJTabSErX6AuP0LtmFYQESVqkTidQRl0loG4zD5xBkhaRpFig597b6blvLZJSFiOz//b7xEoNSZIkdb7G9BwXfvwOrXIVSenqu+0GBh+6i/xgP5K0GCUkR3Mwg7pKQF0lQBk4gyQtImFkkMF/9gXCQB+S0tU4eY75772FJEmSsuP8t16lMT4FEUkpSgp5lr78FIWVy5GkxagFRyGZRV0loG5TBs4hSYtFLkdx7Y30Pr4BSemb+/bPaJ67gCRJkrKjvP8oU29vITYaSErXwIbbGH74HkJfCUlabJqwPxKmUFcJqKusZqwFzAGzSNIiEPp6GPiTz5H09yIpXbFcZfbf/QBJkiRlz9l//R1a1RqS0hV6Syx5+UkKS0eQpMUkgRYwv56tDdRVAuo6kTgHnEOSLrckIXfNCvpfehxJ6au8v4PaniNIkiQpe6Y3bWd+50GIEUnpGnpkHQPrbyUpFpCkxSJALQ9N1HUC6kbVSJxGki6zJJ9j8J9+nrBkCEnpm/1/XyGWq0iSJCl7WuUq57/1U4gRSenKjwwy+tLj5Ab6kKTFIoG5BGqo6wTUdRKYTkhOIkmXWRgZZPAbX0BS+hpHTlJ+YzO0WkiSJCmbzv7b79GYmUdS+pZ98TP03ngNSQhI0iJxIRArqOsE1I0qwBSSdJkN/NGL5JaOICl9s//hxzQnppAkSVJ21c9PMvHKG0hKX350iOVf/yyhtwdJWgwSmA0kVdR1Auo6AaYTOI4kXWbD//LrSEpfnCsz98obxGodSZIkZdup//ObSLo4ln39eQpXLIEESVoM9gfiOOo6AXWjFtBEki6j/i8/Tf6aFUhKX/mtLTSOnIJWC0mSJGXb3K6DzGzehaT0FVcsZdlXniHJ5ZCkRaABtFDXCagbnY+wF0m6XJKE0f/jv4MQkJSyGJn98+/RmpxBkiRJ2RdrDc795feRdBEkCVf+2VdJeopI0uVWh9eAA6jrBNR1VjMWgSbQQpIug94n7qVw0yokpa+++zDVjz4m1upIkiQp+2Kzydl//0Pq41NISl/p+qu48k+/gCRdZhFormN7RF0noG51ATiJJF1quRxD/+sfkvQUkJSyGJn95k9onp9EkiRJ3aNVrnH+mz9C0sWx/A9fJPQUkaTLJQeVItRQVwqoK0ViBZhBki6x4u2rKW28E3I5JKWrOT5F+c0Pac3MI0mSpO4RK1XO/uUPaFWqSErf4AN3MPL0A0jSZdQEWqgrBdSVEpgETiFJl1IuMPQvfp8w2I+k9JVf/4DG0dPQaiFJkqTuEVstKodPMP32ViRdDAlX/MnnCcUCknQ5JDARYA51pYC6VQWYRZIuocLqq+l7diNJqYikdMVKlfL33qJ5ZhxJkiR1n+bMHOe//Rqx2UJSyhIYfeER+tfdgiRdJrMQK6grBdStZoBxJOkSGvjjzxGWDCMpfbVt+6juOECs1JAkSVL3aZWrTL3+AdVPTiIpfaFY4Mr//ksk+RySdBmcCTCFulJAXSnAPHABSbpEclctp++zDxMG+pCUsmaT+R++Q+PYGSRJktS96uNTjH/7NSSlL8nnGXlmI703X4ckXQbHczCBulJA3WoOuIAkXSIDX3mG/KqVEBIkpatx4hzVzbtoTc0gSZKk7tWcmuXCj9+lMTGFpJQlUFg2yvI/fAFJutQiHCqQnEVdKaCutJqxOWAcaCBJF1lu5XL6XnqM3JIhJKWv8tYW6vs+gWYLSZIkda/YbFI5fILpd8aQlL5Q6mHJi49RuvEaJOlSasL5tWybQV0poG42DVxAki6yvmc3UrhpFeRzSEpXa3qOypsf0ThxFkmSJKl+doKJ779FrDeQlLKQ0LPqSpa+/BSSdKkEaOSggbpWQF0rEueBWSTpIsqNDtH7/EPkVixBUvpqW/dQ3b6fWKkhSZIkNefKzH60m/ndh5GUvtxgH6OffZjiVcuRpEshgUYOmqhrBdTNJoHzSNJF1PPQ3RTvvomkp4ikdMV6g/LbW6kfOIokSZL0D6pHT3HhB28hKX1JPk/frasZfvI+JOkSmUqIs6hrBdS1EpgDppGkiyQM9NH30mMUrrsKSelrfHKK2tY9tCZnkSRJkv5BY2Ka6Xe3UTt5Dknpyy8bYenLT5EfGkCSLrYE5hOooK4VUNeKMA1MIEkXSfGem+lZdwtJXwlJ6atu2k5tbB+0WkiSJEn/IDabVA4cY2bTdiSlL/QUGbjnFoYe34AkXQJHA5xBXSugrhVgDphGki6CpKdA3/MPU7j5OiSlr3VhmuoHu2gcO40kSZL036ocOcnkz96nVasjKX3Fq5az5KXHCaUiknSRzQSYQ10roK6VwARwFkm6CAo3XUfPvbcThgeQlL7q1r1UN+8i1htIkiRJ/61Wpcrcjv3Mb9uHpPSF3h4G1t/GwL1rkaSLqQWHI+EE6loBdbN5YAZJugh6n3mA4vpbIUmQlK5Ya1D9aDe1jw8hSZIk/Trljw8x+foHSLoIkoTSmmsZfeFRJOliasEZSCZQ1wqoa61mLALTwAySlKLCmmspPXwPuWUjSEpf48gJalt205qZR5IkSfp16hPTzH60m+rR00hKX36on+FH7mFgw+1I0sWQQCtAfT1bW6hrBdTVInESmESSUtTz0N30bLgNkgRJ6att2UPlnTGIEUmSJOnXipH5jw8y++EuJF0ESULpplUMPboeSboYAtTzUEddLaBuVwbKSFJKciuW0vvIOvLXrURS+lrjU1Q/2k3j+BkkSZKk32b+40NMvb2FVqWKpPQVVyxj5OkH6F2zCkm6COaBedTVAupqCZwFTiNJaUgSejbeSc9Dd0GSICl91e37KL++GSKSJEnSbxcjc1v3MLtlN5IuggT6blvN4MN3Q5IgSSmbDsQZ1NUC6nbzwDySlIIwOkTv4xsorr0RSemLlSq1HQepfXwQSZIk6Xc1u2UPM+9tJzabSEpf6YZrGH16I8UrliBJaUpgLpDMoa4WUFcLcB44jyS1K0ko3rmGngfuQNLF0fjkFJV3thIrNSRJkqTfVXNmjtktu6keOYWki6N//W0MPbIOkgRJSkuEE4F4EnW1gLpdDagiSW0K/b2UHrqLng23I+kiaLao7TpE5c3/nz34DtL7PAz8/n2e9313321YFBLsBawiwbIAwSJ2ipRIihQpxbKKi3y6893YnmTmMjcZJ7nc3WTyTzKe/HOeTG58Z1tzZzmnk2XapFUokRJ7J8oSBAkSwAJEIfou9t3y1t8T5sTYEImyBb/Flu/nsxZJkiRpskbe2MRo/3uQEpJOvY7LLmTRbX0UF/cgSafQCDCCFrSIFrQVrN8L7EWSpql42QWU71hNaC8h6dRrHRyi9spbtPYdQpIkSZqs8fd2UHltI80jI0g69UJbkZ5br6d71WeQpFOlBZtW0f8OWtAiEtSAOpI0RaGzTPmz11G+fRWScpASja07Gfvpy0iSJElTNfziesbf2YakfHRecxk9t15PobsTSZquAClAQgteRIKDwCCSNEWli8+l4/5biT2dSDr10liV+lvv03h3AEmSJGmqRte+w8i6zWTVOpJOvUJXB713r6Hz6kuQpOkK0CxCAy14ES14iTQEVJCkKQjtbbRdeznlm69BUj6aew8x/pOXSbUGkiRJ0lS1RsepvNJPffc+JOWj6/or6V5zNbGzjCRNR4BqhHG04EW04AU4DBxBkqagsHwpHffdROHsZUg69VKzReO9HVSfW4skSZI0XcPPr2Vs83ZSliHp1CudsZjeu9bQfuHZSNI0jQYYRgteRIIKMIokTVaxQOkzF9Fx381Iykc2OMz4U6/SOnwESZIkabqq2/dQefUtWoMVJOWj59br6br+SkKpiCRNwyikClrwIhIMAkeQpEkqLFlEx+dvoXjxuUjKQUq09hxg7IcvIEmSJJ0qQz95ier23UjKR/v5Z7H4czfRds4ZSNI0HI6wHy14ES14ESrAGJI0GTFQvPhcuh65C0n5SOM1qq+/TXPbLiRJkqRTZbT/fUY3vEc2XkVSPhbfdzOdV11CKEQkaYqGCqTDaMGLSHAIGEKSJiF2d9Jx9xqKl16ApHxkQxXGvv8UqdFEkiRJOlWyao0jP3+Nxv5BJOWj/cJz6L1zNcWlvUjSVGSwC9I2tOBFtOCtYP04MAw0kaQJKpyxmK6vf4FQLCApB60Wjfd2UH1pA5IkSdKpNvjTl6kO7CZlGZJOvVAssORLd9N+0TlI0hQN97FxCC14EekjibQfGEKSJiB0lOm47xbarr0MSfnIRquMfP8pspExJEmSpFOtcWCQI8+8TuvICJLy0XnlRSy+92aKi3uQpMmI0ChCDekjEemXakATSZqA2NNJ11fvJbSVkJSDlGgdHGLs8WeRJEmS8nLw+z+jse8QkvIR2kosfegOSmctQ5ImKQXIkD4SkT4SYAdwAEk6iVAsUr7lOsq3r0JSPlKzxfjPX6O55wCSJElSXsbf20HljU1k1RqS8tF94zUsuvV6YmcZSZqoAEciaT/SRyLSL9WBJpJ0EqHcRuev30voaEdSTuoNRv79Y5BlSJIkSXlJzRaHH3+G1pERJOUjlttY8vCdFBcvQpImoQU0kT4SkT6S4ENgEEk6kRAoXnYB3V+/H0n5qb+1heqbm5AkSZLyduhvfkFt935ICUn5WPalu+haeQmhWECSJiLBgUD6AOkjEekjBRgFqkjSCYRigUV/8OuEUhFJOckyjvzxf4ZWhiRJkpS31Ghy8K9+Rmt0HEn5CKUiy3/nEYq9PUjSRAQYLRAGkT4SkX5pF3AISTqBwjln0v31+5GUn9bBIcb+7jkkSZKkmbL/O4/THKogKT9LH72b9hXnQoxI0slksCNR6Ef6SET6yArWV4EqkJCk4+j5J48SF3UhKT+jf/UU2fAokiRJ0kypf3iQIz9/ndRsISkfhe5Olv/mF4nlNiTpZBKMrGbdENJHItI/OAiMIknHEBf30PPtR5GUnzRWpfInf40kSZI00w785Y/IxmtIys8Z33yQtrPPgIAkHVeArAAtpI9FpI8l0mFgDEk6hp5vP0rxvDORlJ+xp1+j/u4AkiRJ0kwbfPIlxrd8gKT8tJ21jOXfephQKCBJxxOgWYAa0sci0j8YAsaRpE+Ivd10f+shiBFJOWm1GP2LH5GaLSRJkqTTYd+fPgYpISk/Z3z185SWLUaSTqAOjCJ9LCJ9LMCHwDCS9AmdX7ydtisuQlJ+Glt2MvbUq9DKkCRJkk6Hg//lpzQODiEpP50rL2XJw3cgSScwWiAdRPpYRPoHg8A4knSU0Fmm+3ceJrSXkJSfyl/8iDReRZIkSTpdGgcGGfzh80jK1/LfeYRCVweSdBwjkbAf6WMR6WMRDgGjSNJRynespn3NSigUkJSP1oFBxp54jlSrI0mSJJ1O+77zt2T1BpLys+i2PnrvvAFJOo5KIO1F+lhE+geHgTEk6WOhrUTPP3qY2NOJpPyMP/0ard37IUtIkiRJp1Pl1bcYXb8ZSfkJIXD2732V2F5Ckj4pwWFgO9LHItLHVrD+ADCKJH2sfc3VtN+4klAqIikfqd5g9AdPkw2PIkmSJJ1uqdFi358+hqQchUDPbX1033A1kvRJCQ6uov99pI9FpF91GKgiSR/p+trnKZx1BoSApHzUN7xHfe07pHoDSZIk6XRLWYuhn75M7YMPkZSf4qJuln/7USTpaAFShCbSUSLSURLpIFBF0oLXtvJSyrevIna2Iyk/I99/itbBISRJkqRZIUHjwCAHf/A0kvITigUW33sz3as+gyQdpVWABtJRItJRAnwIjCJpwev6tXsprTgPYkRSPpof7KX24nqykXEkSZKk2SIbr3HwvzxJc7CCpJyEQNvypSz76ueRpP9fgFqEIaSjRKRfdRioImlBK150DuV71hB7u5GUn/Fn3qC5cy9kGZIkSdJskbKM6tZdHHn2dSTlJ3a0s+TB2yhfdgGS9LF6IA0jHSUiHSXBIWAcSQta5wO3Urr8QihEJOUjVeuM/d3ztPYdRpIkSZptWpVRDv3gaSTlKEbaLzyHJQ/chiR9bDzAAaSjRKSjRNgPjCFpwYpLeuh44FYKZy1DUn5qr22k8e52Ur2BJEmSNNtktQYjb2xiZP1mJOWnuLibM776eUrLepGkj1Qi7EQ6SkQ6SoBhoIGkBavzi7fTdu3lhGIBSfkZfeI5mjv2IEmSJM1KKVHfd4jBHz6HpPyEQoGOyy9gyUN3IkkfGY9kB5GOEpF+1QdABUkLUuhop+PuNRTPX46k/DS27qK+7l2yyhiSJEnSbNU8UmHwxy/SODiEpPyUzlzKsi/fQ+wsI2lhy2Af8BrSUSLSUVawvgWMAC0kLTgdd6+h/caVhPY2JOWn+vw6Gtt2Q0pIkiRJs1aWqO3ax9DTryApP6FUpHPlpSy+ew2SFrYAzT421pGOEpE+IZG2ASNIWlhipOOBWyldtQJJ+UmjVcZ/+jLNgd1IkiRJs11j7yEGf/gCZBmS8tN+4dks+7X7CDEiaWEK0CzBGNInRKRPawIZkhaU8mevo/2GqwltJSTlp/riehqbdyBJkiTNBVmtzmj/ewy/3I+k/MRyO91rVtL7uRuRtGAloIX0CRHpEwJsAoaRtGCEYoGO+z9Le98VSMpPajYZ/8Xr1N8dQJIkSZor6rv2M/T0q6RWhqT8tF9wFr333EgoFZG08AQYi6QdSJ8QkT6tDmRIWjBKn1lB++qrCF0dSMpPY/MH1PvfJ41VkSRJkuaKxqEhhp9bS333PiTlp7hkEb13rKbzmsuQtCC1gBrSJ0SkT9sBjCFpYSgUKN99A+03Xo2kHGWJ2mtvUX97K5IkSdJcU92+myPPvomkfJUvvYDeu24gFAtIWlgSjETS+0ifEJE+IcJhoI6kBaF4/nLKN11DYflSJOWndfgI1Zf6ae74EEmSJGmuqe/ez/AL62hVxpCUn7Zzz2TxvTfTftE5SFpwxiJhF9InRKRP2wWMIWn+i5HybX2U71iFpHzV3nyH+rp3kSRJkuairFpndP1mRt7chKR8dV5zGb1330goRCQtHAkGE4V1SJ8QkT5hBeurwCiQIWleKyxfQvnW6ylefC6S8pPGqtRe20h90wCSJEnSXDW+dSfDL64j1RtIyk/7+Wex6PY+SmctQ9LCEaC+mnVHkD4hIh3bh0ANSfNae9+VlO+6AUn5amzdRe3Nd0jjVSRJkqS5qnnoCJXXNlLdvgdJ+QnFAj03XkPPTdcgaWEIkBWgjnQMEekYEukg0EDSvBUX99B+y7WUrrwISTlqZdQ3bKb+xiYkSZKkuW7s7W2MvP42kvJVvvQCeu+6gdKZS5C0IGQRqkjHEJGO7UOgjqR5q23lJXQ+cCuhVERSflr7D1N9dSPN3fuRJEmS5rr6rr1UXn2LxsEhJOUnltvoubWPrmsvR9KC0AhwGOkYItIxBPgQqCNpXopdHbTfcDVt11+BpHzVN22j+txaJEmSpPkgqzWovLGJsY1bkJSvzs+soOfW6yn0diNp3mtE2I90DBHpGALsBmpImpeKl5xHx4O3EcrtSMpPVhmltvYdGpt3IEmSJM0XY5u2UnltI1m1hqT8FBZ1sei2PjouvQBJ8954JG1DOoaIdAwBhoEmkuad0FaibeWllG+9Hkn5an6wj+qLG0i1OpIkSdJ80ToywshrG6kO7EFSvnpuupaem64hltuQNK81AhxCOoaIdGxbgXEkzTuF886k8+E7iIu6kJSjVkbjnW1Un1uLJEmSNN9U3nibsY1bkJSv4tJF9H7uJsoXn4ek+SvBEeAFpGOISMewgvXDQBNJ80shUrriIjofugNJ+WrtP0T1hXVkg8NIkiRJ8019934qr/RT33cISfladOdqOq+7nFAsIGneqq2i/0OkY4hIx/cBUEfSvFE4YwmdD91OXNyDpHw1BvYw9sMXkCRJkuaj1Gwx/NIGqu9/gKR8tZ25hMX33EjbOWciaV5KBWggHUdEOo5EOgy0kDQ/xEjpsgvo/vUvIClfWWWU2uubaAzsQZIkSZqvRte9y8jad8jGa0jKUYwsefB2ypddgKT5J0AqQA3pOCLScQR4H6ghaV6IPZ103HMjhbOWIilfrX2HGf/ZK9BqIUmSJM1XWa3O8AvrqO34EEn5arvgLJY+eDttZy1D0rzTiLAX6Tgi0vENARmS5oXC8qX0/NMvQwhIylEro7F1J+NPvoQkSZI03w0/t5bqtl1IyleIkcVfuIW285Yjad7JIA0jHUdEOo4Eu4AGkua80Fmm8+E7KV54DpLy1To0xNjjz5KaLSRJkqT5rr7vEENPv0p97yEk5avr+itZfO/NFHq7kTSv1APsQDqOiHQcBdgDNJA05xWW9tL9rYeQlLOUaO45wOhfPY0kSZK0UAz9/DVqO/ZASkjK15KHbqft7DOQNK/UC7AF6Tgi0vENAi0kzWmhVKR82/W0912JpHxlY1Wqz75Ja/9hJEmSpIVidP1mRta+QzZWRVK+eu9aQ89N1xDL7UiaNxqBbDfScUSk41jB+gFgHElzWljURc/vfgVJ+csGhxl77BdIkiRJC83gT16ivvcgkvJ35jcfoLR8CZLmhwSjfWx8Huk4ItKJHQRaSJqbQqB99VV03HczknLWbNF4Z4DxZ99EkiRJWmiGn19LdesuUrOFpHz13rWGzpWXEUpFJM19EZpIJxCRTiCRdgAtJM1JodxGz7cfQVL+srEqI3/5YyRJkqSFqDk4zOGfvEhzcBhJ+YqdZc785gMUejqRNLcFyIowhnQCEenEDgMZkuak0hUX0fXo3UjKWUo0d+1j9PHnkCRJkhaqoZ+8SH3PfkgJSfla+tCddFxxMSFGJM1pKUAF6QQi0gkEeB9oImlO6vn2I4TOMpLylZotxn78EtnhI0iSJEkL1dg7A1Re7icbryEpX8Wli1j+m18klNuQNKe1Amk30glEpBMbBDIkzTnFi8+l+5sPICl/aXSc0b/8EZIkSdJCd+ixn9M8MoKk/C15+E7KF58LISBpzmoBB5BOICKd2AdAE0lzTvdvfpHCssVIyl/ttY3U1r6LJEmStNANv9LP2KZtpGYLSfkqX3wuSx+5mxADkuasZiS9j3QCEekEIuwHMiTNKYXlS+n+xhcgBiTlLMHwv/sBkiRJkqA1PMqhv/k52XgNSflb/tsPUVy2GElzU4JGJPYjnUBEOrFdQBNJc0rnl+6kdMn5EAKS8tXYtovxp15FkiRJ0i8dfvwZ6h8egJSQlK/Oqy9l6cN3ImnOqifiOqQTiEgnsIL1I8BhICFpToiLe+j5R48Qym1Iyt/oX/+crDKKJEmSpF+qfbCXoadeITVbSMrf2f/s14gd7UiaewK0VrNuFOkEItJJJNIHQIakOaHj7htou2oFxIikfKXxGiPfeRxJkiRJv+rAd39EajSRlL+u665g8T03ImnOSUUYRzqJiHRyB4GEpFkvdLTT/TtfIvR0Iil/40+/RmPbLiRJkiT9qpG17zL8yltIyl8st3H27/06kuaeAONIJxGRTiLA+0CGpFmvfMdq2ld9htBWQlL+hv/kB6RGE0mSJEm/KqvWOPDdHyJpBoRAz2evp/fuNUiaU7JA2ol0EhHp5EaRNCd0f/N+CsuXIil/9Y1bqb2xCVoZkiRJkj7t4A+eov7hQSTlr7ioizO/+SCS5pRUIBxEOomIdBIB1gEtJM1q5TtWUb7lWkK5DUn5G33sF2RHRpAkSZJ0bK0jIxz8wc+QlL9QKrLkC5+l67rLkTRntCLpDaSTiEgnEaAKJCTNap0P3kbh7DMgBCTlK42OM/qff0IaryFJkiTp+PZ/53EkzYAQKJ6xmKVfvgdJc0oV6SQi0sm9CrSQNGu1XX0JHffdTOztRlL+Rn/4PK0Dg5ASkiRJko5v7J0Bhp56FUn5K3R1cuY3HqTt7GVImhPqwHeQTiIincQK1reADEmzUwh0PHArxQvOhhCQlLMso/LnT5ANVpAkSZJ0YqnWYP9/fAJSQlLOArSdtYzlv/0wBCTNAavobyCdRESamI1ImpUK555J58N3UDh7GZLyV319E833d5CaTSRJkiSdWGq1GPzxC1QHdiMpf4XF3Sx95G5KS3uRNLsVYRxpAiLSBCTSYSTNPiHQ9dDtlC69AEkzIEuMPfEsrUNHkCRJkjQxrfEaB7/3JJLyF2KkvOI8lj58J5JmtwijSBMQkSZmO5JmncKyxZQ/dxPFc89EUv5a+w8z/uTLZEMVJEmSJE1MGq9x+PFnaY2MISl/peVLWfroPRR6OpE0e0XYiTQBEWkCAmxH0qxTvms17dddDsUCkvI39qPnae09iCRJkqSJS1nG+LZdDD75MpLyF0pFuq67nCWf/yySZrN0CGkCItLEbEfSrBJ7u+n43E0UV5yLpPxlI2OM/fglWvsOI0mSJGlyWsOjHP7bX5DVGkjKX+msZfTedwuF7k4kzU4R3kOagIg0ARH2IGlWab/5WtpvvoZQbkdS/mpvvkPjvR2kRhNJkiRJk5NVa1Re7mf8nW1Iyl+hu5OeW66la/VnkDQ7RdJ7SBMQkSZmF5CQNCvE7k7Kt11P6dLzkTQDmi3Gf/YKzZ37kCRJkjQ1jUNDHH7iWSTNjPJF57Dk87cQ29uQNOukQNqANAERaQJWsH4XkmaN0lUrKN96PXFxD5Ly19jxIbWX+8kGh5EkSZI0Na3hUY488wb1vQeRlL/i0l4W3XkDHVetQNLs08fGN5EmICJN3C4knXahvY3yZ6+j7brLkTQzxp9+jcaWnUiSJEmautRqMb51J0d+8TqSZkbHlRez+L6bCcUCkmaPAtSQJigiTVAibUfSaVe85DzKd91AYflSJOWvdegI1RfX0/rwIJIkSZKmp7H/MINPvkw2Oo6k/JXOWMKiW/soX3wekmaPAlSRJigiTVCArUg6vYoFyjddQ/tNK5E0M+rrN9PYtI3UaCJJkiRperLxGqMbNjPa/x6S8hcKka5Vn2HR7X1Imj0C7EGaoIg0cXuQdFqVLjqH8t1rKJ5zJpLylxpNqs+tpfHeDiRJkiSdGvWd+xh66lUkzYz285bTe/eNtF94NpJmh0A6hDRBEWniPkDSaVW6+hLKd6yCQkRS/hqbtlF99S2y4VEkSZIknRrNoWGGX3mL6sBuJOUvlIp0r7ma7tVXIWnW2II0QRFpggLsQdJpUzjnDDruWkPxwrORNDOqr7xFvf99JEmSJJ06qZUx/t52hl9cj6SZUb70fBbdsZrSmUuQdPpF2IY0QRFpggLsQtJpU7ryYjruv4VQKiIpf82d+6i9+hat/YNIkiRJOrVqH+xl+Nk3aA2PIil/sdxOz83X0nHVJUg6/RLhF0gTFJEmKBG2I+m0iIt7KH/2OkpXXoykmVHvf5/a2neh1UKSJEnSqZXqDUY3bmFk/btImhndq6+i9/Y+Cl0dSDq9GoRNSBMUkSYoQQ3Yi6QZV1xxHp0P3kYoFZGUvzQ6Tu3Vt2hs2oYkSZKkfIxv3kHlpQ1Imhmxo53eu9fQcdUKJJ0+EVoZqY40QRFpghIpJdIHSJpRodxGe98VtN9yLZJmRv3d7dRef5vUaCJJkiQpH82hCpVXNzL+3gdImhk9N19H9+qrCKUikk6PAowWkSYuIk1cAgaRNKOKF59H9zcfIJSKSJoZ9be3Un39bSRJkiTlKCXGNr7PyBtvI2lmFBZ1sfieGylfch6STpsqkJAmKCJNUIAswEYkzZhQKlK68iLKt12PpJnR3L6H6rNvkh06giRJkqR8jW/ZyfDza2kODiNpZvR+4bN0XnM5xICkmRdJWyIpIU1QRJqcOpJmTOHsM+j+5gOEzg4kzYCUaGzeTu3lfiRJkiTNjJH1mxldvxlJM6O0tJdlD99B+aJzkDTzIuFgJCSkCYpIExShFeANJM2MGCledDYd996EpJmRDY9Sfe1t6u8MIEmSJGlmjL29lZE33yHVG0iaGYvuWE350gsJMSJpZgXSG5HUQpqgiDRxCRhB0owoLFlE99fvp3DGYiTNjObAbqrPrUWSJEnSzGlVRhn6xWuMvr0VSTOjfOkFLL7vZopnLEbSzEpwEEhIExSRJmgF67NE6EdS/mKgeOHZdD56N5JmRmo0qb8zQO31t5EkSZI0s0bXbWZs4xZSK0PSzFj8+VsoX3QuxICkmTNOeGwV/U2kCYpIk5OAESTlKnaU6fzibRQvOAtJM6P14QHGn36N7MgIkiRJkmZW/cMDjLz+No0Dh5E0M7pXX8WiO1ZR6O5E0swIkAWkyYlIk9MEBpCUnxCIy5fS9Y0HkDRDsozG1t1Un3kTSZIkSafHkWfeYOztrUiaOct+7V7azz8LQkBS/gpQLUJCmoSINAmJlCXSQSTlJpSKdHz+ZtquuRRJMyMbHqX2Sj+NrTuRJEmSdHqMbd7O6Lp3aY2MIWlmdN9wNd1rVhLLbUjKX4QjETKkSYhIk9MKsBNJuYmLuuj9g68haea09h5i7CcvIUmSJOn0SfUGQz9/nerAbiTNjNjexplf+wLFJb1Iyl+A/QEypEmISJMQoAXsQlI+QqB81w20XX8FkmZGqtWpvfU+tbXvIkmSJOn0GnnjbcY37yA1W0iaGYvuXE33mqsJpSKS8pb2Q2ohTUJEmpwmsBNJuQiFSO9/9w0kzZxscJjxH71AGhlDkiRJ0unVODDI8PNraew/jKSZUejp4syvfYFCdyeS8hVgS4Qm0iQUkSYhQpbgQEJSHlKWGPnujxn5/lNImhlZZZTqU68iSZIkaXY4/PgzNA4OUVyyCEkzo7H/EFm1jqR8BfigQGohTUIRaXJaELYjKR9ZxvC//2skSZIkSVqoqtv3UN2+B0mS5psWvFIk1ZEmISJNwgrWZwmOIEmSJEmSJEmSpAkJkBqEXX1sbCFNQkSapESqJ9L7SJIkSZIkSZIk6aQKMF6EDGmSItLktYBhJEmSJEmSJEmSdFIBWgFp8iLSJAWoBXgbSZIkSZIkSZIknVQg7YikOtIkRaTJy4BxJEmSJEmSJEmSNBE1ICFNUkSapAT1BFuQJEmSJEmSJEnSRGwKpBrSJEWkSSpAK8IQkiRJkiRJkiRJOqkI+wqEJtIkRaTJa0DYjSRJkiRJkiRJkk6qSXw6URhBmqSINEkrWN9M8CGQIUmSJEmSJEmSpBNqkvauZl0TaZIi0tTUgA+RJEmSJEmSJEnScUVoFiAhTUFEmoJEaiTSXiRJkiRJkiRJknRcEcYKkCFNQUSamgZwGEmSJEmSJEmSJB1XgBGghTQFRaQpCFADdiFJkiRJkiRJkqTjCqQ9BaghTUERaWqawCCSJEmSJEmSJEk6rkDYE6GONAURaQoiVANhO5IkSZIkSZIkSTqBtCOQqkhTEJGmpgEcQJIkSZIkSZIkSceVEd4DxpGmICJNwQrW1xLsQpIkSZIkSZIkScfVgPWr6B9BmoKINHV14DCSJEmSJEmSJEn6lAitCAlpiiLSFCVSDdiPJEmSJEmSJEmSPiVCvQAZ0hRFpKmrJ9JBJEmSJEmSJEmS9CkBBiM0kKaoiDRFAarAPiRJkiRJkiRJknQsQ4HUQJqiiDRFCarAXiRJkiRJkiRJknQMaX+AKtIURaQpilCFsBdJkiRJkiRJkiR9SoAdEcaQpigiTVGARoAjSJIkSZIkSZIk6Vj2R7Ia0hRFpKkbTbAdSZIkSZIkSZIkfUqD8DJwCGmKItIUrWB9AppIkiRJkiRJkiTpVwRIwHgfG1tIUxSRpiGRDifSO0iSJEmSJEmSJOnvFWC8BE2kaYhI05OAJpIkSZIkSZIkSTpaC0hI0xCRpiHA4QDvIkmSJEmSJEmSpL8XSDsjaQRpGiLS9GQQGkiSJEmSJEmSJOlodaCFNA0RaXpGgJ1IkiRJkiRJkiTpaFsj6QjSNESkaYhQDzCMJEmSJEmSJEmSjhL2RMIo0jREpOkZS7AfSZIkSZIkSZIk/b0WbEgUDiJNQ0SahhWsrwOHgBqSJEmSJEmSJEn6/6QER1azro40DRFp+kaBg0iSJEmSJEmSJIkIzQJkSNMUkaYpkUYT6QCSJEmSJEmSJEkiwliEBtI0FZGmbzvwn4Aq0AeUkSRJkiRJkiRJWmACpADbgCeAd5GmKSCdAlvoWxQINwAPAg8DVwAFJEmSJGkGVcioIEmSJEkzL8KBCD8OpL8rkp5fw1t7kaYpIJ1CW+lbDuEW4H7gEeB8JEmSJGmGVMioIEmSJEkzJ8JwhGcC/G0JnrmBDduQTpGAdIoN0FfI4FwItwGPAvcDS5AkSZKknFXIqCBJkiRJ+QtQK8DaCN+NpOcKFDavZl0d6RQKSDkZoK+tBRcFwq2QvgXhVqCMJEmSJOWkQkYFSZIkScpPgKwA2yLpTwPhqS54dyUbRpByEJByNkBfRwtWRMIdCf574HIgIkmSJEmnWIWMCpIkSZKUjwiDJfh3wN+00Xq/j42DSDkKSDNkgL6ujLAikR4NhH8BLEGSJEmSTqEKGRUkSZIk6dQK0CyRvt8i/J8dpB2r6D+INAMC0gzbQl9vIFwB6Z9C+A2gC0mSJEk6BSpkVJAkSZKkUyNAKpHWJeIfFsk2rqF/L9IMCkinwQB9MYPFAW7I4F8Ewv1IkiRJ0jRVyKggSZIkSdNXhN1t8K8T6clIYd9q1jWRZlhAOk0G6CNBIcES4AsJ/qdAuAZJkiRJmqIKGRUkSZIkaeqKMFoi+6NE+LN2wr4C1FeyAel0CEin2QB9JIjAUgi/leAPgeVARJIkSZImoUJGBUmSJEmatBSg3gbfKZD+D0gfFEitPjYinU4BaZbZQt+FgfDPgd8CFgMlJEmSJGkCKmRUkCRJkqQJywKMFuG5IulfraF/HdIsEpBmoQH6ShmsgfD7wH3AGUAJSZIkSTqBChkVJEmSJOmksgCVAmwqwR9H4uOrWTeKNMsEpFlsgL62FtwfCH8ArAGWAAUkSZIk6RgqZFSQJEmSpONKASoRthbhz4vE76xmXQVplgpIc8AAfb0t+GYg/AawElgMRCRJkiTpKBUyKkiSJEnSpwUYi7C9BE90wh+vZMNupFkuIM0hA/RdnBF+C3gYuAroAQKSJEmS9JEKGRUkSZIk6R8EqAfYUYBn2kl/tor+V5DmiIA0B22h74ZA+C3gHuBKoIwkSZKkBa9CRgVJkiRJ+q+yCHsDvNhG+t4a+n+ANMcEpDlqgL5yBvdA+ApwD3AZkiRJkha0ChkVJEmSJC10EY4AP20jvVCg8B9Xs24IaQ4KSHPcAH0dLfhqIDwM3AWchSRJkqQFqUJGBUmSJEkLVYQ68LMivF4i/tvVrBtEmsMC0jwwQB8Jzsrgm4FwL3AbsARJkiRJC0qFjAqSJEmSFpoI9QBrC/BcJ/xZhM0r2YA01wWkeWSAvkKCzyTCw8CDwBqgC0mSJEkLQoWMCpIkSZIWigApwvsR/qZEejLCC6voryPNEwFpHtpCXwewKhDuA74CrARKSJIkSZrXKmRUkCRJkrQQFGAf8L0i6ZkIT6+hfxhpnglI89hW+nqBWyDcBzwKXI4kSZKkeatCRgVJkiRJ81mEoQhPRPhZJP30Rvr3Ic1TAWmeG6AvZrAcwk3Ao8BDwFlIkiRJmncqZFSQJEmSNB9FqEX4RYTvF+C5SNy+mnVNpHksIC0QA/QVW3B+gNuAr0K4G1iMJEmSpHmjQkYFSZIkSfNJgGYR3g7w3QL8uAO2rGRDFWkBCEgLzAB9HRmcl+DzgfBt4HqgDUmSJElzXoWMCpIkSZLmiVSAvQXSXwTC/1MiDayifwhpAQlIC9QW+noC4VxIX4fwj4ELgIgkSZKkOatCRgVJkiRJc12EkSLpbzPCH5VIe9bQfwBpAQpIC9xW+nohXATp2xB+F+hGkiRJ0pxUIaOCJEmSpLkqQKMEzyfCvymQvX8j/fuQFrCAJAboCxn0BLgyg/85EB4BIpIkSZLmlAoZFSRJkiTNQakEm9rgD1vwWoF4eDXrWkgLXEDS3xugL7agI8LnMviXgXAzkiRJkuaMChkVJEmSJM0lJRgukf73JuH/6oaxlWxoIum/Ckj6lAH6QgvKwDcC4d8A5wMFJEmSJM1qFTIqSJIkSZoDsgi1Etl/CIR/WYTRVfRnSPoVAUkntJW+JcA/h/C7wDKgHUmSJEmzUoWMCpIkSZJmsVaA0XZ4NsLv3cCGPUg6roCkkxqgr5DgsgT/LYSvAb1AO5IkSZJmlQoZFSRJkiTNQq0Aw0XS2iLhf4vEl1ezro6kEwpImrAB+soZ3ALh94G7gKVACUmSJEmzQoWMCpIkSZJmkRRguACb2+D/LsNjK9lwBEkTEpA0aQP0nZHBQxC+AdwALAUKSJIkSTqtKmRUkCRJkjQbBBiJsLUEf1ck/fkq+rciaVICkqZsC30XBMLXgS8DK4FeICBJkiTptKiQUUGSJEnS6RSgGmAgkn5WIn1nDW+tQ9KUBCRN21b6roPwG8A9wEqgC0mSJEkzrkJGBUmSJEmnQ4BGgB0RXmqDv7yBDU8iaVoCkk6JAfraM1gD4TeBO4ArgDYkSZIkzZgKGRUkSZIkzbAswt4IzxdJjxcoPLGadRUkTVtA0ik1QN+iFtwdCI8C9wAXARFJkiRJuauQUUGSJEnSTIkwHEjPFAlPdcEPVrJhD5JOmYCkXAzQt7wFDwbCfcDDwGIkSZIk5apCRgVJkiRJeQvQivB0AX7RTuuxPjZuRtIpF5CUqwH6LsgIXwG+ANwHtCNJkiQpFxUyKkiSJEnKUwH6E3y/k/TjVfS/iaTcBCTlbgt9Abg+EB4G7gduBNqRJEmSdEpVyKggSZIkKQ8F2Al8v0R6OsBP1tCfISlXAUkzYoA+EnQnWA3hfuDLwNVIkiRJOmUqZFSQJEmSdCpFGCrAY5H0ZIH4dCAcWs26hKTcBSTNqAH6YgbLgDUQvgQ8CpyLJEmSpGmrkFFBkiRJ0qkQoVYgPRkIf90Gz7XBzpVsaCJpxgQknRYD9BUzOBu4EcLXgIeBbiRJkiRNWYWMCpIkSZKmI0BWgJci/KcC6fki2bY+NtaQNOMCkk6rAfraEuG8BLcD3wZuB0pIkiRJmrQKGRUkSZIkTUWAFOH9CP8hwI/aSAOr6B9D0mkTkDQrbKGvIxAuhvQAhG8B1wBFJEmSJE1YhYwKkiRJkiarAAcK8D3gLwqkd9fQfwRJp11A0qwxQF/IoAvCeYn024HwT4CzkSRJkjQhFTIqSJIkSZqoAONFeCLAH0XSQIHC4GrWZUiaFQKSZp0B+kILuiKsyOB/CISvAN1IkiRJOqEKGRUkSZIknUyAVgneKMH/2IANJeKR1azLkDSrBCTNWgP0hRZ0RLgxEf41cAdQQpIkSdIxVcioIEmSJOkEUhF2tZH+1xbhe10wvpINLSTNSgFJs94AfSEjxET6bwLhXwGfAUpIkiRJ+hUVMipIkiRJOoYswpF20p80Cf9LO6m1iv6EpFktIGlOGaBvUQa/D+H3gbOBdiRJ0v/LHpxA2VrWB77+/b9v76ozAYKAhEFQFNES8lWdggAKioAos0ArRFvFmG7TJsab3KRXp801N+t2+rZmMDfpFadOYpKbRCOiIigQFARFCVLWBpm6Dp+KKIIy+B6GM+z3vS6X1zYKeIYa9vB7Hkn6gUQmIUmSJOnH9AMemqRcU1O/eYa5u5E0NAJJQ6elocA+Gf6PIM4CngpMIEmSJI25RCYhSZIkKSAD3+3AHR3ijRVx+wxzBUlDJZA0tFqaOsPhBf5zEEcBewETSJIkSWMqkUlIkiRJ4ysgAw904Kur4O1duGKK+c1IGkqBpKHX0qwtxEkF3gjMAHsBHSRJkqQxk8gkJEmSpLFUAlINt3UpH6zhA9P0voukoRZIGhkLNHsHcTZwDtAAewAVkiRJ0phIZBKSJEnSeAl4NOC2DuXKGt4zS28BSSMhkDRyNtA8C+J84CTgMOApSJIkSWMgkUlIkiRJ4yFgU8BCBdd1KO87gt71SBopgaSR1NJ0MxwO8UrgROBQYA2SJEnSCEtkEpIkSdJoC+gHfK2Cazrw4ZrqyhnmHkXSyAkkjbSWZk0fXhjEWcCLgIOBSSRJkqQRlMgkJEmSpNEUkCv4TsDnOvCxNXDJFPPfQdLICiSNhZZm7z4cG8SZwAnAPkCFJEmSNEISmYQkSZI0egIeruGLNVzUpVwxTe92JI28QNJYWaA5OIjjgFcALwJ2RZIkSRoRiUxCkiRJGh0BWyu4GfibCcoXZuldh6SxEUgaSxtoGohjgTOBlwCBJEmSNOQSmYQkSZI0GjrQFvirLuVfjqD3KSSNnUDS2GppJjI0ECcC5wPPR5IkSRpiiUxCkiRJGm41fKeCD9RwdU316RnmHkbSWAokjb07aXbJcGQQpwBnAc9EkiRJGkKJTEKSJEkaTjU8WsGlAf+wFq55PvP3ImmsBZL0fS1NVWDvDD8fxLnAucBTkCRJkoZIIpOQJEmShktArilXVcT7u5QvBWyYptdH0tgLJOnHLNB0gH2COAJ4A3ASMIkkSZI0BBKZhCRJkjQ8OnBrwB9VlM9VlDtnuWkzkvRDgSQ9jg00E8ABEMcCbwRegCRJkjTgEpmEJEmSNPhquKuC91bwiRruWM/8I0jSTwgk6Qm0NJFhVcDTC5wB8UvAc5AkSZIGVCKTkCRJkgZXBQ914YMV/CVwa0W1cYa5jCQ9jkCSfoaWJjKsDnhegQsgzgX2RpIkSRowiUxCkiRJGjwVbO7C5yvKH0NcvRoenmK+jyQ9iUCStlFLU2WYKLA+iP8EvARYjSRJkjQgEpmEJEmSNDgCSgW3dcl/ANVFHcpj0/T6SNI2CCRpOy3QRBAB5TSItwGHAZNAIEmSJK2gRCYhSZIkDYStNdwzCf99M7yjSy6z3FSQpO0QSNJOaGnWZnglxH8C9gdWI0mSJK2QRCYhSZIkrZyALQH3TlAuqql/f4a5+5CkHRRI0iJoafbpw78P4vXAPsAqJEmSpGWWyCQkSZKk5ReQgW934fp18LYp5m9GknZSIEmLqKV5dh9+J4gXA/sBXSRJkqRlksgkJEmSpGVVAr7dhQ2T9N/ecPOVSNIiCSRpkbU0VYEXFOK3gcOB/YAaSZIkaYklMglJkiRpeQTcH3DHKsp7Kvi7aXpbkaRFFEjSElmgWQOcFcQbgOcCTwNqJEmSpCWSyCQkSZKkpRWQAm7vUi6p4F2z9B5EkpZAIElLqKWpCuxX4GyIM4HDgaciSZIkLYFEJiFJkiQtjYBNAbd1KNfUxPsqqltmmNuKJC2RQJKWQUszkeG5wDkQJwPPA9YhSZIkLaJEJiFJkiQtroB+wIYKPjcBH1wF104x/zCStMQCSVpGLc3aDLPAGRAnAc8BJpAkSZIWQSKTkCRJkhZNqeCuCq7tUC7ukq9ouPm7SNIyCSRpBbQ0T8nEccBpwInAgUCFJEmStBMSmYQkSZK000oF9wdcW8HHJymXT9P7BpK0zAJJWkELNPsGcRLwcuBFwN5AhSRJkrQDEpmEJEmStOMCHqngSxV8tEO5bJbeV5CkFRJI0gpraToZDoY4BjgHOB5YgyRJkrSdEpmEJEmStP0CtlZwS8DfdChfrKlvmGHuMSRpBQWSNCBamk4fDgviBVBeCzENdJAkSZK2USKTkCRJkrZL6cA9Ae8O+HyX6nMzzD2KJA2AQJIGTEuzug/TFXF8gQuAg5EkSZK2QSKTkCRJkrZNDY/U8HfAR9fBF6aYfwBJGiCBJA2olmb3TDwPOA84D9gTSZIk6UkkMglJkiTpyQX0O5SrCvGOVZTbpul9HUkaQIEkDbAFGr5v3yBmgNcBpwKrkSRJkh5HIpOQJEmSHl9A6VBug3hnh3IdcNssPSRpUAWSNOBaGgp0C/wcxBHAbwDHIEmSJP2ERCYhSZIk/bQa7g14e025pqa6M4hHZ5hDkgZZIElDoqUhwwSwP/BSiN8EnoUkSZL0Q4lMQpIkSfpfani0C38CfBBioSYenWGuIElDIJCkIdPSRIbJgGdAvKbAG4B9kCRJ0thLZBKSJEkS1PBYBy6uKO+qiPlJeGSK+YIkDZFAkoZUSxOF6GbKYUG8FTgD2BVJkiSNrUQmIUmSpHEWkGuY61D+zyCuqCmbp+llJGkIBZI05BZoCCKgHA/xH4FjgDVAhSRJksZKIpOQJEnSGCoBW2v4WofyX/vEX3UoZZYekjTMAkkaIS3NqgxnQvwGMAWsBiokSZI0FhKZhCRJksZIATbXcHcX/rametcMcw8iSSMikKQR1NI8tQ9vCOK1wEHAWiCQJEnSSEtkEpIkSRoHAVsCvt2Fy9fCH0wxvwFJGjGBJI2wlubQPlwQxJnAgcAqJEmSNLISmYQkSZJGXK7g3i58oUv5i2l6lyNJIyqQpDGwQPOiIN4IvBA4AKiRJEnSyElkEpIkSRpVFTwA3DBJuXCW3nuQpBEXSNIY2UBzPsQvAg2wP5IkSRopiUxCkiRJo6aCjQXmJinXHEHvPyNJY6KDJI2RCv6hUD5Z4HyIc4HDgL2QJEmSJEmSNHACHgnodeELNfGHQXU3kjRGAkkaQy1NVeDADK8O4mRgCtgdSZIkDbVEJiFJkqRhV8FW4I4arloFf9WFL08xvxVJGjOBJI2xlmayQJPhtCBeChwOrEKSJElDKZFJSJIkaVgFlIC2hqu6lEsquGKaXkKSxlQgSWKBZl0QRwGnAycBzwY6SJIkaagkMglJkiQNowruC7iipnyyplw2y033IUljLpAk/cgGmr0gXgScDJwEHIgkSZKGRiKTkCRJ0jCp4KGAa2r4VAcuXc98iyTpBwJJ0r/S0tQZ9oN4MXAacDywJ5IkSRp4iUxCkiRJwyDgsRpurOAjFeWfa+pbZ5jbjCTpRwJJ0uNqaSb78MwgTgTOBo4A1iJJkqSBlcgkJEmSNMgC+jV8NeDDNXx8DfSmmN+IJOmnBJKkJ9XS7NqHZwVxIvA64BCggyRJkgZOIpOQJEnSoKrgOzXlQxVxYZdyyzS9e5AkPaFAkrRNFmh2D+IQ4GzgdcDeQCBJkqSBkcgkJEmSNGgCHuvCZX141wR5YZabvoEk6WcKJEnbZQPN3hDPg/IqiF8GaiRJkjQQEpmEJEmSBkVA7lK+kKneMUG5aT3zdyJJ2maBJGm7tTR1hj2DWJ8pvxbEy5AkSdKKS2QSkiRJGgQduLsLv1soV9fUd80wtwVJ0nYJJEk7rKXp9mHvCk7L8OYgDkOSJEkrJpFJSJIkaSV1YGOH/I5C9Q9r4O7nM/8okqQdEkiSdkpLQ4HJAnsFcW6B3wH2QpIkScsukUlIkiRpJQT0JyjvD+JPavJdFeXRhpsLkqQdFkiSFkVLQ4FuhgOC+HXgl4HVSJIkadkkMglJkiQtp4DSoXymgt8K+EoHNk/TK0iSdlogSVp0LU03QwPxVuAUYFegQpIkSUsqkUlIkiRpGZSAzR3KrR3i/6qoLp1h7lEkSYsqkCQtmZZmXYYTIX4NOBJYDdRIkiRpSSQyCUmSJC2hErCpgrsm4P2r4a+nmL8XSdKSCCRJS66l2TPDeRD/FngusA4IJEmStKgSmYQkSZKWyGM1fKtLubhL/vOGm/8nkqQlFUiSlk1L8/RMvAk4HXgmsBoIJEmStCgSmYQkSZIW2ZaAb9Vw9SrKn03T+xckScsikCQtuwWamSD+A/BC4EBgFZIkSdppiUxCkiRJi6RfwX0BN0xQ/nKW3kVIkpZVIElaES3NqgwvgXg1cDRwIFAhSZKkHZbIJCRJkrSTSgUPAtdNUK6oqf96hrkHkSQtu0CStKJamj36cEYQZwLHAHsjSZKkHZLIJCRJkrSjKtgEfLYDX+hS/ckMcw8gSVoxgSRpILQ0e/Thl4I4ETgSeAqSJEnaLolMQpIkSdsroB/w5Q58bh386RTzdyJJWnGBJGlgtDQBPDcT5wInAdPAWiRJkrRNEpmEJEmStlVACdhQwWWTlI8F/PM0vYIkaSAEkqSBs0AzARwVxOnAScDzgC6SJEl6UolMQpIkSduignsDLutQLq/gwll6jyJJGiiBJGkgtTRRYI8CR0OcDJwGHIQkSZKeUCKTkCRJ0pOpYGPAJ2rKVTXxqYrqrhnmMpKkgRNIkgZaS1Nl2Ad4EcSpwMnAnkiSJOmnJDIJSZIkPZ4KtlTw6YBPVvDJDtWGGeb6SJIGViBJGgotTSfDQcDxEGcBxwK7IEmSpB9JZBKSJEn6cQH9Cm6u4MMduHQ13DLF/GNIkgZeIEkaKi3NmkwcDJwAvAqYBiaRJEkSiUxCkiRJP1RquLuCD1ZwUZdyyzS9B5AkDY1AkjSUFmh2C+JQ4HTgVcAzgBpJkqQxlsgkJEmSVMH3aspFhXh/l7IwS+8eJElDJ5AkDa2WpsrwVIiDobwK4rXAHkiSJI2pRCYhSZI0vgIe68JnCvxpTbnlCHp3IUkaWoEkaei1NFWGPYKYypRfDeJ0YBJJkqQxk8gkJEmSxk9A7sCtHfi9AtfXVN+cYW4rkqShFkiSRkZLU/dhjwqOy/CWII4FAkmSpDGRyCQkSZLGSxfu61D+OBN/txbunWJ+M5KkkRBIkkZOS9Ptw1rgdUH8NrAvkiRJYyCRSUiSJI2HCvoTlH/MxP82Qdk4Te9RJEkjJZAkjawFmk4Qu0F5O8TrgXVAIEmSNKISmYQkSdJoC8gTlBsynNmB+2fpbUaSNJICSdLIa2mqAs8s8DaIfwNMAjWSJEkjJpFJSJIkjaQCbJqAW2viVyvi+hnmtiJJGmmBJGlstDQTGY4u8B+DOAZYC3SQJEkaEYlMQpIkaaSUgEdr+MYk/MEkXDjF/EYkSWMhkCSNnZZm9wynF7ggiGlgF6BCkiRpyCUyCUmSpNEQ8EgN3+jChTXl3dP0vo4kaawEkqSxtUBzUBCvAc4EDgF2AQJJkqQhlcgkJEmShlvApoBv1JQrOpT/PstNNyNJGkuBJGnsbaCZgrgAOBF4FrAWSZKkIZTIJCRJkoZTwJaAuyu4fgLeu575K5EkjbVAkqTva2kmMhwB8XrgWOAgYBJJkqQhksgkJEmShk6/gnsDru9SPlRTf3yGuY1IksZeIEnSj2lpdu3DS4I4DzgK2B+okSRJGgKJTEKSJGlolApSwJc6cPFa+OAU899EkqQfCiRJehwtzQF9eFkQpwLHArsDgSRJ0gBLZBKSJEmDL2BTBTd24J+7lI9N0/sSkiT9hECSpCexQHNIEGcCJwMvBCaRJEkaUIlMQpIkaaCVGm4vcNEk+fJZbroKSZKeQCBJ0jbYQHMkxBnAS4CjkSRJGkCJTEKSJGkw1fCNAh9bBVetZ/7DSJL0MwSSJG2jlmZ1hqMhzgROBJ6HJEnSAElkEpIkSYOlggcruLimXFlTfXw9X34ASZK2QSBJ0nZoaaLAUzMcG8RZwAnAfkiSJA2ARCYhSZI0GCrYVFEuq4hLV8EVHfjqFPMZSZK2USBJ0g5oaToFnl7gFyDOAE4D1iFJkrSCEpmEJEnSygrIFVxbw4Ud8mdqyu0NN29GkqTtFEiStBNamolCHFjgRcB5wHFAF0mSpBWQyCQkSZJWTg23B3yghsu7lFun6T2CJEk7KJAkaREs0KwJ4hDgJOA84DCgiyRJ0jJKZBKSJEnLr4ZvV/BPARfWlC/P0nsQSZJ2UiBJ0iJpaaoMu0AcCuVsiPOBA5AkSVomiUxCkiRp+VTwcAcuq+AvoXyppr5vhrk+kiQtgkCSpEXW0tR9eEoFzy/wRojTgd2QJElaYolMQpIkaekFbO3ADTX5XVBduwbum2J+M5IkLaJAkqQl0tJ0+rBbBesL8TbgKKCLJEnSEklkEpIkSUuq1PDVCcp/zcQnJujf33DzJiRJWgKBJElLrKXpZGJtoZwWxO8DzwACSZKkRZbIJCRJkpZGBQ9NUN69hXjHasrD0/Q2IUnSEgokSVomCzR1BXsU+CWItwJ7A4EkSdIiSWQSkiRJiytg0yTlU0H1G5C/PktvK5IkLYNAkqQV0NLs34ffDeJ8YA1QI0mStJMSmYQkSdKiKMAjE3BHl+qMGea+gSRJyyyQJGmFtDRR4NAM7wziaGBXoIMkSdIOSmQSkiRJO6UEbOzAt9bAm2v49BTzGUmSVkAgSdIKa2kmC5xUiLcCDfAUoEaSJGk7JTIJSZKkHRPwcAV3TVDeX8N7p+klJElaQYEkSQNigWYP4LwgXg08F9gNqJAkSdpGiUxCkiRp+wQ8FnBXh3JZDe+YpXcXkiQNgECSpAHS0tQZngXxi8CpwCHALkiSJG2DRCYhSZK0bQK2AF/tUK7vEO+rqK6bYW4zkiQNiECSpAHU0nT6MBPEa4HjgWcCq5AkSXoSiUxCkiTpyQXkgLsquLGGv+5QXT7D3GNIkjRgAkmSBlhLs6YPxwfxSuAY4ECgiyRJ0uNIZBKSJElPqFTwnQpu7MCH18BHppi/H0mSBlQgSdIQaGn2zsRLgTOAY4B9gBpJkqQfk8gkJEmSflrAxgpurOGSCcpHp+ndgSRJAy6QJGmILNAcHMQpwCnAUcBuQCBJkvR9iUxCkiTpfwnYXMFtAZd0KZ+Ypfd5JEkaEoEkSUOmpZnIcBjECcDLgBcCXSRJ0thLZBKSJEk/kGvYAHykS/l8TX3lDHMPI0nSEAkkSRpSLc1EhlmIlwKvAA5HkiSNtUQmIUmSxl0N9wf8XQc+W1NdNsPcRiRJGkKBJElDrqVZ14djgjgNOA14BpIkaSwlMglJkjSuanisgk8FXLgOLp9i/l4kSRpigSRJI6Kl2bcPs0GcB7wceAqSJGmsJDIJSZI0bgJyDTdU8O4u5foZel9BkqQREEiSNEIWaGrgGUEcCVwAHAtMIkmSxkIik5AkSeOkA22Bd3YpXwqYm6W3BUmSRkQgSdII2kAzCRwC8QLgAuBIJEnSyEtkEpIkaRzUcE/Aeyq4sqJ86Qh6jyBJ0ogJJEkaUS1NZFgLPAs4DeL1wMFIkqSRlcgkJEnSKKvh4Rr+voJ/CGK+Ih6cYS4jSdIICiRJGnEtTZVhF+D5wPkQZwM/hyRJGjmJTEKSJI2iCjZ34LMV/EUF166C704x30eSpBEWSJI0JlqaOsMuBY4O4s3A8cAaJEnSyEhkEpIkaZQElBruqCl/EsRFHcqD0/Q2I0nSGAgkSRozCzSdIFZDORPiN4HnAx0kSdLQS2QSkiRpVNTwrS78P1vh3V3KI7P0NiNJ0hgJJEkaUxtoqoBdC5wD8Tbg6UCFJEkaWolMQpIkDblSwQMTlL8Pqv87KPesZ76PJEljKJAkSbQ0T+vDm4L498CeQBdJkjR0EpmEJEkaUjkgTcDVa+F3ppj/CpIkjblAkiT9SEsz3YdfD+JlwJ5AjSRJGhqJTEKSJA2bgIe6cMcE5Q+n6X0ISZL0A4EkSfopCzTHB/G7wPOBpwIVkiRp4CUyCUmSNCwCNgZ8bZL8nllu+jMkSdK/EkiSpMe1gaYLvBbil4BnAXshSZIGWiKTkCRJgy7gYeCrq+DKgN9ez/wmJEnSTwkkSdITammiwNMKvBri1cBBwO5IkqSBlMgkJEnSoArYBLRdyrU18ccV1e0zzGUkSdLjCiRJ0s/U0nQyHAq8BuIU4BnAOiRJ0kBJZBKSJGnQBPQD7q7hixPwvkm4Zor5x5AkSU8qkCRJ26ylWZfhmAKvCOLFwDOBCSRJ0kBIZBKSJGmAlAq+UcENXfhkTfnoNL37kCRJ2ySQJEnbbYHmqUGcAJwGvBB4OlAjSZJWVCKTkCRJgyDguwHXd+DjE5SPT9P7JpIkabsEkiRphy3Q7BvEy4FTgKOBpwEVkiRpRSQyCUmStJICHq7gywGXdikfnaV3C5IkaYcEkiRpp7Q0nQzPhjgJOBU4GtgFSZK07BKZhCRJWgkBWyq4vYJP1JRP1dRfnGHuMSRJ0g4LJEnSomhpVvfhsCBOAs4CDgcmkCRJyyaRSUiSpOUUkCv4ZlAuqonL18Lnpph/AEmStNMCSZK0qFqaXfuwPojjgdcCBwAVkiRpySUyCUmStFwqSDX8UwWXTtC/ruHmbyJJkhZNIEmSlkRL89RMHAmcArwO2AVJkrSkEpmEJElaagH9DlyR4X+spnxpml6LJEladIEkSVpSCzT7BXEM8CrgFGA1kiRpSSQyCUmStFQCSodyWyb+eILyxVl6NyFJkpZMIEmSllxL08nwDIhjC+UNQbwASZK06BKZhCRJWgoduLeGPwvK5TV1b4a5x5AkSUsqkCRJy6KlocCaAs8EXlbg3wXxbCRJ0qJJZBKSJGkx1fBoB/4IuGQSbu/Ag1PMFyRJ0pILJEnSsmppIsM64OAgzi1wAbAvkiRppyUyCUmStBgq2NKBiwL+ogtfnoDvTTGfkSRJyyaQJEkroqWpCrE2U6aCeBNwFrAbkiRphyUyCUmStDMCcgduqCj/JeDaDjw0Ta+PJEladoEkSVpRCzRVwG7AsRBvAY4FJpAkSdstkUlIkqQd1YGv1/CuIP4xyPfN0tuKJElaMYEkSVpxLQ0ZqoA1Gc4J4reAQ4EaSZK0zRKZhCRJ2k65ggc68O6aeBeUByqq/gxzSJKklRVIkqSB09Ls3oc3B3EBsD/QBQJJkvSkEpmEJEnaRv0KvjcBF6+B35tivkWSJA2UQJIkDayW5jmZeAtwKvBzwASSJOkJJTIJSZL0M+SABztwwyTlHdP0rkSSJA2kQJIkDbwFmuOC+FXgGOBpQAdJkvRTEpmEJEl6AiUgVXDrBOV/zNJ7H5IkaaAFkiRpKLQ0azKcCfF6YBrYC0mS9K8kMglJkvSTAh4OuGWCcmVN/UczzH0HSZI08AJJkjRUWpq1ffiVIM4BDgH2QJIk/UAik5AkSf+/gM3ALZPw+Zrq92aYuw9JkjQ0AkmSNHRaGgockOGXg3gZcAiwG5IkjblEJiFJkgK2BtxZww1r4A9r+PIU8wVJkjRUAkmSNLRamm6B6Qz/JoiTgWcDq5AkaUwlMglJksZaqeCbNVzTpXykgoun6T2GJEkaSoEkSRp6CzTrgOODOAM4HjgQ6CBJ0phJZBKSJI2nCh4ArupQrqzhH2fpfRdJkjTUAkmSNDI20OwFvBziZOA4YH8kSRojiUxCkqTxUsHGgM9XcHVN+fsj6H0VSZI0EgJJkjRSWpo6w4EQLwVOBY4B9kCSpDGQyCQkSRoPAZsrmKvgkx24uKK6aYa5LUiSpJERSJKkkdTSTPThuUGcDJwCrAfWIUnSCEtkEpIkjbaAfg13BlzSgY+vhn+ZYn4jkiRp5ASSJGmktTS7ZngexCnAOcCzgS6SJI2gRCYhSdLIKhV8t4ZLKvinLuXGaXrfQpIkjaxAkiSNhQWavYOYAs4BzgaeBlRIkjRCEpmEJEmjp4KNNVxe4ANdyldm6W1AkiSNvECSJI2VDTQHQBwOnAG8BliDJEkjIpFJSJI0OgK2dCjXFeI9E3DjeuZvQ5IkjY1AkiSNnZamzvBzQfxCprwuiFOBCkmShlwik5AkaSSUDtxZwzuDcm1N/T9nmNuMJEkaK4EkSRpbLc1EH/at4OUZ3hTE4UiSNMQSmYQkScOtAxtryvsK8ZfroJ1i/mEkSdJYCiRJ0thradb2Yd8gXgm8BdgbSZKGUCKTkCRpOAX0u5QPQfy3Ccpd0/TuR5IkjbVAkiTp+xZoAlgTxEFQ3gLxGmANkiQNkUQmIUnScAkoXfgi8NaKfEfAg7PcVJAkSWMvkCRJ+jEbaCJgXYHDIX4TeAWSJA2JRCYhSdLw6FJuq4i3V8SVQXlgPfMZSZKkHwokSZJ+QktDgQDWFXgJxP8OHAXUQCBJ0oBKZBKSJA28XMM9k/CuCfjAJrivoiozzCFJkvTjAkmSpJ+hpdknw/kQFwCHABNAIEnSgElkEpIkDawtNdzfhUs6lD+apncLkiRJTyKQJEnaRgs0BwfxK8BZwH7AJBBIkjQgEpmEJEkDZ2vA/R3450nKH07Tm0OSJGkbBJIkSdtpgaYJ4i3A8cA+wCQQSJK0whKZhCRJA6Mf8EAFN05Q/nyW3sVIkiRth0CSJGkHtDSrMhwPcQFwFLAvUCNJ0gpKZBKSJK24EvC9Cm7qUi6sqf96hrkHkSRJ2k6BJEnSTmhpdu/DK4I4D2iAPYFAkqQVkMgkJElaORU8CtzchU+vhfdMMd8iSZK0gwJJkqRF0NLs34fXBHEycCSwBkmSllkik5AkafkF5IBeB744Sf+9DTffiCRJ0k4KJEmSFlFLc0gmfgU4BpgGukiStEwSmYQkScurghb47BrK307TuxJJkqRFEkiSJC2yBZoKOC6IVwNHAc8BukiStMQSmYQkScujgvuAqycolwb8zSy9PpIkSYsokCRJWgItTRTYrcBLIE4HXgwchCRJSyiRSUiStLQq2Bjw2Q7lyprqQ0HcPcNcQZIkaZEFkiRJS6ilqTPsB5wIcSpwHLAnkiQtgUQmIUnS0qhgS8BnKrhqEi6dgFummN+CJEnSEgkkSZKWQUszkeFZwAkQLwdeAOyKJEmLKJFJSJK0uAL6FfQquLQLH10FN00xvwlJkqQlFkiSJC2jlmZ1IQ4tcBLwCqABViFJ0iJIZBKSJC2OgFLBXQEfqeHiLuXGaXoPIkmStEwCSZKkFbBAs1sQPw+8HDgbOBiokSRpJyQyCUmSdl4FD1RwWcA/dSjXzdL7FpIkScsskCRJWiEtTZVhb4jnQXklxDnAnkiStIMSmYQkSTsuYFMNVwW8t6b0auqvzTC3BUmSpBUQSJIkrbCWpurDvkEcXihvCuJEYDWSJG2nRCYhSdL2C8gd+EoF7yxwfZfqzhnmtiBJkrSCAkmSpAHR0nT7sG8FLyjEW4D1QAdJkrZRIpOQJGm7lA58u6b8OcSFa+FrU8w/iiRJ0gAIJEmSBkxLsyoTexXKOUH8OnAQkiRtg0QmIUnStqngsS7l7zPxB5OU+6bpfQ9JkqQBEkiSJA2oBZrVFbF/ofwqxBuAdUiS9CQSmYQkSU8uoExQrofq1yryHbP0HkKSJGkABZIkSQOspYkMq4CDCvy3IE5HkqQnkMgkJEl6YhNwWxBvDHKvpn54hrmMJEnSgAokSZIGXEtD4QcmChxR4PeDOBboAIEkST+UyCQkSfopWztw7yr4rRo+toV4JIgywxySJEmDLJAkSRoyLc0uGc4o8OYgGmAVEEiSxl4ik5Ak6Ue2dODeLuVva/jTaXr3IEmSNEQCSZKkIbVAs18QbwDOAw4CVgOBJGlsJTIJSZLYGnBfl3J1Df9llt7NSJIkDaFAkiRpyG2geT7EfwBOBPYHViNJGkuJTEKSNK4CtgLfqWG+Q3nHEfQ+jSRJ0hALJEmSRkBLM5HhGIg3AscC+wATSJLGSiKTkCSNoRzw3Rpu6sAHaqoLZ5h7GEmSpCEXSJIkjZCWZpc+nBLELwLrgacBHSRJYyGRSUiSxkip4HsBt3bho2vgb6aY/xaSJEkjIpAkSRpBLc0BfTgtiFcA64HdgUCSNNISmYQkaRwEbKrgtg5c1qV8cJrejUiSJI2YQJIkaYQt0BwexJnAy4GfB9YgSRpZiUxCkjTKAvoBdwZcNkH55Cy9S5EkSRpRgSRJ0hjYQPNiiFOBFwJHIUkaSYlMQpI0qmr4eoErupTPHEnv/0WSJGnEBZIkSWOipVmV4WiI84FjgUORJI2URCYhSRo1FTwU8Mku5Yqa+sIZ5h5CkiRpDASSJElj5k6aPTKcEMQrgBcB+yJJGgmJTEKSNCoq2FTBdRVcvAYuOoz5FkmSpDESSJIkjaGWpi7wjAzHBXEGcAKwDknSUEtkEpKkYReQK8qNFXFhl3J1BTdM09uCJEnSmAkkSZLG2ALNBPCcII4HzgV+AZhAkjSUEpmEJGmY1dACf1tTPl1T/mWWmx5BkiRpTAWSJEliA81a4DCIE4BzgQZJ0tBJZBKSpGFUwT0VXFjDp2r43HrmH0CSJGnMBZIkSfqBlqbKsBvE4cAZwNnAQUiShkYik5AkDZMKNtbwqQr+sYIvVFT3zDDXR5IkSQSSJEn6V/4/9uAEzNqyPuzw7/++55yZb0HZBAVEVDDqqLwzDBZFIaIsIptgkqKJa0JqtNWkadosbZrG5EpilkZNYi4X3KpxiwvuoICoCETHOXxo0fl4XcMioPCwfct5nnpZmxpZ/JZZzvK775amzrAv8HjgbIgTgb2RJA29RCYhSRoFFWyr4UsVvKGC89fBt2dY3IokSZL+RSBJkqR71NJMZdi3wNFB/BpwFDCFJGloJTIJSdKQKzUsdSh/E8RHOpRrZ+nfhiRJku4mkCRJ0n1aopkOYp9COT6I/wQ8EqiQJA2dRCYhSRpWFXy3S3ndgHjdFPnGOa68DUmSJN2rQJIkSTtkiWaqIh5UKM+GeDFwIBBIkoZGIpOQJA2bCu7sUj5cqP5HTW7n6d+GJEmSfqpAkiRJO6yliQzdgEMy/GYQLwA6SJKGQiKTkCQNkdyD/jS8bCvlipr6rjkWCpIkSdohgSRJknZaS8MAoobHDuAvg3gS0AMCSdKaSWQSkqQhsK0HN00xeMkW6vdvhDzDIpIkSdo5gSRJknZLS1MXOKEQfwo8FNgABJKkVZfIJCRJa2hLBd+bpvx5Ba+apb8NSZIk7bJAkiRJy2KJZiPw/CBeChwAbAQCSdKqSWQSkqTVFrAVuLFHOa+C35unfyOSJEnabYEkSZKWTUtTFzikwAshngkcDGxAkrQqEpmEJGm1BGwPuKFDubwm/qyi+qc5FrYhSZKkZRFIkiRp2bU0UxmOAF4A8VTgQcA0kqQVlcgkJEkrLSAD19ewqQdvmIaPzLCYkCRJ0rIKJEmStGJamj0yPBXibODxwAFAD0nSikhkEpKkFVQCbqrhyx3KP3Qo75nlyu8iSZKkFRFIkiRpxbU0D8jE04EzgSOB/YEaSdKySmQSkqSVEJAquKqGD/Uo75ylv4QkSZJWVCBJkqRVs0Tz8CBOB54OHAHsCQSSpGWRyCQkScspYEsFXws4v0t51zz9zyNJkqRVEUiSJGlVtTS9DIdDnAScDMwCU0iSdlsik5AkLZNBBd8I+HCX8qma+vw5Fm5HkiRJqyaQJEnSmmhpegN4chAnAqcChwE1kqRdlsgkJEm7qdRwc8D7Kvh0l+p9cyzchiRJklZdIEmSpDXV0uwxgOODeBpwGnAgkqRdksgkJEm7qoItFXy0go9thA/MsHgdkiRJWjOBJEmShkJL86BMHAs8EzgB2BNJ0k5JZBKSpJ0VkGv4AnDuNOWSWfqbkCRJ0poLJEmSNDSWaPiBRwbxFOBM4MnAFJKkHZLIJCRJO6MDLfCmDuXigE/P0y9IkiRpKASSJEkaKi0NBdYVeDTEk4HnA4cjSfqpEpmEJGlH1HAz8LcdymdqqsuCuGWOhYIkSZKGRiBJkqSh1NJEho3A4yCeBjwHOAxJ0r1KZBKSpPtSw20V/K+AD1fEpTVx0xwLBUmSJA2dQJIkSUOtpaky7Ak0wJkQZwAHIkm6m0QmIUm6JxVs6cBFAed24DNTcP0Mi9uRJEnS0AokSZI0ElqaToa9C/ybIH4ZOA7YiCTpXyQyCUnSjwsoNXyloryqJj5WU66bpb8FSZIkDb1AkiRJI2WJphfEXlBOhHgp0ABdJEkkMglJ0v9Tw/U15W8K8eYO5cZ5+ncgSZKkkRFIkiRpJG2mmQpi30L5OYiXAYcgSRMukUlIkiq4tQv/APGXQf7WkfTvQJIkSSMnkCRJ0shqacjQDTgww8uCeB6wF5I0oRKZhCRNroBtPbh4Cv7LVthUU22dY6EgSZKkkRRIkiRp5LU0DIAamgH8RhCnAXsAFZI0QRKZhCRNnBKwtQdf6VJesY147wZghkUkSZI02gJJkiSNnSWaU4L4LaABNgKBJE2ARCYhSZMjYGvAt6cob5yn/0dIkiRprASSJEkaW5tpXgpxDvBgYE8kacwlMglJGn8BdwHXT1EuPpL+85AkSdJYqpAkSdLYquA1QXkKlD8CvgrciiRJkkZWwLaAr/co71lHPKWmfh6SJEkaW4EkSZLGXktTFzgswy8HcSpwELAeSRoziUxCksZPwAC4vgNfmIa/6sJnZljchiRJksZaIEmSpInR0qzPcHSBs4M4BjgY6CJJYyKRSUjSWCkBN9TQ71LeW8O7Zul/D0mSJE2EQJIkSRNniWbPIE4Efh44EjgAqJGkEZfIJCRpPATcEvClmvLhDuXt81z5HSRJkjRRAkmSJE2szTQHQZwBnAQcCeyHJI2wRCYhSaMt4PaATTVc1IW3HsHiVUiSJGkiBZIkSZpoLU0nw2EQpwMnAQ1wfyRpBCUyCUkaTQFbA75Ww/k15f019WVzLNyFJEmSJlYgSZIk/UBLs24AhwdxOnAi8ChgGkkaIYlMQpJGS0Cu4NqAT3bg/evhohkWv4ckSZImXiBJkiT9mJZmnwEcGcRJwGnAwUCNJI2ARCYhSaMj4Jaacn5NfKhLuWSW/jVIkiRJPxJIkiRJ92CJ5kFBPAE4AXgWsDcQSNIQS2QSkjT8ArbUcGGBd/XIl81z5ZeRJEmSfkIgSZIk3YclmoODOBY4DXg6sAFJGlKJTEKShldArimbCvH6HuUz8/QXkCRJku5FIEmSJP0ULU03w8MhjimU5wZxNJI0hBKZhCQNpw7cUMFrKsqFNfUX5li4E0mSJOk+BJIkSdIOamnWD+CRQRxfKC8M4hFI0hBJZBKSNFxquKOmnAvxvg2w8BgWb0aSJEnaAYEkSZK0E1qaKHC/Ao8K4vQCvwrshSQNgUQmIUnDISB34D0Bb+yS+xXluoZNBUmSJGkHBZIkSdIuaGmqAnsV4rHAC4GfA6aRpDWUyCQkaW0FlBouC/izmnJ5B66fpb8dSZIkaScFkiRJ0m5YoukE7AscDXEOcCwwhSStgUQmIUlrpwNtBa8K+GBF+fY8/a1IkiRJuyiQJEmSdlNLQ4ZuwP4FToV4CTCDJK2yRCYhSauvgu/34E0deN0ArqmotsyxUJAkSZJ2QyBJkiQtk5YmMtQBBxX4ZYgXAg9CklZJIpOQpNVTwZYu5SMdyh9nqv462DbDYkGSJElaBoEkSZK0QlqaQzPx68BZwL5AjSStoEQmIUkrrgTc2YVLe5RXzNK/CEmSJGkFBJIkSdIKW6J5UhC/DjwZ2BuokaQVkMgkJGnFlIA7K7i6R3n1PP1zkSRJklZQIEmSJK2ClmZ9htMhzgEeB+wFBJK0jBKZhCQtv4A7A67pUc6rqf9ijoUbkSRJklZYIEmSJK2ilmbDAF4cxLOBQ4E9kKRlksgkJGn5BGwHvtaFy7pUvzXHwneRJEmSVkkgSZIkrYGWZv8B/E4QxwEPA9YjSbspkUlI0u4LyMA3u3DVRvitGRa/jCRJkrTKAkmSJGmNtDQBzGfiHOBJwEOBKSRpFyUyCUnaLaWC6yv44hTlLQHvnqWfkSRJktZAIEmSJK2xJZpp4MQgfgE4CjgYqJGknZTIJCRp11TwfeCLXcpHK/j7efoJSZIkaQ0FkiRJ0hBoaaoC+xc4GeIZwBOB/ZGknZDIJCRp51RwG3B5h/K5mnh7RfXVORYGSJIkSWsskCRJkoZIS1NleChwBsTxwDywD5K0AxKZhCTtmICtFXyphgtreGdFtWmOhW1IkiRJQyKQJEmShlBL08vwKOBUiBOABtgDSboPiUxCku5bwKCCzRV8sgPvXQefn2HxdiRJkqQhE0iSJElDrKW5X4bDC5wcxKnAYUAPSboHiUxCku5VqeC7FXy8Ax/oUD47S/86JEmSpCEVSJIkSSNgiWb/IOaA04BTgAOACkn6MYlMQpLuroLbK7gQeEeXcsU8/a8hSZIkDblAkiRJGiGbaR4CcSRwBnAqcD8k6UcSmYQk/X8BW2v4J+DNHcplR9JfRJIkSRoRgSRJkjRiWppOhkMgngDluRDHAD0kTbxEJiFJP5Q70Fbwmgo+W1P151jYgiRJkjRCAkmSJGlEtTRTAzi0Ip6aKc8NYg4IJE2sRCYhadJ14HsV5U1BvHsDbJphMSFJkiSNoECSJEkacS3NHgN4MPBLQbwQ2A9JEymRSUiaVAGDLuVjEH/Qo3xzlv71SJIkSSMskCRJksbEEs3eQRwC5dchzgTWI2miJDIJSZMmoHTh8xl+s0v51jz9byFJkiSNgUCSJEkaI5tpAtgXeCzwHyFORtLESGQSkiZJl/LlIP6ghksDvnMEixlJkiRpTASSJEnSmGlpKFADexc4tsDLgzgaSWMvkUlImgQ13NCDP6/gnRmurai2zbGAJEmSNE4CSZIkaUy1NGSoAx5Y4GyIc4BDgUDSWEpkEpLGWKnhji68t6L8WRBXT8FghsWCJEmSNIYCSZIkaUIs0RwSxEuA5wAPADpIGiuJTELSGMoBd3Yon+pQ/nCeK69AkiRJmgCBJEmSNGE208xD/AZwHLA30EXSWEhkEpLGSA64vYZNPXjlESy+D0mSJGmCBJIkSdIEammmM/wsxMuAeWBPoIOkkZbIJCSNgRJwWwVf7VLeUlO/eY6FW5AkSZImTCBJkiRNsJZmrwE8M4gXAI8G9gQqJI2kRCYhaZQF3BXQduFDG+BvZ1j8OpIkSdKECiRJkiTR0hw6gLODOAWYATYgaeQkMglJoyhgW8BSF67oUs6dpX8RkiRJ0oQLJEmSJP2LJZomiBcBxwKPAjpIGhmJTELSqKng68Dn11NeP0v/k0iSJEn6oUCSJEnS3WymOQHiucARwKFAB0lDL5FJSBoVFdwIfH6K8o/z9M9FkiRJ0r8SSJIkSbpH19DsUeAkiDOBJwIHI2moJTIJScOugtsDLu1QLqyp3nAEX7oeSZIkSXcTSJIkSbpXLU1V4IAMzwjiFOAoYF8kDaVEJiFpWFWwLeCKCi5eB//QgatmWBwgSZIk6R4FkiRJkn6qlqab4TDgZIiTgCcC65A0VBKZhKRhE1Aq6FdwQZd8Xk25rGHTXUiSJEm6T4EkSZKkHdbSTBficQWeAZwMNEAHSUMhkUlIGiYVfCPgwx34UJfyuVn6tyBJkiRphwSSJEmSdtoSzf2DeDxwMnAScCjQQdKaSmQSkoZBBTcHXFDBBzqUC+fpX4skSZKknRJIkiRJ2iUtTZ1hP4jHA6cDJwP7I2nNJDIJSWsp4M4aLq3hnUH5dE29eY6FbUiSJEnaaYEkSZKk3dLSdAfw4CCOgnI2xM8CG5G06hKZhKS1EDCo4csV5U0V8an18NUZFu9AkiRJ0i4LJEmSJC2LlmZ6AA+piKMLvAR4HNBB0qpJZBKSVlNAqeBbNbwh4MM9BksNm25BkiRJ0m4LJEmSJC2rlmZ9Jg4plJOD+BXgUKBC0opLZBKSVksFt3Yo7yrE30xRvjlL/2YkSZIkLZtAkiRJ0opYorlfEA+D8ksQLwD2QtKKSmQSklZawKBL+TRU/6Mmf3me/g1IkiRJWnaBJEmSpBXT0lQZ9gjiwZnyiiBOR9KKSWQSklZSF74ZxNkVeXNNfeMcCwMkSZIkrYhAkiRJ0opraWIA96tgNsNfBDGHpGWXyCQkrYQupB782nb4eIfqpjkWMpIkSZJWVCBJkiRpVbQ0FKiA+wFnFOJ3gIcDFZKWRSKTkLSMSg139ih/F/DKDnFjBwYzLCJJkiRp5QWSJEmS1sQSzX7ArwbxQuBAoAMEknZZIpOQtAxywO1dyidq+M/z9DcjSZIkadUFkiRJktZMS9PJ8BiIFwPPAPYDukjaJYlMQtJuyAG3dij9DvHKiuqCORbuQpIkSdKaCCRJkiStuZamO4AnB/EfgCcAewMdJO2URCYhaRfkgFsq2NyBV3eo3jPHwh1IkiRJWlOBJEmSpKHR0mwcwBlBvACYAfYBOkjaIYlMQtJOKAG3VbC5C/+wHt40w+L1SJIkSRoKgSRJkqSh09IcmOEMiGcBhwP3Byok3adEJiFpRwTcVcE1HfhEl/LmWfpfQpIkSdJQCSRJkiQNrSWaxwbx88BJwKOA9UAg6R4lMglJ9yVge8C3Ai7sUd4zT/+jSJIkSRpKgSRJkqSht5nmZyHOAo4BZoAaSXeTyCQk3YtcwXXAp3uUjx9J/01IkiRJGmqBJEmSpJHQ0kxneBrEWcAxwMOQ9K8kMglJP6mCFHB+Fy6uqd48x8ItSJIkSRp6gSRJkqSR0tLsOYDTgzgNeALwICT9UCKTkPT/VLA14LIaPrER3jLD4jeRJEmSNDICSZIkSSOnpeEHDh3A8UE8E3gCsBFpwiUyCUkBuYL/XcN7u5RPBHxmlj6SJEmSRksgSZIkaWQt0XSBJojjgDOBBughTahEJiFNthr+GXhrh/K5Cj4+T38LkiRJkkZSIEmSJGnkbaZZDxwFcSxwKjCLNIESmYQ0mWq4Dnh/Tbmkgo8cSf/7SJIkSRppgSRJkqSx0NJEhr2AIyBOAU4BHoY0QRKZhDRZKkgVfKymfKAiLq6orp1jYYAkSZKkkRdIkiRJGistTZ1hf+AJwLMgngbsizQBEpmENBkq2FbDFwL+Vwc+MQ1fn2FxK5IkSZLGRiBJkiRpLLU0UxkOLPDEIJ4PHA1MI42xRCYhjbeAUsHXKsoba+KjHUo7Sz8hSZIkaewEkiRJksbaEs26IA6E8nSIc4BHATXSGEpkEtL4quC7HXhbpryxS/n2PFd+H0mSJEljK5AkSZI0ETbTbIR4CJRnQrwEeCDSmElkEtL4CbitSzkPqld3KF89gsWbkCRJkjT2AkmSJEkTo6WJDBsCHpHhnCB+EdiANCYSmYQ0PgK2d+GfuvD7A8o/1dS3zLEwQJIkSdJECCRJkiRNnJamGsB0BU/K8J+COA6okEZcIpOQxkLpwfUdyh8PiDdvgDtmWNyOJEmSpIkSSJIkSZpYLU01gBo4NYg/Bw4GaqQRlcgkpJGWK9jaI/9lpvqDHmUwS3+AJEmSpIkUSJIkSdIPLNF0gRcF8XvAvkAPCKQRksgkpJE0CLh9ivLugH8/T/9OJEmSJE28QJIkSZJ+pKWpChxU4N9BnA08EJhGGhGJTEIaKYOA73cpl9fE71VUi3MsDJAkSZKkHwgkSZIk6Se0NN0MswV+LYjjgX2BHtKQS2QS0vALyMD3arh6Cv5qCj4yw+IdSJIkSdKPCSRJkiTpXrQ0GzIcB7wI4vHAfkCNNKQSmYQ03AK+V8PmLuWtHfI7GjZ9F0mSJEm6B4EkSZIk/RQtzT6FeGaBs4HHAvsAFdKQSWQS0nAKuC1gqQMf7FHeNEu/RZIkSZLuQyBJkiRJO2iJ5qFBPBt4BvBIYE8gkIZEIpOQhkvAloC2ggu7lHPn6V+BJEmSJO2AQJIkSZJ2QkvTy3A4xFnA04BHA+uQhkAik5CGxqCCb1dwSYfyjzX1J+ZYuB1JkiRJ2kGBJEmSJO2ClmbjAI4O4gzgOOBhQAdpDSUyCWnNlQpuCri4Ax/fAB+cYfF6JEmSJGknBZIkSZK0G1qafQZwfBAnACcD+wGBtAYSmYS0diq4rYKLa/hkj8EHGzZtRpIkSZJ2USBJkiRJy6ClOTATzwCOB54K7IW0yhKZhLT6AgYVXBHwnmnK+bP0+0iSJEnSbgokSZIkaRkt0TwyiBOAM4AnAlNIqySRSUirqwNfL/C2HuVT8/QvRJIkSZKWSSBJkiRJy6ylmcowC/Fk4DnA4UirIJFJSKujhpuBv+9QruhQf3KOhVuRJEmSpGUUSJIkSdIKaGnIsLHA44N4KvCLwMFIKyiRSUgrq4a7KnhrwCdr4oKKuHmOhYIkSZIkLbNAkiRJklZQS1Nl2Bs4CuI04AzgAUgrIJFJSCujgu01fCrg7T24sAffmWFxgCRJkiStkECSJEmSVkFL0ynEAwscBfwicBywB9IySmQS0vIKyDVcFfDamvKpDnx9lv5dSJIkSdIKCyRJkiRpFS3RTAVxMJTjIJ4PHAF0kZZBIpOQlk8N19bwFuDdNeXqefq3IUmSJEmrJJAkSZKkVdbSRIb1EAcUyllB/CpwCNJuSmQS0u6r4LYa3hHw2orS1tS3zLGQkSRJkqRVFEiSJEnSGmlpYgDrK3hIhpcEcTawF9IuSmQS0q6rYEsHzu/Cn26HTR2qW+dYyEiSJEnSGggkSZIkaY21NDGA6QpmM7wkiNOAjUg7KZFJSDsvYNCFqzqUP8nEeevhzhkWB0iSJEnSGgokSZIkaUi0NDGAGnh6EL8DzAI9IJB2QCKTkHbKoIYbepTXZOKVXcpgln5GkiRJkoZAIEmSJElDajPNiyFeBjwEmEb6KRKZhLRDtgfcPEX50JH0X4QkSZIkDaFAkiRJkoZYS7NHht+AOAfYG5hGuheJTEK6dwED4KYpuLymOmeOhWuRJEmSpCEVSJIkSdKQa2miwMMy/HYQJwAPAKaRfkIik5DuLiADN3Xgq+vhv9Tw2RkWC5IkSZI0xAJJkiRJGhEtTa/AkzO8KIhjgP2ALtKPJDIJ6V8pAbd04MtdytsqeMss/duRJEmSpBEQSJIkSdKIWaK5P/DMIH4emAMeAFRo4iUyCen/Crg94KoO5YIaXjNP/1okSZIkaYQEkiRJkjSiNtMcBPFs4OnAY4F90ERLZBKadAG3B1xdUy6v4VVH0v8KkiRJkjSCAkmSJEkaYS1NJ8MjIX4eeBrwaOD+aCIlMglNqoCtAZtruLgD76ioLptjYQuSJEmSNKICSZIkSRoDLc26ATRBnAU8DXgEsA5NlEQmoUkTkCu4NuCSLrxnHXxyhsXvI0mSJEkjLpAkSZKkMdLS7JPhiRBPB04EDgY6aCIkMglNkoCba7ikho90KRfM0r8GSZIkSRoTgSRJkiSNoSWaA4I4FjgFOB7YFwg01hKZhCZBwJ01XF7g3T3yRfNceRWSJEmSNGYCSZIkSRpjm2kOgzgOOBF4OjCNxlYik9CY296BKwu8awo+fQSLn0OSJEmSxlQgSZIkSWOupelm+BmI44EzgCcDgcZOIpPQuKrh2xW8qaZcVFNfOsfCHUiSJEnSGAskSZIkaUK0NOsHMFMRZ2TKs4J4BBoriUxC46aGOyp4X8DbN8JlMyzehCRJkiRNgECSJEmSJkxLs+8AHhPEmcBzgL3RWEhkEhoXAbmmfLwiXtej9Gfpb0aSJEmSJkggSZIkSRNoiaYC9g9iFng+cCowjUZaIpPQqAsoNXy+wF91yIsVbJ7nygGSJEmSNGECSZIkSZpgm2k6wEEQRwHPA34WmEYjKZFJaISVDrQBr67g/IrytXn6W5EkSZKkCRVIkiRJ0oRraaJAr8BBwIkQ5wCHo5GTyCQ0imq4uQPnVvB24KsV1e1zLBQkSZIkaYIFkiRJkqQfamkiw3TAQwo8B+IFwIFoZCQyCY2SGrZ0KB+oKH8dVFdOw+0zLGYkSZIkSQSSJEmSpH+lpYkMvYBHFOI/As8CNqChl8gkNAoCSg2f6VFekeEzXfJdDZsykiRJkqR/EUiSJEmS7lFLE5moCuUJQfw34EnANBBoKCUyCQ2xAgxqWOpR/mQ78bYpSp6lX5AkSZIk3U0gSZIkSfqpWpr1GU6F+A/A44ANQKChksgkNIwCtlbwz13K22vqv5xj4SYkSZIkSfcpkCRJkiTtsJbmAQN4fhAvBA4G1qOhkcgkNEwCtgPX9eCiDfCKGRavRpIkSZK0QwJJkiRJ0k5raR42gJcHcRJwCNBFay6RSWgYBGTg2i5smmLwRw2bLkGSJEmStFMCSZIkSdIua2kOz8R/Bw4HDgR6aM0kMgmtsRJwUw1XTVNeNUv/H5EkSZIk7ZJAkiRJkrRblmhq4JQgng8cARwA1GjVJTIJrZWAWwOu6lHOC3jlPP3tSJIkSZJ2WSBJkiRJ2m0tTRTYt8AzIc4AjgD2Q6sqkUlotQXcFfDFDuXSDtVrg7hmjoWMJEmSJGm3BJIkSZKkZdPSVBkeXODZQZwIzAL3Q6sikUlotQRsD+jXcHlNvLYmrppjYTuSJEmSpGURSJIkSZKWXUvTzfAY4BcgngI8BliPVlQik9BKC8gB19TwuS68bRo+O8PiHUiSJEmSllUgSZIkSVoxLc0ehXh8gdOApwKHAT20IhKZhFZQqeCGgIs78MEu5YJZ+tcjSZIkSVoRgSRJkiRpxS3R7BfEMcAzgOOAA4EaLatEJqGVUEEK+HwF53UoH52nv4QkSZIkaUUFkiRJkqRV0dJ0MjwE4onAGcBTgfujZZPIJLScArZW8MWAd3Yon6upF+dY2IIkSZIkacUFkiRJkqRV1dJ0BvDIII4Gng38G2AK7bZEJqHlEDCo4WsBbw24pEt1xRwLdyFJkiRJWjWBJEmSJGlNtDTTA3hsEE8Bfgl4FFCjXZbIJLSbSgduCHhXBe/bAF+cYfEWJEmSJEmrLpAkSZIkramW5v6ZeBRwOvBc4AC0SxKZhHZVBVtryoeDeE2PcvUs/e8gSZIkSVozgSRJkiRpKCzR7BfEQ6G8FOJMYD3aKYlMQjsroHQomwbES6co35mnvxlJkiRJ0poLJEmSJElDZTPNQRAzUF4KcQraYYlMQjujC9dA/F5N/tKR9L+CJEmSJGlodJAkSZIkDZUKvl0o1xX4MpR3FPiNII5AWkYd+H4H/jjgvIA2qLcgSZIkSRoqgSRJkiRpKLU0ZOgBBwFnFfiVIA5D9yqRSei+1HBHF94N/HUHru7BnTMsFiRJkiRJQyeQJEmSJA21liYydAscFsRLgV8A9kJ3k8gkdE8CcgcurSm/G3B5DVtm6WckSZIkSUMrkCRJkiSNhCUagqigHAnx28BxwAagQj+UyCT0Y0rAtho2dyi/m+EDNZR5+gVJkiRJ0tALJEmSJEkjp6WZynA8xG8C88A6oGLCJTIJ/UABttSwuUv525r6bXMs3IokSZIkaaQEkiRJkqSR1dLsOYCzg3gR8AhgA1AxoRKZxGQL2BLwnR68dz28ZobFbyJJkiRJGkmBJEmSJGnktTQPH8AvBXEGcBiwDggmTCKTmFjbKri2C5/tUv5ulv4lSJIkSZJGWiBJkiRJGhtLNIcH8WLgWOBhQI8JksgkJk6u4IaAy3vkc+e58v1IkiRJksZCIEmSJEkaO5tpToB4ETALHMaESGQSk6OCm4AvTsN5R7D4aiRJkiRJYyWQJEmSJI2llmZ9hpMhfgV4NHAQYy6RSYy/Cu4AvtijfKKm/ts5Fm5CkiRJkjR2AkmSJEnS2GppKPDADD8XxJnAY4F9GFOJTGJ8VbAN+EoHLlwPr6vgqhkWkSRJkiSNp0CSJEmSNPZamk6Bx2Q4NYgTgTlgHWMmkUmMn4AS8LUaLuxSPlTB+bP0tyBJkiRJGmuBJEmSJGliLNFMA0cGcRpwPDADdBgTiUxivFTwDeCCDuX8mvLRea68FUmSJEnSRAgkSZIkSRNnM82eEMcAJwFPAw5jDCQyifFQwU0BF9bwkZry4Xn6NyBJkiRJmiiBJEmSJGkitTRVhgdCHAOcAhwHPIgRlsgkRlvAnTV8roIP1nB+RbU0x8I2JEmSJEkTJ5AkSZIkTbSWppvhEIgnAWcCxwD3YwQlMonRFLC9hiuD8u4OccE6uGqGxTuQJEmSJE2sQJIkSZKkH2hp1g3g0CCeBDwPmAV6jJBEJjFySgXf6MDbgvLxHnlTw6bvI0mSJEmaeIEkSZIkST+mpdmYiUcAJwK/DBwCVIyARCYxOir4Xk15TyHeMk25epb+d5EkSZIk6UcCSZIkSZLuwRLNXkHMQDkL4mxgPyAYYolMYvgFbOlQLi7Eq7qUxXn630aSJEmSpJ8QSJIkSZJ0L1qaKsM+QTwuU341iDOBmiGVyCSGWunC1R34w0L5XE39nTkWtiFJkiRJ0j0IJEmSJEn6KVqazgD2ruCoDL8fxBxDKJFJDKcupJr8XzPV+zfC9TMs3oUkSZIkSfchkCRJkiRpB7U03Qx7B5xSiFcAD2SIJDKJ4VLBoEf5n4V4VY/Bdxs23YkkSZIkSTsgkCRJkiRpJ7Q0FOhk2A/4tSBeDmxgCCQyieEQMOhSPga8vAPfqmDLLH0kSZIkSdpRgSRJkiRJu2CJhho6BX6mwMshzgLuD1SskUQmsaZKwNYOpd8hfjeoPl0YbJmnjyRJkiRJOyuQJEmSJGk3tTSdARwVxG8DTwI2ADWrLJFJrIkC3NmBb9TwBx2qD8yxcBeSJEmSJO2GQJIkSZKkZdLSbMhwGsRLgBlgD6BmlSQyiVVVAu6s4NoevH4dvH6GxRuRJEmSJGkZBJIkSZIkLbOW5oBMnA38AvAzwEagYoUlMonVEbAl4J878LEe5e9m6V+JJEmSJEnLKJAkSZIkaYUs0cwE8TzgRODhwHogWCGJTGJlBWwPuK6CS7uU18/T/wSSJEmSJK2AQJIkSZKkFdTSTGU4GuLfAscCDwW6rIBEJrFicgU3Bny+S/lQTf3OORZuRZIkSZKkFRJIkiRJkrQKWprpAZwWxFnA0cCDgIpllMgkll8FCfhsBy7qUr12joVbkCRJkiRphQWSJEmSJK2ilmbPATwniBOBJwL7sEwSmcTyqWBLwBdq+PRGeO0Mi99AkiRJkqRVEkiSJEmS9H/ag5sWncI4gMO//zlnHkRqFjZKiiRN6YyGspCXLIwoZKVkY+UL+BA2rG3VJBIpLx+AhZQ8ZMHoKSUpSt3eGty3jVLeYqY8z6nfdQ3BgHZNJg4D08AUsIwFSmQSCxeQK3hSw+Ue5eok/VtIkiRJkvSfBZIkSZIkDcksbQBbgtgD7AM2Aj3mKZFJLEwNLwqc71FuB1ycol+QJEmSJGkIAkmSJEmShuwp7SJgB8RuYBqYYB4SmcT81PAauNJQbgfMbKb/HkmSJEmShiiQJEmSJGkEDGijwHiBbRB7gWlgFf8gkUn8mwo+VHCjhpsVca0inm/iXkaSJEmSpCELJEmSJEkaIQPaOsNKYDvEfmAnsIK/kMgk/k4Fnyq4G3BpDK4vhicT3J9DkiRJkqQREUiSJEmSNIIGtIszrC6wPYgjwBZgCX+QyCT+LKBUMKjgXA3XGsqjSfoJSZIkSZJGTCBJkiRJ0gibpV0WxBpgGjgKrAcafiGRSfxeBa8rykwQMw3l8RT9V0iSJEmSNKICSZIkSZI64CntOMQ6KAcgjgEr+UEik/hZBW9ruA6crSkPN9N/gSRJkiRJIy6QJEmSJKkjBrRVhvEgNmTK8SAOAsv5JpFJfBfwqaHcaYhTBe7WVC83ce8zkiRJkiR1QCBJkiRJUscMaOsvMF7B1gwngtgF9BKZBATkBp41lNMZLiwlXk1wfw5JkiRJkjokkCRJkiSpowa0Y19gKXA4iJOJvPYdvB8jn4bqzBglTdL/iCRJkiRJHRRIkiRJktRxs7RNEL2PcOgN+fIi8twUD+aQJEmSJKnDvgK3I6Xx/2jsCwAAACV0RVh0ZGF0ZTpjcmVhdGUAMjAyMS0wMS0zMVQyMTowMTowNiswMDowMIFOC1MAAAAldEVYdGRhdGU6bW9kaWZ5ADIwMjEtMDEtMzFUMjE6MDE6MDYrMDA6MDDwE7PvAAAAAElFTkSuQmCC;" vertex="1" parent="1">
          <mxGeometry x="585.31" y="724.41" width="44.69" height="48" as="geometry" />
        </mxCell>
        <mxCell id="1UrD_oh5H9wD-xEEALGg-22" value="" style="html=1;whiteSpace=wrap;aspect=fixed;shape=isoRectangle;" vertex="1" parent="1">
          <mxGeometry x="529.4799999999999" y="850" width="150" height="90" as="geometry" />
        </mxCell>
        <mxCell id="1UrD_oh5H9wD-xEEALGg-23" style="edgeStyle=orthogonalEdgeStyle;rounded=0;orthogonalLoop=1;jettySize=auto;html=1;exitX=0.5;exitY=1;exitDx=0;exitDy=0;" edge="1" parent="1" source="1UrD_oh5H9wD-xEEALGg-14" target="1UrD_oh5H9wD-xEEALGg-14">
          <mxGeometry relative="1" as="geometry" />
        </mxCell>
        <mxCell id="1UrD_oh5H9wD-xEEALGg-14" value="" style="shape=image;verticalLabelPosition=bottom;labelBackgroundColor=default;verticalAlign=top;aspect=fixed;imageAspect=0;image=data:image/png,iVBORw0KGgoAAAANSUhEUgAAAO0AAADVCAMAAACMuod9AAAAe1BMVEVovUX///9fujdmvELG5LvL58FbuTFjuz5cuTNhuztlvEBZuC76/fn+//34/PZsv0q94LHq9eZywVKq2Jry+e99xWHS6sqk1ZOHyW643qvZ7dLh8dzm8+GPzHjc7tWDyGmUzn+f04ym1pV3w1m53qyy26OTzn2Ly3OZ0Ybm5bCAAAAOFklEQVR4nM1da2OiOhDFoJCA72etW1vXuu3//4Xro1ohkzBnCMr5eO8WORAmkznziDq1sRnv3qdRs5i+rLqT+rca1fz77S5LTBo3TDaKstQko9Wfp7LtTnXaONEbYpMvlk9j2xup5l9qEZnevz6F7eQ9eTTXM9/8Y/h4tuM8ewLXE1IlXs5Sth/6SVxPyGcPZdvfmyeSjSL19kC2w+kDLTEJ8/4wtoOnkz3S/XoU25fnLuML1N/HsF0/00D9IhdYZpztpB1kozgaPIDty7P22TIMvg/BbF/zZ7O8IZ83znb6DHeRRgbvuijbsXo2xzvk6AkBZNtvw+ZzQ7xvlu2uVWwjNW6S7aQ9JuoCg+1CGNvW7D5XmFVzbJfJs9lZ0FBsDmI7as/uc0X60hTbdZt2nys04i4DbIdtJBvF02bYfj//VEtBfTbBdtM+E3WB4scg+WwXbdt9rjC78Gx7LTnWEsjZggmbbQt3nysydkiOy/bQLge5iIS7CzHZzttqos6Iue+M+e8+2rn7XKHWIdluA5994tBGQPOCNjy2+4C7T2x0Np2mOqghSD/Cse0G3H3M6PN8bJkcspB8k00otoOAt5X8hkUHu4APMWMFbThsZ+HYFgP844CWXvfCsJ2EuyfdLV76EO5YFceMoA2D7VcwE5VawlxA88eRDqrZvoZ7tbZD+xrw002qd6FqtuHEgWxhXz2g+51WSweVbAOKA+ZgX34X0EnLt3XZDgPuPoowm+uA16+WDqrYrhpm2w0Z7FJd+wcQtkHFgcbZRqpiF6pgG1QcaJ6tqUjG8LNdCjaITGmtDGVq2WzT4yW0ktivCunAzxbfH1L9r7vd9P6OCBZMtpn+WE7mk+VOwLdCOvCyxcUB/XHd4sd2fiuPrXq/XmL4D19a/qCNj+0Q/bE4uTOKk6xMl8VW7e7+7zhHF5dfOvCxRcWBNCp8NROLCINtaSluInQ1ewVsD9s/oINsFv3iBT5LTDhsyyGXIZw/ajzSgYctKA4QeaWl8BODbbqz/sUXaDx80oGbLSgOaOJHVsVlyGCriSyZD5CuRzpws8V2H03t673ifXLYUssQjOhk7l3IyRYLK5BkO68w24x0/XbY23UL2C62c+gHCtvGL5YwW4c6iS3meISyhcQB44jmjov2lME2cXxzb5BldkoHDrYb5OyTujS2UkSLwda47hPbIBLHLuRgi1w8HvXpi8xL1oXB1qlfDSPEaKbfCFtIHEhc54630iPjeBeKiOac8QcyzDktHZBsB5aL6yPrCltbGfksP9np1ncR144K+LnYIuKA03WZWZ8+7wyUuBzdb8RS0dIBxRaRpl1njsGLvWkwz7eJS69DYr20AaD+4xuw+zjctMmIuAY3dmH2tEmFNgoqnEuxRcQBh1HZ6nqRmow2fJD8RgnYBFtgwTjW8ZKuVeVH4WJDLxnEd0//cdgi4gBt6JeOFQfEHGN6W3Ndmb45Wzqw2PaBj5bW/501NEiENTYkXcSkEAK2xRYRB8jcDrcbAMWT45gyVXPk5ZbVYpstIg6QiunQ3SABi56npKoDKTVp+fxYZvsCLBVF+cd79wVArYA8WUEnUet1lNgiZoDc0XwlNKgyQnpV0C6Ulz7+ElvEXdHEq/U+LVgHKt/sCeWDlRdZKfWhyLYcE/WBUpg8H20kYEumBUFR7qQY1Suw7SPHDEpg+ue9E1zjo1w1KMxdCtoU2CJ1a1SWQ0W1qkDRpB4pFMYoSgf3bP9AmxlxDq346gVsyx/eCT0oJFeQDu7ZviMPLYPvXKRWE+4flohYOH/fsYWkacpGVYWOJGypLHpMjbv3uO/YQnEubZ8HKo8TokyExNZKsIyB++f1yxYSB6gAdeVxTMSWerli6eDGFhMHiIVc/cRlWSZEQB1byndv5sYWqxwgtLjq9BsZW6LEFrPKd9LBlS0U86G8RoZHJ8wgsuunIe8xulMOr2wx5YEQDRkpfEK2RPOsPZaOcZMOftiC0jRx/GHcgJBtZp/8VmA2xjUyemE7gHYf6nFzggrSXDjrUI5+uDfp4MIWrRywE585dy1la5tEOPn/RzqIuC+mgNS66w/Gdy9lS0SE0ESbOP5li0TyTiB8dU6kV8qWkLAgl/6Ei6U5sd2i68J+2KzVIc5hza0/w6va1fyHLWjPqaznJeemxWxtp/wTThI/SweRpG7NNsms8lwxW/vpokY5uugakaQoxJYtWCtLzNbe3jd4duupG1Ukqfexc7gWnCcmZptZApakOV0+P7IVtLHILC+ZZSLlbK1T31BQkmXGR7agGxVRh1te8ETMlhBOBWyPzyxC83LJH+cdjmtUUVi+o6SWRfUjQdGGXWXE+4zkbI316UjKlPQmmuGfrc2Wd+CUs7X1NUn5n+pG5RQuBh7P1n63ErZmFsGOVFi2vDq+MO823UUj/K+kbKmUTd653H63krrd7EvwR8QOxGu0RSWFsxw5osGsxCbHC8EfRcSGwDORdhCA5wHai2kgKfiO3wV/RBWh8FwUO5GWVxVp+1KivjnHdyv4bolkZ2bIspygyjx+2U8Jy9/9wfG7Fdhk4rzJLQgv/iW3P6R9BhJ1F0i/o3+CClv7fMs9Xcf3OUyf3Fu2ty5R2W46k/hSp9NE+Vmzf10vlmcb1+/t+X9jSUGi5l6mGwmiAET9GXACy5RavL3tFTCRRZd/Do4bXi6zkZyBqCAgFACJU2iiELFPS6xNpIaS8y31sEP2rSjD9sH6IpO8OJ7mJfdpB6YkHwQX9hYgCEudH5ooLkUYyX5zfaSJEoGxxEid41KSRjSprSA310iaqMnl6DDWZd6E8WSqR0rYxhX3IPJMJLbmJ54sMXD2YIR+U2yJhBaJ33jO3RPpQGRHmKYaDhPKOK6L/OTJizQ+siADyhsEQMzXgBW+e40P12+paILkHhggyi2H+O3Gl0RFmTZPpn4EbKl2B6JURmAQ77V5OO+Cri1qop80VYSDL6Ji3oWgF3RuF7AIrF31z9ivVqB4Xau0ZPlSEXXqE55M/L9CzJrAT3vlfCk0F44u4QveZTm21USmnliAlQuHd0im2o6Ent9A1W3j54/f6gRhDmvkaBkS1lCRHRphz4/KYcV7olJNfOFn5r3NlFjH+D5H5Sfjrja1CXV6AT0qshslvHro3HO85R1ZfbsK9nY11ekDf7X32dzimpHI1ewn1NxJuh0M/NW6akZwv57sTTGYBrFU9BRU3Aty1gPBM8rosvnhKADddEH1XsI9XHetF1bHd74W2URnHtWmm+7JRlN/4dxVTx0fVKN5Bj0nYEh1u0BgyDcrOEKXvrUa9bcnOHpjDhe1TJVyjPKF+4aXW4/XqK0+Qzu6ygjabN6QO8bO4T3hK2qrobr5M1z9lg7SafSZq6kRfqC0arTq9ES43JyrIfUmFq1mNXU8vgE+nMQKJ9Xqd3G5pKtl0OAb7qIaZe5R8l+w5avudwH1MrnA2RCqs51iX1qsF87OkzP4oyVC/PX61FxABPNvFzP8pRKryD09Q3Da4PSpkehCno7Ug0PKk6WPXD3dcQUDiqjDcc3+Uj93GnvGQAzGI135daTJ1NePfkJ2FveD2V9KEEzLRt4JgK/fRrnV+DjV6c473mcOSfkXkE106vaF+0E69Q88HCx3kVap5QtlqdKj1dLfeH8uGIxFj5Sp3fPvRrdypsmku3tXuVbKnKGUzs37qlc5wHaeCQ4Z9u7jZAv1c/xBFrHm7s43y+56fTis193lhjV67A+QfPN7N0A/R9Egr8ywRmuheJWQdY35CtCH9Yo45wybAjEWRfVcI9xC9Ni9we32SbGTqQ+uwUhB+iffoN75s2gZmMMN7X9uw9W6Nkxv7BtS4/YiYfSULOKD98aWjlOLk10grv0PqYbm7PobrKf9L0wU5PX2jDS25RmHG2xewS/i5I03w9ODyYs80iOaV1BDr0v1gTEK0I3hKpEHLY2jC3gFW0ku7+0nzaeYb/9Qa36qcM5IvXwvFa8dzd/9GM7SetFZ3/j5oPOBCoiNXrGHhV+x+c7riWbu3aeKbe3EAqMXXeAFz8f76nN/BeSznwLMfcyUfuux/Kt590uLDgAF1JnrJZrZZt2AShaHrfcVD19n00ToOBXhnJ3AYRsoxzoz2ixW3S3xkufb8W6vtCDuRIFKrwLYhpu1GKdK52r/tputx91erztez76/9jrXRhB0cqHmrMWgczSjc23MKUZzgjGpIETihXeCGYdtyBmpTaP+jNSQ82+bRl55HHnkbOOGEWK2cUNJ1g0gyNzqgDPJG0WYmeQh5803iJge9wazlUgHjwc9EEjAFmvP/Bw4EyJgtiLp4MFIKqevs9niiUqPhkscELEVSOOPBWP34bMVSgcPg1MckLFFOxY/Fs6ZhUK2spYLj4JbHBCyrR+0aQ4ecUDKViwdNA+POCBl20hNYhD4xAEx201b3WXHhOB6bBsrFa8J52jfemx57dAeDb84IGcbvCYxCPziQA22bdyF+LsPzJbb6+uB8KTP1mXbYHsWIarEgVpsw0kHgUA0ogjHFq59axiV4kA9tv1WsXWNkQ7Ftl3SgaegIQzbNkkHWbU4UJdtxYTBR4Lo1xOabXt2IWpIXnC2klEBTYCuHAjNtrNuB90ccZDlbIP1AagFhXlRcraB+gDUgnEUJIdn2xlOn32wpzsmNMO20xemwIeCgnfaOmzrVYrXhrhaQ8q2M86f9fGmRE+6ptl2Jgv9DCcyyz/kdSlytp1OL6qfholy1fs6VQt12HY63WntFFsAsckX4kUcgG2ns/3OgmYqupClKhn9hbO7A7M9YjPevU8bJjt9WXXrUj3iP7ZavqFNdSt0AAAAAElFTkSuQmCC;" vertex="1" parent="1">
          <mxGeometry x="585" y="880" width="38.95" height="35" as="geometry" />
        </mxCell>
        <mxCell id="1UrD_oh5H9wD-xEEALGg-24" value="" style="shape=step;perimeter=stepPerimeter;whiteSpace=wrap;html=1;fixedSize=1;" vertex="1" parent="1">
          <mxGeometry x="1090" y="820" width="120" height="80" as="geometry" />
        </mxCell>
        <mxCell id="1UrD_oh5H9wD-xEEALGg-25" value="" style="endArrow=classic;html=1;rounded=0;" edge="1" parent="1" target="1UrD_oh5H9wD-xEEALGg-16">
          <mxGeometry width="50" height="50" relative="1" as="geometry">
            <mxPoint x="401.31" y="680" as="sourcePoint" />
            <mxPoint x="585.31" y="680" as="targetPoint" />
          </mxGeometry>
        </mxCell>
        <mxCell id="1UrD_oh5H9wD-xEEALGg-27" value="instance 2" style="edgeLabel;html=1;align=center;verticalAlign=middle;resizable=0;points=[];" vertex="1" connectable="0" parent="1UrD_oh5H9wD-xEEALGg-25">
          <mxGeometry x="-0.1667" y="-7" relative="1" as="geometry">
            <mxPoint x="144" y="158" as="offset" />
          </mxGeometry>
        </mxCell>
        <mxCell id="1UrD_oh5H9wD-xEEALGg-30" value="" style="endArrow=classic;html=1;rounded=0;" edge="1" parent="1">
          <mxGeometry width="50" height="50" relative="1" as="geometry">
            <mxPoint x="400" y="710" as="sourcePoint" />
            <mxPoint x="510" y="750" as="targetPoint" />
          </mxGeometry>
        </mxCell>
        <mxCell id="1UrD_oh5H9wD-xEEALGg-31" value="instance 3" style="edgeLabel;html=1;align=center;verticalAlign=middle;resizable=0;points=[];" vertex="1" connectable="0" parent="1UrD_oh5H9wD-xEEALGg-30">
          <mxGeometry x="-0.1667" y="-7" relative="1" as="geometry">
            <mxPoint x="164" y="237" as="offset" />
          </mxGeometry>
        </mxCell>
        <mxCell id="1UrD_oh5H9wD-xEEALGg-32" value="" style="endArrow=classic;html=1;rounded=0;" edge="1" parent="1">
          <mxGeometry width="50" height="50" relative="1" as="geometry">
            <mxPoint x="390" y="770" as="sourcePoint" />
            <mxPoint x="520" y="890" as="targetPoint" />
          </mxGeometry>
        </mxCell>
        <mxCell id="1UrD_oh5H9wD-xEEALGg-33" value="Text" style="edgeLabel;html=1;align=center;verticalAlign=middle;resizable=0;points=[];" vertex="1" connectable="0" parent="1UrD_oh5H9wD-xEEALGg-32">
          <mxGeometry x="-0.1667" y="-7" relative="1" as="geometry">
            <mxPoint x="-15" y="333" as="offset" />
          </mxGeometry>
        </mxCell>
        <mxCell id="1UrD_oh5H9wD-xEEALGg-35" value="SERVICE REGISTERY" style="rounded=1;whiteSpace=wrap;html=1;strokeWidth=2;fillWeight=4;hachureGap=8;hachureAngle=45;fillColor=#e2cb1b;sketch=1;rotation=-90;" vertex="1" parent="1">
          <mxGeometry x="295" y="410" width="120" height="60" as="geometry" />
        </mxCell>
        <mxCell id="1UrD_oh5H9wD-xEEALGg-37" value="&lt;div&gt;&lt;font style=&quot;font-size: 11px;&quot;&gt;c&#39;est un annuaire qui va enregister&amp;nbsp;&lt;/font&gt;&lt;/div&gt;&lt;div&gt;&lt;font style=&quot;font-size: 11px;&quot;&gt;le mapping entre un service&amp;nbsp;&lt;/font&gt;&lt;/div&gt;&lt;div&gt;&lt;font style=&quot;font-size: 11px;&quot;&gt;et son instance correspandate &lt;/font&gt;&lt;/div&gt;" style="text;strokeColor=none;fillColor=none;html=1;fontSize=24;fontStyle=1;verticalAlign=middle;align=center;" vertex="1" parent="1">
          <mxGeometry x="415" y="270" width="170.31" height="70" as="geometry" />
        </mxCell>
        <mxCell id="1UrD_oh5H9wD-xEEALGg-38" value="&lt;div&gt;instance 1&amp;nbsp; service A instace 2&amp;nbsp; service B&lt;/div&gt;&lt;div&gt;instance 3 service C&lt;br&gt;&lt;/div&gt;" style="shape=ext;double=1;rounded=1;whiteSpace=wrap;html=1;" vertex="1" parent="1">
          <mxGeometry x="450" y="370" width="120" height="80" as="geometry" />
        </mxCell>
        <UserObject label="app-ereuka" placeholders="1" name="Variable" id="1UrD_oh5H9wD-xEEALGg-40">
          <mxCell style="text;html=1;strokeColor=none;fillColor=none;align=center;verticalAlign=middle;whiteSpace=wrap;overflow=hidden;" vertex="1" parent="1">
            <mxGeometry x="200" y="420" width="160" height="40" as="geometry" />
          </mxCell>
        </UserObject>
      </root>
    </mxGraphModel>
  </diagram>
</mxfile>
